<?xml version="1.0" encoding="UTF-8"?>
<svg width="195px" height="166px" viewBox="0 0 195 166" version="1.1" xmlns="http://www.w3.org/2000/svg" xmlns:xlink="http://www.w3.org/1999/xlink">
    <title>plug-type-A</title>
    <defs>
        <polygon id="path-1" points="0 0 118.366 0 118.366 118.427 0 118.427"></polygon>
    </defs>
    <g id="Page-1" stroke="none" stroke-width="1" fill="none" fill-rule="evenodd">
        <g id="plug-type-A" transform="translate(0.000000, -0.000000)">
            <g id="Group-2">
                <g id="Group-3">
                    <mask id="mask-2" fill="white">
                        <use xlink:href="#path-1"></use>
                    </mask>
                    <g id="Clip-2"></g>
                    <path d="M21.278,2.229 C10.741,2.229 2.168,10.801 2.168,21.339 L2.168,97.088 C2.168,107.626 10.741,116.199 21.278,116.199 L97.028,116.199 C107.565,116.199 116.138,107.626 116.138,97.088 L116.138,21.339 C116.138,10.801 107.565,2.229 97.028,2.229 L21.278,2.229 Z M97.028,118.427 L21.278,118.427 C9.512,118.427 -0.06,108.855 -0.06,97.088 L-0.06,21.339 C-0.06,9.573 9.512,0 21.278,0 L97.028,0 C108.794,0 118.366,9.573 118.366,21.339 L118.366,97.088 C118.366,108.855 108.794,118.427 97.028,118.427 L97.028,118.427 Z" id="Fill-1" fill="#8B8E8D" mask="url(#mask-2)"></path>
                </g>
                <path d="M21.278,3.591 C11.492,3.591 3.53,11.553 3.53,21.339 L3.53,97.088 C3.53,106.874 11.492,114.837 21.278,114.837 L97.028,114.837 C108.151,113.973 115.461,106.685 114.776,97.115 L114.775,21.339 C114.775,11.553 106.814,3.591 97.028,3.591 L21.278,3.591 Z M21.278,115.579 C11.082,115.579 2.787,107.285 2.787,97.088 L2.787,21.339 C2.787,11.143 11.082,2.848 21.278,2.848 L97.028,2.848 C107.223,2.848 115.518,11.143 115.518,21.339 L115.518,97.088 C116.233,107.066 108.642,114.68 97.056,115.579 L21.278,115.579 L21.278,115.579 Z" id="Fill-4" fill="#8B8E8D"></path>
                <path d="M7.369,88.87 C7.164,88.87 6.998,88.704 6.998,88.499 L6.998,37.257 C6.998,37.052 7.164,36.886 7.369,36.886 C7.574,36.886 7.74,37.052 7.74,37.257 L7.74,88.499 C7.74,88.704 7.574,88.87 7.369,88.87" id="Fill-5" fill="#8B8E8D"></path>
                <path d="M12.638,10.818 C12.528,10.818 12.419,10.77 12.346,10.678 C12.219,10.517 12.246,10.284 12.406,10.156 C14.955,8.13 18.023,7.058 21.278,7.058 L42.073,7.058 C42.278,7.058 42.444,7.225 42.444,7.43 C42.444,7.636 42.278,7.802 42.073,7.802 L21.278,7.802 C18.192,7.802 15.285,8.816 12.868,10.738 C12.8,10.792 12.719,10.818 12.638,10.818" id="Fill-6" fill="#8B8E8D"></path>
                <path d="M91.238,111.444 L21.278,111.444 C18.023,111.444 14.955,110.372 12.406,108.346 C12.246,108.218 12.219,107.985 12.346,107.825 C12.474,107.663 12.707,107.637 12.868,107.764 C15.285,109.685 18.192,110.701 21.278,110.701 L91.238,110.701 C91.444,110.701 91.61,110.867 91.61,111.072 C91.61,111.277 91.444,111.444 91.238,111.444" id="Fill-7" fill="#8B8E8D"></path>
                <path d="M110.937,33.79 C110.732,33.79 110.565,33.624 110.565,33.419 L110.565,21.339 C110.565,13.874 104.493,7.802 97.028,7.802 L83.165,7.802 C82.96,7.802 82.794,7.636 82.794,7.43 C82.794,7.225 82.96,7.058 83.165,7.058 L97.028,7.058 C104.902,7.058 111.308,13.465 111.308,21.339 L111.308,33.419 C111.308,33.624 111.142,33.79 110.937,33.79" id="Fill-8" fill="#8B8E8D"></path>
                <path d="M26.357,41.588 C22.328,41.588 19.05,44.867 19.05,48.895 L19.05,69.929 C19.05,73.957 22.328,77.235 26.357,77.235 L91.949,77.235 C95.978,77.235 99.255,73.957 99.255,69.929 L99.255,48.895 C99.255,44.867 95.978,41.588 91.949,41.588 L26.357,41.588 Z M91.949,79.463 L26.357,79.463 C21.1,79.463 16.822,75.186 16.822,69.929 L16.822,48.895 C16.822,43.638 21.1,39.36 26.357,39.36 L91.949,39.36 C97.207,39.36 101.483,43.638 101.483,48.895 L101.483,69.929 C101.483,75.186 97.207,79.463 91.949,79.463 L91.949,79.463 Z" id="Fill-9" fill="#8B8E8D"></path>
                <polygon id="Fill-10" fill="#797C7A" points="35.141 67.519 42.073 67.519 42.073 51.305 35.141 51.305"></polygon>
                <polygon id="Fill-11" fill="#797C7A" points="76.234 67.519 83.165 67.519 83.165 51.305 76.234 51.305"></polygon>
                <path d="M93.596,53.367 C93.391,53.367 93.225,53.201 93.225,52.996 C93.225,49.096 89.691,49 89.541,48.998 C89.335,48.995 89.172,48.826 89.1749592,48.621 C89.178,48.416 89.341,48.242 89.551,48.255 C89.596,48.256 93.967,48.372 93.967,52.996 C93.967,53.201 93.801,53.367 93.596,53.367" id="Fill-12" fill="#8B8E8D"></path>
                <path d="M30.06,74.485 C28.775,74.485 25.731,74.28 23.786,72.472 C22.661,71.426 22.091,70.016 22.091,68.28 C22.091,68.075 22.257,67.909 22.462,67.909 C22.668,67.909 22.833,68.075 22.833,68.28 C22.833,69.801 23.324,71.028 24.292,71.927 C26.521,74 30.564,73.728 30.604,73.727 C30.818,73.708 30.987,73.866 31.001,74.07 C31.017,74.274 30.863,74.452 30.658,74.467 C30.621,74.47 30.403,74.485 30.06,74.485" id="Fill-13" fill="#8B8E8D"></path>
                <path d="M96.333,51.226 C96.127,51.226 95.961,51.06 95.961,50.854 C95.961,49.333 95.471,48.106 94.503,47.207 C92.273,45.134 88.23,45.404 88.191,45.407 C87.985,45.423 87.809,45.268 87.794,45.064 C87.778,44.86 87.932,44.682 88.136,44.666 C88.314,44.652 92.544,44.372 95.009,46.662 C96.133,47.708 96.704,49.119 96.704,50.854 C96.704,51.06 96.538,51.226 96.333,51.226" id="Fill-14" fill="#8B8E8D"></path>
                <path d="M28.572,71.123 C28.57,71.123 28.567,71.123 28.566,71.123 C28.522,71.123 24.15,71.006 24.15,66.382 C24.15,66.177 24.316,66.011 24.521,66.011 C24.727,66.011 24.893,66.177 24.893,66.382 C24.893,70.266 28.427,70.377 28.578,70.38 C28.782,70.385 28.946,70.554 28.942,70.758 C28.939,70.961 28.774,71.123 28.572,71.123" id="Fill-15" fill="#8B8E8D"></path>
                <path d="M151.877,73.45 C151.875,73.45 151.874,73.45 151.872,73.45 C151.828,73.45 147.456,73.333 147.456,68.709 C147.456,68.504 147.622,68.338 147.827,68.338 C148.032,68.338 148.198,68.504 148.198,68.709 C148.198,72.593 151.732,72.704 151.883,72.708 C152.088,72.712 152.252,72.88 152.248,73.085 C152.244,73.288 152.079,73.45 151.877,73.45" id="Fill-16" fill="#8B8E8D"></path>
                <polyline id="Fill-17" fill="#8B8E8D" points="170.197 125.774 167.969 125.774 167.969 92.896 160.625 92.896 160.625 125.774 158.397 125.774 158.397 90.668 170.197 90.668 170.197 125.774"></polyline>
                <path d="M135.943,39.464 L192.651,39.464 L192.651,34.592 L135.943,34.592 L135.943,39.464 Z M133.715,41.693 L194.879,41.693 L194.879,32.363 L133.715,32.363 L133.715,41.693 Z" id="Fill-18" fill="#8B8E8D"></path>
                <path d="M156.547,78.064 L156.547,88.456 C156.547,89.675 157.54,90.668 158.759,90.668 L169.835,90.668 C171.055,90.668 172.047,89.675 172.047,88.456 L172.047,78.064 L156.547,78.064 Z M169.835,92.896 L158.759,92.896 C156.311,92.896 154.319,90.904 154.319,88.456 L154.319,75.835 L174.275,75.835 L174.275,88.456 C174.275,90.904 172.283,92.896 169.835,92.896 L169.835,92.896 Z" id="Fill-19" fill="#8B8E8D"></path>
                <path d="M143.901,41.692 L144.658,70.771 C144.732,73.611 147.015,75.835 149.857,75.835 L178.738,75.835 C181.579,75.835 183.862,73.611 183.936,70.771 L184.693,41.692 L143.901,41.692 Z M178.738,78.064 L149.857,78.064 C145.798,78.064 142.536,74.886 142.432,70.829 L141.615,39.464 L186.98,39.464 L186.163,70.829 C186.058,74.886 182.796,78.064 178.738,78.064 L178.738,78.064 Z" id="Fill-20" fill="#8B8E8D"></path>
                <path d="M148.212,32.363 L152.302,32.363 L152.302,4.532 L148.212,4.532 L148.212,32.363 Z M145.983,34.591 L154.53,34.591 L154.53,2.304 L145.983,2.304 L145.983,34.591 Z" id="Fill-21" fill="#8B8E8D"></path>
                <path d="M176.304,32.363 L180.392,32.363 L180.392,4.532 L176.304,4.532 L176.304,32.363 Z M174.077,34.591 L182.62,34.591 L182.62,2.304 L174.077,2.304 L174.077,34.591 Z" id="Fill-22" fill="#8B8E8D"></path>
                <path d="M174.188,54.641 L154.407,54.641 C154.201,54.641 154.035,54.475 154.035,54.269 C154.035,54.064 154.201,53.898 154.407,53.898 L174.188,53.898 C174.393,53.898 174.559,54.064 174.559,54.269 C174.559,54.475 174.393,54.641 174.188,54.641" id="Fill-23" fill="#8B8E8D"></path>
                <path d="M174.188,58.745 L154.407,58.745 C154.201,58.745 154.035,58.579 154.035,58.373 C154.035,58.168 154.201,58.002 154.407,58.002 L174.188,58.002 C174.393,58.002 174.559,58.168 174.559,58.373 C174.559,58.579 174.393,58.745 174.188,58.745" id="Fill-24" fill="#8B8E8D"></path>
                <path d="M174.188,62.849 L154.407,62.849 C154.201,62.849 154.035,62.683 154.035,62.477 C154.035,62.272 154.201,62.105 154.407,62.105 L174.188,62.105 C174.393,62.105 174.559,62.272 174.559,62.477 C174.559,62.683 174.393,62.849 174.188,62.849" id="Fill-25" fill="#8B8E8D"></path>
                <path d="M181.791,51.113 C181.592,51.113 181.427,50.954 181.42,50.753 L181.272,45.928 C181.299,45.667 181.238,45.471 181.103,45.317 C180.966,45.163 180.779,45.079 180.573,45.079 L175.85,45.079 C175.646,45.079 175.479,44.912 175.479,44.708 C175.479,44.503 175.646,44.336 175.85,44.336 L180.573,44.336 C180.988,44.336 181.384,44.515 181.659,44.825 C181.934,45.136 182.062,45.55 182.011,45.962 L182.163,50.73 C182.169,50.935 182.008,51.106 181.803,51.113 C181.799,51.113 181.795,51.113 181.791,51.113" id="Fill-26" fill="#8B8E8D"></path>
                <path d="M149.228,31.247 C149.023,31.247 148.857,31.081 148.857,30.876 L148.857,5.905 C148.857,5.7 149.023,5.534 149.228,5.534 C149.433,5.534 149.599,5.7 149.599,5.905 L149.599,30.876 C149.599,31.081 149.433,31.247 149.228,31.247" id="Fill-27" fill="#8B8E8D"></path>
                <path d="M177.243,31.247 C177.037,31.247 176.872,31.081 176.872,30.876 L176.872,5.905 C176.872,5.7 177.037,5.534 177.243,5.534 C177.448,5.534 177.614,5.7 177.614,5.905 L177.614,30.876 C177.614,31.081 177.448,31.247 177.243,31.247" id="Fill-28" fill="#8B8E8D"></path>
                <path d="M25.118,159.475 L23.389,159.475 C21.073,159.475 19.834,158.138 19.834,155.691 L19.834,145.057 L17.779,145.057 L17.779,143.296 L19.834,143.296 L19.834,139.153 L21.921,139.153 L21.921,143.296 L24.661,143.296 L24.661,145.057 L21.921,145.057 L21.921,155.3 C21.921,156.736 22.345,157.616 23.911,157.616 L25.118,157.616 L25.118,159.475" id="Fill-29" fill="#676867"></path>
                <path d="M32.752,162.998 C32.034,164.988 30.697,166 28.739,166 L27.664,166 L27.664,164.173 L28.708,164.173 C29.816,164.173 30.599,163.487 31.024,162.117 L31.903,159.41 L25.934,143.328 L28.218,143.328 L30.86,150.799 L32.882,156.767 L32.98,156.767 L35.068,150.636 L37.579,143.328 L39.733,143.328 L32.752,162.998" id="Fill-30" fill="#676867"></path>
                <path d="M47.987,157.649 C50.858,157.649 52.292,155.561 52.292,151.418 C52.292,149.722 52.162,148.678 51.64,147.276 C51.151,145.873 49.977,145.09 48.15,145.09 C46.421,145.09 45.182,145.971 44.562,147.308 C44.007,148.646 43.779,149.917 43.779,151.386 C43.779,155.561 45.182,157.649 47.987,157.649 Z M41.724,143.296 L43.779,143.296 L43.779,145.547 L43.844,145.579 C44.986,143.949 46.551,143.133 48.607,143.133 C52.488,143.133 54.445,145.873 54.445,151.32 C54.445,153.538 54.086,155.333 53.173,157.029 C52.292,158.693 50.564,159.671 48.182,159.671 C46.291,159.671 44.855,158.921 43.844,157.42 L43.779,157.42 L43.779,165.934 L41.724,165.934 L41.724,143.296 L41.724,143.296 Z" id="Fill-31" fill="#676867"></path>
                <path d="M68.474,150.244 C68.44,146.819 66.81,145.025 64.037,145.025 C61.33,145.025 59.633,146.95 59.47,150.244 L68.474,150.244 Z M70.529,151.94 L59.47,151.94 C59.373,155.365 61.069,157.844 64.461,157.844 C65.831,157.844 67.104,157.388 68.245,156.442 L69.517,157.844 C68.147,159.052 66.484,159.671 64.527,159.671 C62.7,159.671 61.199,159.247 59.731,158.106 C58.296,156.964 57.415,154.68 57.415,151.451 C57.415,148.417 58.296,146.069 59.633,144.862 C60.971,143.655 62.439,143.133 64.103,143.133 C66.027,143.133 67.593,143.785 68.767,145.123 C69.941,146.46 70.529,148.189 70.529,150.342 L70.529,151.94 L70.529,151.94 Z" id="Fill-32" fill="#676867"></path>
            </g>
            <path d="M92.027,150.603 L91.179,147.994 L89.841,143.492 L89.711,143.492 L88.406,147.928 L87.558,150.603 L92.027,150.603 Z M100.574,159.475 L95.289,159.475 L93.593,154.844 L85.992,154.844 L84.296,159.475 L79.012,159.475 L87.819,136.772 L91.766,136.772 L100.574,159.475 L100.574,159.475 Z" id="Fill-33" fill="#676867"></path>
        </g>
    </g>
</svg>