<?xml version="1.0" encoding="UTF-8"?>
<svg width="196px" height="182px" viewBox="0 0 196 182" version="1.1" xmlns="http://www.w3.org/2000/svg" xmlns:xlink="http://www.w3.org/1999/xlink">
    <title>plug-type-B</title>
    <g id="Page-1" stroke="none" stroke-width="1" fill="none" fill-rule="evenodd">
        <g id="plug-type-B">
            <path d="M21.338,17.868 C10.801,17.868 2.228,26.441 2.228,36.979 L2.228,112.728 C2.228,123.266 10.801,131.838 21.338,131.838 L97.088,131.838 C107.625,131.838 116.198,123.266 116.198,112.728 L116.198,36.979 C116.198,26.441 107.625,17.868 97.088,17.868 L21.338,17.868 Z M97.088,134.066 L21.338,134.066 C9.572,134.066 0,124.494 0,112.728 L0,36.979 C0,25.213 9.572,15.64 21.338,15.64 L97.088,15.64 C108.854,15.64 118.426,25.213 118.426,36.979 L118.426,112.728 C118.426,124.494 108.854,134.066 97.088,134.066 L97.088,134.066 Z" id="Fill-149" fill="#8B8E8D"></path>
            <g id="Group" transform="translate(2.847000, 0.000000)">
                <path d="M18.491,19.231 C8.705,19.231 0.743,27.192 0.743,36.979 L0.743,112.728 C0.743,122.515 8.705,130.476 18.491,130.476 L94.241,130.476 C105.364,129.613 112.674,122.325 111.989,112.755 L111.988,36.979 C111.988,27.192 104.027,19.231 94.241,19.231 L18.491,19.231 Z M18.491,131.22 C8.295,131.22 -7.10542736e-15,122.924 -7.10542736e-15,112.728 L-7.10542736e-15,36.979 C-7.10542736e-15,26.783 8.295,18.488 18.491,18.488 L94.241,18.488 C104.436,18.488 112.731,26.783 112.731,36.979 L112.731,112.728 C113.446,122.705 105.855,130.32 94.269,131.218 L18.491,131.22 L18.491,131.22 Z" id="Fill-151" fill="#8B8E8D"></path>
                <path d="M4.582,104.511 C4.377,104.511 4.211,104.344 4.211,104.139 L4.211,52.896 C4.211,52.691 4.377,52.525 4.582,52.525 C4.787,52.525 4.953,52.691 4.953,52.896 L4.953,104.139 C4.953,104.344 4.787,104.511 4.582,104.511" id="Fill-152" fill="#8B8E8D"></path>
                <path d="M9.851,26.458 C9.741,26.458 9.632,26.41 9.559,26.318 C9.432,26.157 9.459,25.923 9.619,25.796 C12.168,23.769 15.236,22.698 18.491,22.698 L39.286,22.698 C39.491,22.698 39.657,22.865 39.657,23.07 C39.657,23.274 39.491,23.441 39.286,23.441 L18.491,23.441 C15.405,23.441 12.498,24.456 10.081,26.377 C10.013,26.432 9.932,26.458 9.851,26.458" id="Fill-153" fill="#8B8E8D"></path>
                <path d="M88.451,127.082 L18.491,127.082 C15.236,127.082 12.168,126.012 9.619,123.985 C9.459,123.857 9.432,123.623 9.559,123.463 C9.687,123.303 9.92,123.275 10.081,123.403 C12.498,125.325 15.405,126.339 18.491,126.339 L88.451,126.339 C88.657,126.339 88.823,126.506 88.823,126.711 C88.823,126.916 88.657,127.082 88.451,127.082" id="Fill-154" fill="#8B8E8D"></path>
                <path d="M108.15,49.43 C107.945,49.43 107.778,49.264 107.778,49.059 L107.778,36.979 C107.778,29.514 101.706,23.441 94.241,23.441 L80.378,23.441 C80.173,23.441 80.007,23.274 80.007,23.07 C80.007,22.865 80.173,22.698 80.378,22.698 L94.241,22.698 C102.115,22.698 108.521,29.104 108.521,36.979 L108.521,49.059 C108.521,49.264 108.355,49.43 108.15,49.43" id="Fill-155" fill="#8B8E8D"></path>
                <path d="M23.57,40.889 C19.541,40.889 16.263,44.166 16.263,48.195 L16.263,69.229 C16.263,73.258 19.541,76.536 23.57,76.536 L38.543,76.536 L38.543,90.646 C38.543,100.474 46.538,108.469 56.366,108.469 C66.194,108.469 74.19,100.474 74.19,90.646 L74.19,76.536 L89.162,76.536 C93.191,76.536 96.468,73.258 96.468,69.229 L96.468,48.195 C96.468,44.166 93.191,40.889 89.162,40.889 L23.57,40.889 Z M56.366,110.698 C45.309,110.698 36.315,101.703 36.315,90.646 L36.315,78.764 L23.57,78.764 C18.313,78.764 14.035,74.487 14.035,69.229 L14.035,48.195 C14.035,42.938 18.313,38.661 23.57,38.661 L89.162,38.661 C94.42,38.661 98.696,42.938 98.696,48.195 L98.696,69.229 C98.696,74.487 94.42,78.764 89.162,78.764 L76.417,78.764 L76.417,90.646 C76.417,101.703 67.422,110.698 56.366,110.698 L56.366,110.698 Z" id="Fill-156" fill="#8B8E8D"></path>
                <polygon id="Fill-157" fill="#797C7A" points="32.354 66.82 39.286 66.82 39.286 50.605 32.354 50.605"></polygon>
                <polygon id="Fill-158" fill="#797C7A" points="73.447 66.82 80.378 66.82 80.378 50.605 73.447 50.605"></polygon>
                <path d="M90.809,52.667 C90.604,52.667 90.438,52.501 90.438,52.297 C90.438,48.396 86.904,48.3 86.754,48.298 C86.548,48.295 86.385,48.127 86.3879592,47.922 C86.391,47.716 86.554,47.522 86.764,47.556 C86.809,47.556 91.18,47.673 91.18,52.297 C91.18,52.501 91.014,52.667 90.809,52.667" id="Fill-159" fill="#8B8E8D"></path>
                <path d="M93.546,50.526 C93.34,50.526 93.174,50.36 93.174,50.155 C93.174,48.634 92.684,47.407 91.716,46.507 C89.486,44.435 85.443,44.705 85.404,44.708 C85.198,44.73 85.022,44.57 85.007,44.365 C84.991,44.16 85.145,43.982 85.349,43.967 C85.529,43.957 89.757,43.673 92.222,45.964 C93.346,47.009 93.917,48.419 93.917,50.155 C93.917,50.36 93.751,50.526 93.546,50.526" id="Fill-160" fill="#8B8E8D"></path>
                <path d="M52.268,105.295 C52.202,105.295 52.135,105.278 52.075,105.24 C46.598,101.871 44.385,99.847 42.068,94.498 C41.987,94.309 42.073,94.092 42.261,94.01 C42.451,93.928 42.668,94.015 42.75,94.203 C44.986,99.369 47.137,101.33 52.464,104.607 C52.638,104.715 52.693,104.943 52.586,105.118 C52.515,105.232 52.393,105.295 52.268,105.295" id="Fill-161" fill="#8B8E8D"></path>
                <path d="M61.094,94.531 C61.094,97.141 58.977,99.259 56.366,99.259 C53.755,99.259 51.638,97.141 51.638,94.531 C51.638,91.92 53.755,89.803 56.366,89.803 C58.977,89.803 61.094,91.92 61.094,94.531" id="Fill-162" fill="#797C7A"></path>
                <path d="M151.164,88.733 C151.163,88.733 151.161,88.733 151.159,88.733 C151.115,88.732 146.743,88.615 146.743,83.992 C146.743,83.786 146.909,83.621 147.114,83.621 C147.319,83.621 147.485,83.786 147.485,83.992 C147.485,87.875 151.02,87.988 151.171,87.99 C151.376,87.994 151.538,88.162 151.535041,88.368 C151.531,88.57 151.366,88.733 151.164,88.733" id="Fill-163" fill="#8B8E8D"></path>
                <polyline id="Fill-164" fill="#8B8E8D" points="167.533 140.895 165.305 140.895 165.305 108.016 157.96 108.016 157.96 140.895 155.732 140.895 155.732 105.789 167.533 105.789 167.533 140.895"></polyline>
                <path d="M153.883,93.185 L153.883,103.577 C153.883,104.796 154.875,105.789 156.095,105.789 L167.171,105.789 C168.39,105.789 169.382,104.796 169.382,103.577 L169.382,93.185 L153.883,93.185 Z M167.171,108.016 L156.095,108.016 C153.646,108.016 151.654,106.024 151.654,103.577 L151.654,90.956 L171.61,90.956 L171.61,103.577 C171.61,106.024 169.618,108.016 167.171,108.016 L167.171,108.016 Z" id="Fill-165" fill="#8B8E8D"></path>
                <path d="M171.403,64.902 L151.621,64.902 C151.416,64.902 151.25,64.736 151.25,64.53 C151.25,64.325 151.416,64.159 151.621,64.159 L171.403,64.159 C171.608,64.159 171.774,64.325 171.774,64.53 C171.774,64.736 171.608,64.902 171.403,64.902" id="Fill-166" fill="#8B8E8D"></path>
                <path d="M171.403,69.005 L151.621,69.005 C151.416,69.005 151.25,68.839 151.25,68.634 C151.25,68.429 151.416,68.263 151.621,68.263 L171.403,68.263 C171.608,68.263 171.774,68.429 171.774,68.634 C171.774,68.839 171.608,69.005 171.403,69.005" id="Fill-167" fill="#8B8E8D"></path>
                <path d="M171.403,73.109 L151.621,73.109 C151.416,73.109 151.25,72.943 151.25,72.738 C151.25,72.533 151.416,72.367 151.621,72.367 L171.403,72.367 C171.608,72.367 171.774,72.533 171.774,72.738 C171.774,72.943 171.608,73.109 171.403,73.109" id="Fill-168" fill="#8B8E8D"></path>
                <path d="M188.022,41.717 C187.822,41.717 187.657,41.558 187.651,41.357 L187.503,36.532 C187.53,36.272 187.469,36.075 187.333,35.921 C187.197,35.767 187.009,35.682 186.804,35.682 L182.081,35.682 C181.876,35.682 181.71,35.516 181.71,35.312 C181.71,35.106 181.876,34.94 182.081,34.94 L186.804,34.94 C187.219,34.94 187.614,35.119 187.89,35.429 C188.164,35.74 188.293,36.154 188.242,36.566 L188.394,41.334 C188.4,41.539 188.239,41.71 188.034,41.717 C188.03,41.717 188.026,41.717 188.022,41.717" id="Fill-169" fill="#8B8E8D"></path>
                <path d="M143.935,30.06 L148.025,30.06 L148.025,2.228 L143.935,2.228 L143.935,30.06 Z M141.707,32.288 L150.253,32.288 L150.253,-1.42108547e-14 L141.707,-1.42108547e-14 L141.707,32.288 Z" id="Fill-170" fill="#8B8E8D"></path>
                <path d="M174.999,30.06 L179.086,30.06 L179.086,2.228 L174.999,2.228 L174.999,30.06 Z M172.771,32.288 L181.314,32.288 L181.314,-1.42108547e-14 L172.771,-1.42108547e-14 L172.771,32.288 Z" id="Fill-171" fill="#8B8E8D"></path>
                <path d="M144.951,28.944 C144.745,28.944 144.579,28.778 144.579,28.573 L144.579,3.601 C144.579,3.396 144.745,3.23 144.951,3.23 C145.156,3.23 145.322,3.396 145.322,3.601 L145.322,28.573 C145.322,28.778 145.156,28.944 144.951,28.944" id="Fill-172" fill="#8B8E8D"></path>
                <path d="M175.937,28.944 C175.732,28.944 175.566,28.778 175.566,28.573 L175.566,3.601 C175.566,3.396 175.732,3.23 175.937,3.23 C176.142,3.23 176.308,3.396 176.308,3.601 L176.308,28.573 C176.308,28.778 176.142,28.944 175.937,28.944" id="Fill-173" fill="#8B8E8D"></path>
                <path d="M157.925,30.06 L165.099,30.06 L165.099,4.076 C165.099,3.057 164.271,2.228 163.252,2.228 L159.771,2.228 C158.753,2.228 157.925,3.057 157.925,4.076 L157.925,30.06 Z M167.327,32.288 L155.697,32.288 L155.697,4.076 C155.697,1.829 157.525,-1.42108547e-14 159.771,-1.42108547e-14 L163.252,-1.42108547e-14 C165.5,-1.42108547e-14 167.327,1.829 167.327,4.076 L167.327,32.288 L167.327,32.288 Z" id="Fill-174" fill="#8B8E8D"></path>
                <path d="M132.102,47.102 L190.919,47.102 L190.919,32.288 L132.102,32.288 L132.102,47.102 Z M192.032,49.329 L130.988,49.329 C130.373,49.329 129.874,48.83 129.874,48.215 L129.874,31.174 C129.874,30.558 130.373,30.06 130.988,30.06 L192.032,30.06 C192.648,30.06 193.146,30.558 193.146,31.174 L193.146,48.215 C193.146,48.83 192.648,49.329 192.032,49.329 L192.032,49.329 Z" id="Fill-175" fill="#8B8E8D"></path>
                <path d="M132.507,49.329 L144.42,87.103 C145.147,89.408 147.258,90.956 149.676,90.956 L173.345,90.956 C175.762,90.956 177.874,89.408 178.601,87.103 L190.513,49.329 L132.507,49.329 Z M173.345,93.185 L149.676,93.185 C146.281,93.185 143.316,91.01 142.295,87.773 L129.925,48.551 C129.819,48.212 129.88,47.843 130.09,47.557 C130.299,47.271 130.633,47.102 130.988,47.102 L192.032,47.102 C192.387,47.102 192.721,47.271 192.93,47.557 C193.141,47.843 193.202,48.212 193.095,48.551 L180.725,87.773 C179.704,91.01 176.738,93.185 173.345,93.185 L173.345,93.185 Z" id="Fill-176" fill="#8B8E8D"></path>
                <path d="M23.205,174.74 L21.476,174.74 C19.16,174.74 17.921,173.403 17.921,170.956 L17.921,160.322 L15.866,160.322 L15.866,158.561 L17.921,158.561 L17.921,154.418 L20.008,154.418 L20.008,158.561 L22.748,158.561 L22.748,160.322 L20.008,160.322 L20.008,170.564 C20.008,172 20.432,172.88 21.998,172.88 L23.205,172.88 L23.205,174.74" id="Fill-177" fill="#676867"></path>
                <path d="M30.839,178.263 C30.121,180.252 28.784,181.264 26.826,181.264 L25.75,181.264 L25.75,179.437 L26.794,179.437 C27.903,179.437 28.686,178.752 29.11,177.382 L29.99,174.675 L24.021,158.594 L26.305,158.594 L28.947,166.064 L30.969,172.033 L31.068,172.033 L33.155,165.9 L35.666,158.594 L37.82,158.594 L30.839,178.263" id="Fill-178" fill="#676867"></path>
                <path d="M46.074,172.913 C48.944,172.913 50.38,170.826 50.38,166.683 C50.38,164.987 50.249,163.943 49.727,162.54 C49.238,161.138 48.064,160.354 46.237,160.354 C44.508,160.354 43.269,161.235 42.649,162.573 C42.094,163.911 41.866,165.182 41.866,166.65 C41.866,170.826 43.269,172.913 46.074,172.913 Z M39.811,158.561 L41.866,158.561 L41.866,160.811 L41.931,160.844 C43.072,159.213 44.638,158.398 46.693,158.398 C50.575,158.398 52.532,161.138 52.532,166.585 C52.532,168.804 52.174,170.598 51.26,172.293 C50.38,173.958 48.651,174.935 46.269,174.935 C44.378,174.935 42.943,174.185 41.931,172.685 L41.866,172.685 L41.866,181.199 L39.811,181.199 L39.811,158.561 L39.811,158.561 Z" id="Fill-179" fill="#676867"></path>
                <path d="M66.561,165.509 C66.528,162.084 64.897,160.29 62.124,160.29 C59.417,160.29 57.72,162.214 57.557,165.509 L66.561,165.509 Z M68.615,167.205 L57.557,167.205 C57.459,170.63 59.156,173.109 62.548,173.109 C63.919,173.109 65.191,172.652 66.332,171.706 L67.604,173.109 C66.235,174.316 64.571,174.935 62.613,174.935 C60.787,174.935 59.286,174.511 57.818,173.369 C56.383,172.228 55.502,169.945 55.502,166.716 C55.502,163.682 56.383,161.333 57.72,160.126 C59.058,158.919 60.526,158.398 62.189,158.398 C64.114,158.398 65.679,159.05 66.854,160.388 C68.028,161.724 68.615,163.453 68.615,165.607 L68.615,167.205 L68.615,167.205 Z" id="Fill-180" fill="#676867"></path>
                <path d="M88.744,165.215 L84.47,165.215 L84.47,170.239 L88.744,170.239 C90.734,170.239 91.712,169.195 91.712,167.759 C91.712,166.356 90.701,165.215 88.744,165.215 Z M88.32,156.538 L84.47,156.538 L84.47,161.072 L88.32,161.072 C90.277,161.072 91.19,160.029 91.19,158.691 C91.19,157.256 90.244,156.538 88.32,156.538 Z M94.778,172.848 C93.408,174.12 91.745,174.74 89.788,174.74 L79.447,174.74 L79.447,152.036 L89.005,152.036 C93.734,152.036 96.507,154.581 96.507,158.462 C96.507,160.257 95.594,162.018 93.67,162.899 L93.67,163.03 C94.648,163.388 95.43,164.04 95.985,165.052 C96.572,166.031 96.866,167.01 96.866,167.987 C96.866,169.977 96.181,171.576 94.778,172.848 L94.778,172.848 Z" id="Fill-181" fill="#676867"></path>
            </g>
        </g>
    </g>
</svg>