<?xml version="1.0" encoding="UTF-8"?>
<svg width="194px" height="173px" viewBox="0 0 194 173" version="1.1" xmlns="http://www.w3.org/2000/svg" xmlns:xlink="http://www.w3.org/1999/xlink">
    <title>plug-type-C</title>
    <g id="Page-1" stroke="none" stroke-width="1" fill="none" fill-rule="evenodd">
        <g id="plug-type-C">
            <path d="M21.338,8.746 C10.801,8.746 2.228,17.318 2.228,27.855 L2.228,103.604 C2.228,114.142 10.801,122.716 21.338,122.716 L97.088,122.716 C107.625,122.716 116.198,114.142 116.198,103.604 L116.198,27.855 C116.198,17.318 107.625,8.746 97.088,8.746 L21.338,8.746 Z M97.088,124.944 L21.338,124.944 C9.572,124.944 0,115.372 0,103.604 L0,27.855 C0,16.09 9.572,6.517 21.338,6.517 L97.088,6.517 C108.854,6.517 118.426,16.09 118.426,27.855 L118.426,103.604 C118.426,115.372 108.854,124.944 97.088,124.944 L97.088,124.944 Z" id="Fill-280" fill="#8B8E8D"></path>
            <g id="Group" transform="translate(2.825000, 0.000000)">
                <path d="M18.491,10.108 C8.705,10.108 0.742,18.07 0.742,27.855 L0.742,103.604 C0.742,113.391 8.705,121.354 18.491,121.354 L94.24,121.354 C105.364,120.49 112.675,113.202 111.989,103.632 L111.988,27.855 C111.988,18.07 104.026,10.108 94.24,10.108 L18.491,10.108 Z M18.491,122.097 C8.295,122.097 0,113.802 0,103.604 L0,27.855 C0,17.66 8.295,9.366 18.491,9.366 L94.24,9.366 C104.436,9.366 112.731,17.66 112.731,27.855 L112.731,103.604 C113.446,113.582 105.855,121.197 94.269,122.095 L18.491,122.097 L18.491,122.097 Z" id="Fill-282" fill="#8B8E8D"></path>
                <path d="M4.604,95.349 C4.399,95.349 4.233,95.183 4.233,94.978 L4.233,43.736 C4.233,43.531 4.399,43.365 4.604,43.365 C4.809,43.365 4.975,43.531 4.975,43.736 L4.975,94.978 C4.975,95.183 4.809,95.349 4.604,95.349" id="Fill-283" fill="#8B8E8D"></path>
                <path d="M9.873,17.298 C9.763,17.298 9.654,17.25 9.581,17.158 C9.454,16.997 9.481,16.763 9.641,16.636 C12.19,14.609 15.258,13.538 18.513,13.538 L39.308,13.538 C39.513,13.538 39.679,13.705 39.679,13.91 C39.679,14.114 39.513,14.281 39.308,14.281 L18.513,14.281 C15.427,14.281 12.52,15.296 10.103,17.218 C10.035,17.272 9.954,17.298 9.873,17.298" id="Fill-284" fill="#8B8E8D"></path>
                <path d="M88.473,117.923 L18.513,117.923 C15.258,117.923 12.19,116.851 9.641,114.825 C9.481,114.698 9.454,114.464 9.581,114.303 C9.709,114.143 9.942,114.115 10.103,114.244 C12.52,116.164 15.427,117.18 18.513,117.18 L88.473,117.18 C88.679,117.18 88.845,117.346 88.845,117.551 C88.845,117.757 88.679,117.923 88.473,117.923" id="Fill-285" fill="#8B8E8D"></path>
                <path d="M108.172,40.271 C107.967,40.271 107.8,40.104 107.8,39.899 L107.8,27.819 C107.8,20.354 101.728,14.281 94.263,14.281 L80.4,14.281 C80.195,14.281 80.029,14.114 80.029,13.91 C80.029,13.705 80.195,13.538 80.4,13.538 L94.263,13.538 C102.137,13.538 108.543,19.945 108.543,27.819 L108.543,39.899 C108.543,40.104 108.377,40.271 108.172,40.271" id="Fill-286" fill="#8B8E8D"></path>
                <path d="M56.388,30.046 C36.712,30.046 20.704,46.055 20.704,65.73 C20.704,85.407 36.712,101.415 56.388,101.415 C76.064,101.415 92.072,85.407 92.072,65.73 C92.072,46.055 76.064,30.046 56.388,30.046 Z M56.388,103.642 C35.484,103.642 18.476,86.636 18.476,65.73 C18.476,44.826 35.484,27.818 56.388,27.818 C77.293,27.818 94.3,44.826 94.3,65.73 C94.3,86.636 77.293,103.642 56.388,103.642 L56.388,103.642 Z" id="Fill-287" fill="#8B8E8D"></path>
                <path d="M57.831,98.937 C47.11,98.937 36.864,93.683 30.659,84.663 C30.543,84.495 30.586,84.263 30.754,84.146 C30.924,84.031 31.154,84.073 31.271,84.242 C38.424,94.641 51.075,99.921 63.496,97.69 C63.7,97.657 63.891,97.789 63.927,97.99 C63.964,98.191 63.829,98.384 63.628,98.421 C61.695,98.767 59.754,98.937 57.831,98.937" id="Fill-288" fill="#8B8E8D"></path>
                <path d="M45.671,92.586 C45.615,92.586 45.557,92.572 45.503,92.547 C38.242,88.858 35.239,86.532 31.764,80.023 C31.668,79.843 31.736,79.617 31.917,79.52 C32.097,79.425 32.323,79.492 32.419,79.673 C35.8,86.006 38.735,88.275 45.84,91.884 C46.022,91.976 46.095,92.2 46.002,92.383 C45.937,92.512 45.807,92.586 45.671,92.586" id="Fill-289" fill="#8B8E8D"></path>
                <path d="M44.217,65.73 C44.217,68.342 42.1,70.458 39.489,70.458 C36.878,70.458 34.761,68.342 34.761,65.73 C34.761,63.119 36.878,61.002 39.489,61.002 C42.1,61.002 44.217,63.119 44.217,65.73" id="Fill-290" fill="#797C7A"></path>
                <path d="M78.015,65.73 C78.015,68.342 75.898,70.458 73.287,70.458 C70.675,70.458 68.558,68.342 68.558,65.73 C68.558,63.119 70.675,61.002 73.287,61.002 C75.898,61.002 78.015,63.119 78.015,65.73" id="Fill-291" fill="#797C7A"></path>
                <path d="M146.821,79.079 C146.82,79.079 146.818,79.079 146.816,79.079 C146.772,79.079 142.4,78.962 142.4,74.339 C142.4,74.133 142.566,73.967 142.771,73.967 C142.977,73.967 143.143,74.133 143.143,74.339 C143.143,78.222 146.677,78.333 146.828,78.336 C147.032,78.34 147.196,78.509 147.193041,78.714 C147.189,78.917 147.024,79.079 146.821,79.079" id="Fill-292" fill="#8B8E8D"></path>
                <polyline id="Fill-293" fill="#8B8E8D" points="167.554 131.983 165.326 131.983 165.326 99.104 157.981 99.104 157.981 131.983 155.754 131.983 155.754 96.877 167.554 96.877 167.554 131.983"></polyline>
                <path d="M153.904,84.271 L153.904,94.664 C153.904,95.885 154.896,96.877 156.116,96.877 L167.192,96.877 C168.411,96.877 169.404,95.885 169.404,94.664 L169.404,84.271 L153.904,84.271 Z M167.192,99.104 L156.116,99.104 C153.668,99.104 151.675,97.113 151.675,94.664 L151.675,82.044 L171.632,82.044 L171.632,94.664 C171.632,97.113 169.639,99.104 167.192,99.104 L167.192,99.104 Z" id="Fill-294" fill="#8B8E8D"></path>
                <path d="M171.424,55.989 L151.643,55.989 C151.437,55.989 151.271,55.824 151.271,55.618 C151.271,55.413 151.437,55.247 151.643,55.247 L171.424,55.247 C171.629,55.247 171.795,55.413 171.795,55.618 C171.795,55.824 171.629,55.989 171.424,55.989" id="Fill-295" fill="#8B8E8D"></path>
                <path d="M171.424,60.093 L151.643,60.093 C151.437,60.093 151.271,59.927 151.271,59.721 C151.271,59.515 151.437,59.35 151.643,59.35 L171.424,59.35 C171.629,59.35 171.795,59.515 171.795,59.721 C171.795,59.927 171.629,60.093 171.424,60.093" id="Fill-296" fill="#8B8E8D"></path>
                <path d="M171.424,64.197 L151.643,64.197 C151.437,64.197 151.271,64.031 151.271,63.825 C151.271,63.62 151.437,63.454 151.643,63.454 L171.424,63.454 C171.629,63.454 171.795,63.62 171.795,63.825 C171.795,64.031 171.629,64.197 171.424,64.197" id="Fill-297" fill="#8B8E8D"></path>
                <path d="M143.885,30.06 L151.06,30.06 L151.06,4.076 C151.06,3.057 150.231,2.228 149.212,2.228 L145.732,2.228 C144.714,2.228 143.885,3.057 143.885,4.076 L143.885,30.06 Z M153.288,32.287 L141.657,32.287 L141.657,4.076 C141.657,1.829 143.485,0 145.732,0 L149.212,0 C151.46,0 153.288,1.829 153.288,4.076 L153.288,32.287 L153.288,32.287 Z" id="Fill-298" fill="#8B8E8D"></path>
                <path d="M172.538,30.06 L179.712,30.06 L179.712,4.076 C179.712,3.057 178.884,2.228 177.865,2.228 L174.384,2.228 C173.366,2.228 172.538,3.057 172.538,4.076 L172.538,30.06 Z M181.941,32.287 L170.31,32.287 L170.31,4.076 C170.31,1.829 172.137,0 174.384,0 L177.865,0 C180.112,0 181.941,1.829 181.941,4.076 L181.941,32.287 L181.941,32.287 Z" id="Fill-299" fill="#8B8E8D"></path>
                <path d="M137.43,32.287 C136.705,32.287 136.037,32.582 135.549,33.116 C135.06,33.65 134.826,34.343 134.89,35.063 L139.153,74 C139.575,78.745 142.165,82.044 145.45,82.044 L177.613,82.044 C180.899,82.044 183.487,78.745 183.908,74.021 L188.175,35.042 C188.238,34.343 188.003,33.65 187.514,33.116 C187.026,32.582 186.358,32.287 185.634,32.287 L137.43,32.287 Z M177.613,84.271 L145.45,84.271 C140.965,84.271 137.463,80.138 136.936,74.22 L132.673,35.284 C132.552,33.93 133.002,32.599 133.905,31.612 C134.808,30.626 136.092,30.06 137.43,30.06 L185.634,30.06 C186.971,30.06 188.256,30.626 189.158,31.612 C190.061,32.599 190.511,33.93 190.392,35.261 L186.125,74.241 C185.6,80.138 182.098,84.271 177.613,84.271 L177.613,84.271 Z" id="Fill-300" fill="#8B8E8D"></path>
                <polygon id="Fill-301" fill="#8B8E8D" points="142.771 31.175 152.174 31.175 152.174 17.518 142.771 17.518"></polygon>
                <polygon id="Fill-302" fill="#8B8E8D" points="171.424 31.175 180.826 31.175 180.826 17.518 171.424 17.518"></polygon>
                <path d="M184.228,46.201 C184.216,46.201 184.203,46.201 184.191,46.2 C183.988,46.18 183.838,45.997 183.858,45.794 L184.601,38.26 C184.599,36.917 183.477,35.795 182.097,35.795 L173.849,35.795 C173.644,35.795 173.478,35.628 173.478,35.423 C173.478,35.218 173.644,35.051 173.849,35.051 L182.097,35.051 C183.886,35.051 185.342,36.507 185.342,38.296 L184.597,45.866 C184.578,46.058 184.417,46.201 184.228,46.201" id="Fill-303" fill="#8B8E8D"></path>
                <path d="M22.869,166.277 L21.14,166.277 C18.823,166.277 17.584,164.94 17.584,162.494 L17.584,151.859 L15.529,151.859 L15.529,150.097 L17.584,150.097 L17.584,145.955 L19.672,145.955 L19.672,150.097 L22.412,150.097 L22.412,151.859 L19.672,151.859 L19.672,162.101 C19.672,163.537 20.096,164.418 21.662,164.418 L22.869,164.418 L22.869,166.277" id="Fill-304" fill="#676867"></path>
                <path d="M30.503,169.801 C29.785,171.79 28.447,172.801 26.49,172.801 L25.414,172.801 L25.414,170.974 L26.458,170.974 C27.567,170.974 28.35,170.29 28.774,168.92 L29.655,166.213 L23.685,150.131 L25.968,150.131 L28.61,157.6 L30.633,163.57 L30.731,163.57 L32.819,157.437 L35.33,150.131 L37.483,150.131 L30.503,169.801" id="Fill-305" fill="#676867"></path>
                <path d="M45.738,164.451 C48.608,164.451 50.044,162.363 50.044,158.221 C50.044,156.523 49.913,155.48 49.391,154.077 C48.902,152.675 47.728,151.891 45.901,151.891 C44.172,151.891 42.932,152.772 42.313,154.111 C41.758,155.448 41.529,156.72 41.529,158.188 C41.529,162.363 42.932,164.451 45.738,164.451 Z M39.475,150.097 L41.529,150.097 L41.529,152.348 L41.595,152.381 C42.737,150.75 44.302,149.934 46.358,149.934 C50.239,149.934 52.196,152.675 52.196,158.122 C52.196,160.341 51.837,162.134 50.924,163.831 C50.044,165.495 48.315,166.472 45.933,166.472 C44.042,166.472 42.606,165.722 41.595,164.222 L41.529,164.222 L41.529,172.736 L39.475,172.736 L39.475,150.097 L39.475,150.097 Z" id="Fill-306" fill="#676867"></path>
                <path d="M66.224,157.047 C66.192,153.621 64.561,151.827 61.788,151.827 C59.08,151.827 57.385,153.752 57.221,157.047 L66.224,157.047 Z M68.28,158.742 L57.221,158.742 C57.124,162.168 58.82,164.646 62.212,164.646 C63.582,164.646 64.855,164.189 65.996,163.243 L67.268,164.646 C65.898,165.853 64.235,166.472 62.277,166.472 C60.451,166.472 58.95,166.049 57.482,164.907 C56.048,163.765 55.166,161.483 55.166,158.253 C55.166,155.219 56.048,152.87 57.385,151.664 C58.722,150.456 60.19,149.934 61.854,149.934 C63.777,149.934 65.344,150.587 66.518,151.924 C67.692,153.263 68.28,154.991 68.28,157.144 L68.28,158.742 L68.28,158.742 Z" id="Fill-307" fill="#676867"></path>
                <path d="M95.519,160.764 C94.377,164.321 91.278,166.472 87.071,166.472 C81.329,166.472 78.296,162.982 78.296,157.6 L78.296,152.251 C78.296,149.739 79.046,147.651 80.579,145.955 C82.112,144.259 84.265,143.411 87.071,143.411 C91.278,143.411 94.377,145.661 95.519,149.184 L90.756,150.881 C90.364,149.218 89.028,148.108 87.038,148.108 C84.689,148.108 83.352,149.739 83.352,151.795 L83.352,157.959 C83.352,160.08 84.656,161.776 87.038,161.776 C88.995,161.776 90.398,160.634 90.756,158.938 L95.519,160.764" id="Fill-308" fill="#676867"></path>
            </g>
        </g>
    </g>
</svg>