<?xml version="1.0" encoding="UTF-8"?>
<svg width="207px" height="178px" viewBox="0 0 207 178" version="1.1" xmlns="http://www.w3.org/2000/svg" xmlns:xlink="http://www.w3.org/1999/xlink">
    <title>plug-type-D</title>
    <g id="Page-1" stroke="none" stroke-width="1" fill="none" fill-rule="evenodd">
        <g id="plug-type-D" transform="translate(0.000000, 0.000000)">
            <path d="M21.316,14.677 C11.53,14.677 3.568,22.639 3.568,32.426 L3.568,108.175 C3.568,117.962 11.53,125.923 21.316,125.923 L97.065,125.923 C108.189,125.06 115.5,117.772 114.813,108.202 L114.813,32.426 C114.813,22.639 106.852,14.677 97.065,14.677 L21.316,14.677 Z M21.316,126.667 C11.12,126.667 2.826,118.371 2.826,108.175 L2.826,32.426 C2.826,22.23 11.12,13.935 21.316,13.935 L97.065,13.935 C107.261,13.935 115.556,22.23 115.556,32.426 L115.556,108.175 C116.271,118.152 108.68,125.766 97.094,126.665 L21.316,126.667 L21.316,126.667 Z" id="Fill-37" fill="#8B8E8D"></path>
            <path d="M7.429,99.957 C7.224,99.957 7.058,99.79 7.058,99.586 L7.058,48.343 C7.058,48.138 7.224,47.972 7.429,47.972 C7.634,47.972 7.8,48.138 7.8,48.343 L7.8,99.586 C7.8,99.79 7.634,99.957 7.429,99.957" id="Fill-38" fill="#8B8E8D"></path>
            <path d="M12.697,21.905 C12.588,21.905 12.479,21.857 12.406,21.763 C12.279,21.603 12.306,21.37 12.466,21.243 C15.016,19.217 18.083,18.145 21.338,18.145 L42.133,18.145 C42.338,18.145 42.504,18.31 42.504,18.516 C42.504,18.721 42.338,18.888 42.133,18.888 L21.338,18.888 C18.253,18.888 15.345,19.903 12.928,21.824 C12.86,21.879 12.779,21.905 12.697,21.905" id="Fill-39" fill="#8B8E8D"></path>
            <path d="M91.298,122.529 L21.338,122.529 C18.083,122.529 15.016,121.46 12.466,119.433 C12.306,119.305 12.279,119.072 12.406,118.91 C12.534,118.749 12.768,118.724 12.928,118.85 C15.345,120.772 18.253,121.788 21.338,121.788 L91.298,121.788 C91.504,121.788 91.67,121.954 91.67,122.159 C91.67,122.364 91.504,122.529 91.298,122.529" id="Fill-40" fill="#8B8E8D"></path>
            <path d="M110.997,44.877 C110.792,44.877 110.625,44.711 110.625,44.505 L110.625,32.426 C110.625,24.961 104.553,18.888 97.088,18.888 L83.225,18.888 C83.019,18.888 82.853,18.721 82.853,18.516 C82.853,18.31 83.019,18.145 83.225,18.145 L97.088,18.145 C104.962,18.145 111.368,24.551 111.368,32.426 L111.368,44.505 C111.368,44.711 111.202,44.877 110.997,44.877" id="Fill-41" fill="#8B8E8D"></path>
            <path d="M59.213,34.616 C39.537,34.616 23.528,50.624 23.528,70.301 C23.528,89.977 39.537,105.984 59.213,105.984 C78.889,105.984 94.897,89.977 94.897,70.301 C94.897,50.624 78.889,34.616 59.213,34.616 Z M59.213,108.213 C38.309,108.213 21.301,91.205 21.301,70.301 C21.301,49.395 38.309,32.388 59.213,32.388 C80.118,32.388 97.125,49.395 97.125,70.301 C97.125,91.205 80.118,108.213 59.213,108.213 L59.213,108.213 Z" id="Fill-42" fill="#8B8E8D"></path>
            <path d="M91.103,63.952 C90.932,63.952 90.778,63.832 90.741,63.658 C88.142,51.307 78.498,41.567 66.174,38.842 C65.974,38.798 65.847,38.599 65.891,38.398 C65.935,38.199 66.129,38.074 66.335,38.116 C78.943,40.905 88.809,50.87 91.468,63.504 C91.51,63.705 91.381,63.903 91.18,63.944 C91.155,63.949 91.129,63.952 91.103,63.952" id="Fill-43" fill="#8B8E8D"></path>
            <path d="M88.29,67.769 C88.102,67.769 87.94,67.625 87.921,67.432 C87.24,60.288 85.404,57.062 80.235,50.998 C80.102,50.842 80.122,50.606 80.277,50.474 C80.433,50.341 80.666,50.359 80.801,50.515 C86.083,56.715 87.96,60.018 88.661,67.363 C88.68,67.566 88.53,67.748 88.327,67.767 C88.314,67.768 88.303,67.769 88.29,67.769" id="Fill-44" fill="#8B8E8D"></path>
            <path d="M64.981,55.223 C64.981,58.41 62.399,60.991 59.213,60.991 C56.027,60.991 53.444,58.41 53.444,55.223 C53.444,52.037 56.027,49.455 59.213,49.455 C62.399,49.455 64.981,52.037 64.981,55.223" id="Fill-45" fill="#797C7A"></path>
            <path d="M47.042,79.471 C47.042,82.083 44.925,84.2 42.314,84.2 C39.703,84.2 37.586,82.083 37.586,79.471 C37.586,76.86 39.703,74.743 42.314,74.743 C44.925,74.743 47.042,76.86 47.042,79.471" id="Fill-46" fill="#797C7A"></path>
            <path d="M80.84,79.471 C80.84,82.083 78.723,84.2 76.112,84.2 C73.5,84.2 71.384,82.083 71.384,79.471 C71.384,76.86 73.5,74.743 76.112,74.743 C78.723,74.743 80.84,76.86 80.84,79.471" id="Fill-47" fill="#797C7A"></path>
            <path d="M156.886,83.218 C156.884,83.218 156.883,83.218 156.881,83.218 C156.837,83.217 152.465,83.1 152.465,78.476 C152.465,78.271 152.631,78.105 152.836,78.105 C153.042,78.105 153.208,78.271 153.208,78.476 C153.208,82.377 156.741,82.472 156.891,82.475 C157.097,82.478 157.261,82.646 157.258041,82.851 C157.254,83.055 157.088,83.218 156.886,83.218" id="Fill-48" fill="#8B8E8D"></path>
            <polyline id="Fill-49" fill="#8B8E8D" points="174.268 136.86 172.039 136.86 172.039 103.982 164.694 103.982 164.694 136.86 162.466 136.86 162.466 101.755 174.268 101.755 174.268 136.86"></polyline>
            <path d="M160.617,89.15 L160.617,99.543 C160.617,100.762 161.609,101.755 162.829,101.755 L173.904,101.755 C175.124,101.755 176.117,100.762 176.117,99.543 L176.117,89.15 L160.617,89.15 Z M173.904,103.982 L162.829,103.982 C160.38,103.982 158.389,101.99 158.389,99.543 L158.389,86.923 L178.344,86.923 L178.344,99.543 C178.344,101.99 176.352,103.982 173.904,103.982 L173.904,103.982 Z" id="Fill-50" fill="#8B8E8D"></path>
            <path d="M178.256,64.242 L158.476,64.242 C158.271,64.242 158.104,64.075 158.104,63.871 C158.104,63.666 158.271,63.5 158.476,63.5 L178.256,63.5 C178.462,63.5 178.628,63.666 178.628,63.871 C178.628,64.075 178.462,64.242 178.256,64.242" id="Fill-51" fill="#8B8E8D"></path>
            <path d="M178.256,68.345 L158.476,68.345 C158.271,68.345 158.104,68.179 158.104,67.974 C158.104,67.77 158.271,67.603 158.476,67.603 L178.256,67.603 C178.462,67.603 178.628,67.77 178.628,67.974 C178.628,68.179 178.462,68.345 178.256,68.345" id="Fill-52" fill="#8B8E8D"></path>
            <path d="M178.256,72.449 L158.476,72.449 C158.271,72.449 158.104,72.284 158.104,72.079 C158.104,71.874 158.271,71.707 158.476,71.707 L178.256,71.707 C178.462,71.707 178.628,71.874 178.628,72.079 C178.628,72.284 178.462,72.449 178.256,72.449" id="Fill-53" fill="#8B8E8D"></path>
            <path d="M196.703,45.351 C196.502,45.351 196.338,45.193 196.332,44.991 L196.183,40.167 C196.211,39.905 196.149,39.709 196.014,39.554 C195.877,39.402 195.69,39.317 195.485,39.317 L190.762,39.317 C190.557,39.317 190.391,39.151 190.391,38.946 C190.391,38.741 190.557,38.574 190.762,38.574 L195.485,38.574 C195.9,38.574 196.296,38.753 196.57,39.062 C196.845,39.375 196.973,39.788 196.923,40.2 L197.074,44.968 C197.08,45.174 196.919,45.344 196.715,45.351 C196.71,45.351 196.707,45.351 196.703,45.351" id="Fill-54" fill="#8B8E8D"></path>
            <path d="M150.791,33.772 L154.882,33.772 L154.882,6.485 C154.882,6.184 154.637,5.94 154.337,5.94 L151.335,5.94 C151.035,5.94 150.791,6.184 150.791,6.485 L150.791,33.772 Z M157.11,36 L148.563,36 L148.563,6.485 C148.563,4.957 149.807,3.713 151.335,3.713 L154.337,3.713 C155.866,3.713 157.11,4.957 157.11,6.485 L157.11,36 L157.11,36 Z" id="Fill-55" fill="#8B8E8D"></path>
            <path d="M181.855,33.772 L185.942,33.772 L185.942,6.485 C185.942,6.184 185.699,5.94 185.398,5.94 L182.399,5.94 C182.099,5.94 181.855,6.184 181.855,6.485 L181.855,33.772 Z M188.17,36 L179.626,36 L179.626,6.485 C179.626,4.957 180.871,3.713 182.399,3.713 L185.398,3.713 C186.926,3.713 188.17,4.957 188.17,6.485 L188.17,36 L188.17,36 Z" id="Fill-56" fill="#8B8E8D"></path>
            <path d="M151.807,32.657 C151.602,32.657 151.436,32.49 151.436,32.285 L151.436,7.314 C151.436,7.109 151.602,6.943 151.807,6.943 C152.012,6.943 152.178,7.109 152.178,7.314 L152.178,32.285 C152.178,32.49 152.012,32.657 151.807,32.657" id="Fill-57" fill="#8B8E8D"></path>
            <path d="M182.792,32.657 C182.587,32.657 182.421,32.49 182.421,32.285 L182.421,7.314 C182.421,7.109 182.587,6.943 182.792,6.943 C182.997,6.943 183.164,7.109 183.164,7.314 L183.164,32.285 C183.164,32.49 182.997,32.657 182.792,32.657" id="Fill-58" fill="#8B8E8D"></path>
            <path d="M164.781,33.772 L171.955,33.772 L171.955,4.074 C171.955,3.055 171.127,2.228 170.109,2.228 L166.627,2.228 C165.609,2.228 164.781,3.055 164.781,4.074 L164.781,33.772 Z M174.183,36 L162.553,36 L162.553,4.074 C162.553,1.827 164.381,0 166.627,0 L170.109,0 C172.355,0 174.183,1.827 174.183,4.074 L174.183,36 L174.183,36 Z" id="Fill-59" fill="#8B8E8D"></path>
            <path d="M137.659,49.914 L199.073,49.914 L199.073,36.813 C199.073,36.437 198.768,36.132 198.393,36.132 L138.34,36.132 C137.964,36.132 137.659,36.437 137.659,36.813 L137.659,49.914 Z M201.301,52.143 L135.432,52.143 L135.432,36.813 C135.432,35.209 136.736,33.904 138.34,33.904 L198.393,33.904 C199.996,33.904 201.301,35.209 201.301,36.813 L201.301,52.143 L201.301,52.143 Z" id="Fill-60" fill="#8B8E8D"></path>
            <path d="M133.732,52.143 C133.123,52.143 132.604,52.471 132.342,53.022 C132.081,53.572 132.155,54.183 132.542,54.656 L140.931,64.91 C143.169,67.645 144.521,70.952 144.842,74.472 C145.488,81.569 151.349,86.923 158.476,86.923 L178.257,86.923 C185.384,86.923 191.245,81.569 191.89,74.472 C192.211,70.952 193.563,67.645 195.801,64.91 L204.19,54.656 C204.578,54.183 204.651,53.572 204.391,53.022 C204.13,52.471 203.61,52.143 203,52.143 L133.732,52.143 Z M178.257,89.15 L158.476,89.15 C150.188,89.15 143.374,82.926 142.623,74.674 C142.344,71.597 141.163,68.71 139.207,66.32 L130.817,56.066 C129.886,54.928 129.699,53.397 130.329,52.068 C130.958,50.74 132.263,49.914 133.732,49.914 L203,49.914 C204.47,49.914 205.774,50.74 206.404,52.068 C207.034,53.397 206.846,54.928 205.916,56.066 L197.525,66.32 C195.57,68.71 194.389,71.597 194.11,74.674 C193.359,82.926 186.544,89.15 178.257,89.15 L178.257,89.15 Z" id="Fill-61" fill="#8B8E8D"></path>
            <path d="M25.938,170.562 L24.209,170.562 C21.893,170.562 20.653,169.225 20.653,166.779 L20.653,156.144 L18.598,156.144 L18.598,154.383 L20.653,154.383 L20.653,150.24 L22.741,150.24 L22.741,154.383 L25.481,154.383 L25.481,156.144 L22.741,156.144 L22.741,166.386 C22.741,167.822 23.165,168.703 24.731,168.703 L25.938,168.703 L25.938,170.562" id="Fill-62" fill="#676867"></path>
            <path d="M33.572,174.085 C32.854,176.074 31.516,177.086 29.56,177.086 L28.483,177.086 L28.483,175.26 L29.527,175.26 C30.636,175.26 31.418,174.573 31.843,173.204 L32.724,170.497 L26.754,154.416 L29.038,154.416 L31.68,161.885 L33.702,167.854 L33.8,167.854 L35.888,161.721 L38.399,154.416 L40.552,154.416 L33.572,174.085" id="Fill-63" fill="#676867"></path>
            <path d="M48.806,168.736 C51.677,168.736 53.113,166.648 53.113,162.505 C53.113,160.809 52.982,159.764 52.46,158.363 C51.971,156.959 50.797,156.176 48.97,156.176 C47.24,156.176 46.001,157.057 45.382,158.394 C44.827,159.732 44.599,161.005 44.599,162.473 C44.599,166.648 46.001,168.736 48.806,168.736 Z M42.543,154.383 L44.599,154.383 L44.599,156.634 L44.664,156.666 C45.806,155.035 47.371,154.22 49.427,154.22 C53.308,154.22 55.265,156.959 55.265,162.407 C55.265,164.625 54.906,166.42 53.993,168.116 C53.113,169.779 51.384,170.758 49.002,170.758 C47.111,170.758 45.675,170.008 44.664,168.507 L44.599,168.507 L44.599,177.02 L42.543,177.02 L42.543,154.383 L42.543,154.383 Z" id="Fill-64" fill="#676867"></path>
            <path d="M69.293,161.331 C69.261,157.906 67.629,156.111 64.857,156.111 C62.149,156.111 60.454,158.037 60.29,161.331 L69.293,161.331 Z M71.348,163.026 L60.29,163.026 C60.192,166.452 61.889,168.931 65.281,168.931 C66.651,168.931 67.923,168.474 69.065,167.528 L70.337,168.931 C68.967,170.138 67.303,170.758 65.346,170.758 C63.52,170.758 62.02,170.334 60.551,169.193 C59.116,168.051 58.235,165.766 58.235,162.538 C58.235,159.505 59.116,157.155 60.454,155.948 C61.791,154.742 63.259,154.22 64.922,154.22 C66.847,154.22 68.413,154.873 69.587,156.21 C70.761,157.547 71.348,159.276 71.348,161.427 L71.348,163.026 L71.348,163.026 Z" id="Fill-65" fill="#676867"></path>
            <path d="M87.204,152.392 L87.204,166.06 L90.498,166.06 C93.662,166.06 94.836,164.364 94.836,161.2 L94.836,157.057 C94.836,153.894 93.532,152.392 90.4,152.392 L87.204,152.392 Z M82.18,147.859 L91.216,147.859 C95.033,147.859 97.609,149.261 98.946,152.066 C99.534,153.274 99.827,155.525 99.827,158.82 C99.827,162.375 99.566,164.789 99.012,166.06 C97.706,169.062 94.934,170.562 90.661,170.562 L82.18,170.562 L82.18,147.859 L82.18,147.859 Z" id="Fill-66" fill="#676867"></path>
            <path d="M97.088,129.513 L21.338,129.513 C9.572,129.513 0,119.941 0,108.175 L0,32.426 C0,20.66 9.572,11.088 21.338,11.088 L97.088,11.088 C108.854,11.088 118.426,20.66 118.426,32.426 L118.426,108.175 C118.426,119.941 108.854,129.513 97.088,129.513 L97.088,129.513 Z" id="Path"></path>
            <path d="M21.338,13.315 C10.801,13.315 2.228,21.887 2.228,32.426 L2.228,108.175 C2.228,118.712 10.801,127.287 21.338,127.287 L97.088,127.287 C107.625,127.287 116.198,118.712 116.198,108.175 L116.198,32.426 C116.198,21.887 107.625,13.315 97.088,13.315 L21.338,13.315 Z" id="Path"></path>
        </g>
    </g>
</svg>