<?xml version="1.0" encoding="UTF-8"?>
<svg width="204px" height="174px" viewBox="0 0 204 174" version="1.1" xmlns="http://www.w3.org/2000/svg" xmlns:xlink="http://www.w3.org/1999/xlink">
    <title>plug-type-E</title>
    <g id="Page-1" stroke="none" stroke-width="1" fill="none" fill-rule="evenodd">
        <g id="plug-type-E" transform="translate(0.000000, -0.000000)">
            <path d="M21.338,9.947 C10.8,9.947 2.227,18.52 2.227,29.058 L2.227,104.807 C2.227,115.344 10.8,123.917 21.338,123.917 L97.088,123.917 C107.625,123.917 116.198,115.344 116.198,104.807 L116.198,29.058 C116.198,18.52 107.625,9.947 97.088,9.947 L21.338,9.947 Z M97.088,126.145 L21.338,126.145 C9.572,126.145 5.68434189e-14,116.573 5.68434189e-14,104.807 L5.68434189e-14,29.058 C5.68434189e-14,17.291 9.572,7.719 21.338,7.719 L97.088,7.719 C108.853,7.719 118.426,17.291 118.426,29.058 L118.426,104.807 C118.426,116.573 108.853,126.145 97.088,126.145 L97.088,126.145 Z" id="Fill-182" fill="#8B8E8D"></path>
            <path d="M21.316,11.309 C11.53,11.309 3.568,19.271 3.568,29.058 L3.568,104.807 C3.568,114.593 11.53,122.555 21.316,122.555 L97.065,122.555 C108.189,121.692 115.499,114.404 114.813,104.833 L114.812,29.058 C114.812,19.271 106.851,11.309 97.065,11.309 L21.316,11.309 Z M21.316,123.299 C11.119,123.299 2.825,115.003 2.825,104.807 L2.825,29.058 C2.825,18.861 11.119,10.567 21.316,10.567 L97.065,10.567 C107.261,10.567 115.555,18.861 115.555,29.058 L115.555,104.807 C116.271,114.784 108.68,122.398 97.094,123.297 L21.316,123.299 L21.316,123.299 Z" id="Fill-183" fill="#8B8E8D"></path>
            <path d="M7.429,96.59 C7.224,96.59 7.058,96.424 7.058,96.218 L7.058,44.975 C7.058,44.77 7.224,44.604 7.429,44.604 C7.634,44.604 7.8,44.77 7.8,44.975 L7.8,96.218 C7.8,96.424 7.634,96.59 7.429,96.59" id="Fill-184" fill="#8B8E8D"></path>
            <path d="M12.697,18.537 C12.588,18.537 12.479,18.489 12.406,18.397 C12.279,18.236 12.305,18.002 12.466,17.875 C15.016,15.848 18.083,14.777 21.338,14.777 L42.133,14.777 C42.338,14.777 42.504,14.944 42.504,15.149 C42.504,15.353 42.338,15.52 42.133,15.52 L21.338,15.52 C18.253,15.52 15.345,16.535 12.928,18.456 C12.859,18.511 12.778,18.537 12.697,18.537" id="Fill-185" fill="#8B8E8D"></path>
            <path d="M91.298,119.161 L21.338,119.161 C18.083,119.161 15.016,118.091 12.466,116.064 C12.305,115.936 12.279,115.702 12.406,115.542 C12.534,115.381 12.768,115.356 12.928,115.482 C15.345,117.404 18.253,118.419 21.338,118.419 L91.298,118.419 C91.504,118.419 91.67,118.585 91.67,118.79 C91.67,118.995 91.504,119.161 91.298,119.161" id="Fill-186" fill="#8B8E8D"></path>
            <path d="M110.996,41.51 C110.791,41.51 110.625,41.343 110.625,41.138 L110.625,29.058 C110.625,21.593 104.552,15.52 97.088,15.52 L83.224,15.52 C83.019,15.52 82.853,15.353 82.853,15.149 C82.853,14.944 83.019,14.777 83.224,14.777 L97.088,14.777 C104.962,14.777 111.368,21.183 111.368,29.058 L111.368,41.138 C111.368,41.343 111.202,41.51 110.996,41.51" id="Fill-187" fill="#8B8E8D"></path>
            <path d="M59.213,31.248 C39.536,31.248 23.528,47.256 23.528,66.932 C23.528,86.609 39.536,102.616 59.213,102.616 C78.889,102.616 94.897,86.609 94.897,66.932 C94.897,47.256 78.889,31.248 59.213,31.248 Z M59.213,104.845 C38.308,104.845 21.301,87.837 21.301,66.932 C21.301,46.028 38.308,29.02 59.213,29.02 C80.118,29.02 97.125,46.028 97.125,66.932 C97.125,87.837 80.118,104.845 59.213,104.845 L59.213,104.845 Z" id="Fill-188" fill="#8B8E8D"></path>
            <path d="M60.656,99.01 C49.934,99.01 39.688,93.756 33.484,84.736 C33.368,84.567 33.411,84.335 33.579,84.219 C33.748,84.104 33.98,84.146 34.096,84.316 C41.249,94.713 53.895,99.993 66.321,97.763 C66.519,97.728 66.715,97.861 66.752,98.063 C66.788,98.264 66.654,98.457 66.452,98.494 C64.519,98.84 62.579,99.01 60.656,99.01" id="Fill-189" fill="#8B8E8D"></path>
            <path d="M48.497,92.658 C48.44,92.658 48.382,92.646 48.329,92.618 C41.067,88.931 38.064,86.604 34.589,80.095 C34.493,79.915 34.56,79.69 34.742,79.593 C34.923,79.496 35.146,79.564 35.245,79.746 C38.625,86.078 41.561,88.348 48.664,91.956 C48.848,92.049 48.921,92.273 48.828,92.456 C48.763,92.585 48.632,92.658 48.497,92.658" id="Fill-190" fill="#8B8E8D"></path>
            <path d="M47.042,68.677 C47.042,71.287 44.925,73.405 42.314,73.405 C39.703,73.405 37.586,71.287 37.586,68.677 C37.586,66.065 39.703,63.948 42.314,63.948 C44.925,63.948 47.042,66.065 47.042,68.677" id="Fill-191" fill="#797C7A"></path>
            <path d="M59.213,41.697 C56.81,41.697 54.856,43.651 54.856,46.053 C54.856,48.456 56.81,50.411 59.213,50.411 C61.615,50.411 63.569,48.456 63.569,46.053 C63.569,43.651 61.615,41.697 59.213,41.697 Z M59.213,51.153 C56.401,51.153 54.113,48.865 54.113,46.053 C54.113,43.241 56.401,40.954 59.213,40.954 C62.025,40.954 64.312,43.241 64.312,46.053 C64.312,48.865 62.025,51.153 59.213,51.153 L59.213,51.153 Z" id="Fill-192" fill="#8B8E8D"></path>
            <path d="M80.84,68.677 C80.84,71.287 78.723,73.405 76.112,73.405 C73.5,73.405 71.383,71.287 71.383,68.677 C71.383,66.065 73.5,63.948 76.112,63.948 C78.723,63.948 80.84,66.065 80.84,68.677" id="Fill-193" fill="#797C7A"></path>
            <path d="M161.552,78.62 C161.551,78.62 161.549,78.62 161.547,78.62 C161.503,78.619 157.13,78.503 157.13,73.879 C157.13,73.673 157.297,73.507 157.502,73.507 C157.707,73.507 157.873,73.673 157.873,73.879 C157.873,77.762 161.408,77.875 161.558,77.878 C161.763,77.881 161.927,78.05 161.923,78.255 C161.92,78.457 161.754,78.62 161.552,78.62" id="Fill-194" fill="#8B8E8D"></path>
            <path d="M178.284,61.472 L158.502,61.472 C158.297,61.472 158.13,61.306 158.13,61.101 C158.13,60.896 158.297,60.73 158.502,60.73 L178.284,60.73 C178.489,60.73 178.655,60.896 178.655,61.101 C178.655,61.306 178.489,61.472 178.284,61.472" id="Fill-195" fill="#8B8E8D"></path>
            <path d="M178.284,65.576 L158.502,65.576 C158.297,65.576 158.13,65.41 158.13,65.205 C158.13,65 158.297,64.833 158.502,64.833 L178.284,64.833 C178.489,64.833 178.655,65 178.655,65.205 C178.655,65.41 178.489,65.576 178.284,65.576" id="Fill-196" fill="#8B8E8D"></path>
            <path d="M178.284,69.68 L158.502,69.68 C158.297,69.68 158.13,69.514 158.13,69.309 C158.13,69.104 158.297,68.937 158.502,68.937 L178.284,68.937 C178.489,68.937 178.655,69.104 178.655,69.309 C178.655,69.514 178.489,69.68 178.284,69.68" id="Fill-197" fill="#8B8E8D"></path>
            <polyline id="Fill-198" fill="#8B8E8D" points="174.292 133.148 172.064 133.148 172.064 100.27 164.719 100.27 164.719 133.148 162.491 133.148 162.491 98.042 174.292 98.042 174.292 133.148"></polyline>
            <path d="M160.642,85.437 L160.642,95.829 C160.642,97.049 161.634,98.042 162.854,98.042 L173.929,98.042 C175.148,98.042 176.141,97.049 176.141,95.829 L176.141,85.437 L160.642,85.437 Z M173.929,100.27 L162.854,100.27 C160.405,100.27 158.413,98.278 158.413,95.829 L158.413,83.21 L178.369,83.21 L178.369,95.829 C178.369,98.278 176.377,100.27 173.929,100.27 L173.929,100.27 Z" id="Fill-199" fill="#8B8E8D"></path>
            <path d="M150.815,30.06 L154.906,30.06 L154.906,2.772 C154.906,2.472 154.662,2.229 154.362,2.229 L151.36,2.229 C151.059,2.229 150.815,2.472 150.815,2.772 L150.815,30.06 Z M157.134,32.288 L148.587,32.288 L148.587,2.772 C148.587,1.244 149.831,0 151.36,0 L154.362,0 C155.891,0 157.134,1.244 157.134,2.772 L157.134,32.288 L157.134,32.288 Z" id="Fill-200" fill="#8B8E8D"></path>
            <path d="M181.879,30.06 L185.966,30.06 L185.966,2.772 C185.966,2.472 185.723,2.229 185.423,2.229 L182.424,2.229 C182.123,2.229 181.879,2.472 181.879,2.772 L181.879,30.06 Z M188.194,32.288 L179.651,32.288 L179.651,2.772 C179.651,1.244 180.895,0 182.424,0 L185.423,0 C186.951,0 188.194,1.244 188.194,2.772 L188.194,32.288 L188.194,32.288 Z" id="Fill-201" fill="#8B8E8D"></path>
            <path d="M151.831,28.944 C151.626,28.944 151.46,28.778 151.46,28.573 L151.46,3.601 C151.46,3.396 151.626,3.23 151.831,3.23 C152.036,3.23 152.202,3.396 152.202,3.601 L152.202,28.573 C152.202,28.778 152.036,28.944 151.831,28.944" id="Fill-202" fill="#8B8E8D"></path>
            <path d="M182.817,28.944 C182.611,28.944 182.445,28.778 182.445,28.573 L182.445,3.601 C182.445,3.396 182.611,3.23 182.817,3.23 C183.022,3.23 183.188,3.396 183.188,3.601 L183.188,28.573 C183.188,28.778 183.022,28.944 182.817,28.944" id="Fill-203" fill="#8B8E8D"></path>
            <path d="M145.903,48.429 L149.697,58.405 C150.126,59.533 150.609,60.672 151.074,61.773 C151.257,62.205 151.44,62.638 151.621,63.07 C152.589,65.393 153.187,68.064 153.35,70.794 C153.765,77.756 157.523,83.21 161.905,83.21 L174.877,83.21 C179.26,83.21 183.017,77.756 183.433,70.794 C183.595,68.063 184.193,65.392 185.161,63.07 C185.342,62.636 185.526,62.202 185.71,61.769 C186.175,60.669 186.656,59.532 187.085,58.405 L190.878,48.429 L145.903,48.429 Z M174.877,85.437 L161.905,85.437 C156.253,85.437 151.619,79.199 151.126,70.926 C150.978,68.444 150.438,66.023 149.564,63.928 C149.385,63.499 149.204,63.07 149.022,62.641 C148.549,61.521 148.058,60.364 147.614,59.196 L142.672,46.201 L194.11,46.201 L189.168,59.196 C188.725,60.361 188.234,61.518 187.761,62.637 C187.579,63.067 187.396,63.497 187.218,63.928 C186.345,66.022 185.804,68.442 185.656,70.926 C185.163,79.199 180.529,85.437 174.877,85.437 L174.877,85.437 Z" id="Fill-204" fill="#8B8E8D"></path>
            <path d="M140.138,46.201 L196.579,46.201 L196.579,41.542 L140.138,41.542 L140.138,46.201 Z M137.911,48.43 L198.807,48.43 L198.807,39.315 L137.911,39.315 L137.911,48.43 Z" id="Fill-205" fill="#8B8E8D"></path>
            <path d="M135.93,39.315 L200.787,39.315 L200.787,32.288 L135.93,32.288 L135.93,39.315 Z M133.702,41.543 L203.016,41.543 L203.016,30.06 L133.702,30.06 L133.702,41.543 Z" id="Fill-206" fill="#8B8E8D"></path>
            <polygon id="Fill-207" fill="#8B8E8D" points="164.927 47.823 171.858 47.823 171.858 31.609 164.927 31.609"></polygon>
            <polygon id="Fill-208" fill="#8B8E8D" points="138.006 40.398 140.138 40.398 140.138 31.609 138.006 31.609"></polygon>
            <polygon id="Fill-209" fill="#8B8E8D" points="196.627 40.398 198.759 40.398 198.759 31.609 196.627 31.609"></polygon>
            <path d="M25.751,166.993 L24.023,166.993 C21.707,166.993 20.468,165.655 20.468,163.21 L20.468,152.574 L18.412,152.574 L18.412,150.813 L20.468,150.813 L20.468,146.671 L22.555,146.671 L22.555,150.813 L25.295,150.813 L25.295,152.574 L22.555,152.574 L22.555,162.817 C22.555,164.253 22.979,165.133 24.545,165.133 L25.751,165.133 L25.751,166.993" id="Fill-210" fill="#676867"></path>
            <path d="M33.386,170.516 C32.668,172.505 31.33,173.517 29.373,173.517 L28.297,173.517 L28.297,171.69 L29.341,171.69 C30.45,171.69 31.232,171.005 31.657,169.635 L32.537,166.928 L26.568,150.846 L28.851,150.846 L31.494,158.316 L33.516,164.285 L33.614,164.285 L35.702,158.153 L38.213,150.846 L40.366,150.846 L33.386,170.516" id="Fill-211" fill="#676867"></path>
            <path d="M48.621,165.166 C51.491,165.166 52.927,163.078 52.927,158.936 C52.927,157.239 52.796,156.196 52.274,154.793 C51.785,153.39 50.611,152.607 48.784,152.607 C47.055,152.607 45.815,153.488 45.196,154.826 C44.641,156.163 44.412,157.435 44.412,158.903 C44.412,163.078 45.815,165.166 48.621,165.166 Z M42.357,150.813 L44.412,150.813 L44.412,153.064 L44.478,153.097 C45.62,151.466 47.185,150.651 49.241,150.651 C53.122,150.651 55.079,153.39 55.079,158.838 C55.079,161.056 54.721,162.85 53.807,164.547 C52.927,166.21 51.198,167.188 48.816,167.188 C46.925,167.188 45.489,166.439 44.478,164.938 L44.412,164.938 L44.412,173.451 L42.357,173.451 L42.357,150.813 L42.357,150.813 Z" id="Fill-212" fill="#676867"></path>
            <path d="M69.107,157.761 C69.075,154.337 67.443,152.543 64.671,152.543 C61.963,152.543 60.267,154.467 60.104,157.761 L69.107,157.761 Z M71.162,159.458 L60.104,159.458 C60.006,162.883 61.703,165.362 65.095,165.362 C66.465,165.362 67.738,164.905 68.879,163.959 L70.151,165.362 C68.781,166.569 67.118,167.188 65.16,167.188 C63.333,167.188 61.833,166.764 60.365,165.623 C58.93,164.481 58.049,162.197 58.049,158.968 C58.049,155.935 58.93,153.586 60.267,152.379 C61.605,151.172 63.073,150.651 64.736,150.651 C66.661,150.651 68.226,151.303 69.401,152.64 C70.575,153.977 71.162,155.706 71.162,157.86 L71.162,159.458 L71.162,159.458 Z" id="Fill-213" fill="#676867"></path>
            <polyline id="Fill-214" fill="#676867" points="98.043 166.993 81.994 166.993 81.994 144.29 98.043 144.29 98.043 148.791 87.017 148.791 87.017 153.39 96.412 153.39 96.412 157.729 87.017 157.729 87.017 162.491 98.043 162.491 98.043 166.993"></polyline>
        </g>
    </g>
</svg>