<?xml version="1.0" encoding="UTF-8"?>
<svg width="208px" height="174px" viewBox="0 0 208 174" version="1.1" xmlns="http://www.w3.org/2000/svg" xmlns:xlink="http://www.w3.org/1999/xlink">
    <title>plug-type-F</title>
    <g id="Page-1" stroke="none" stroke-width="1" fill="none" fill-rule="evenodd">
        <g id="plug-type-F">
            <path d="M21.338,9.91 C10.8,9.91 2.227,18.483 2.227,29.021 L2.227,104.77 C2.227,115.308 10.8,123.88 21.338,123.88 L97.088,123.88 C107.625,123.88 116.198,115.308 116.198,104.77 L116.198,29.021 C116.198,18.483 107.625,9.91 97.088,9.91 L21.338,9.91 Z M97.088,126.108 L21.338,126.108 C9.572,126.108 0,116.536 0,104.77 L0,29.021 C0,17.254 9.572,7.682 21.338,7.682 L97.088,7.682 C108.853,7.682 118.426,17.254 118.426,29.021 L118.426,104.77 C118.426,116.536 108.853,126.108 97.088,126.108 L97.088,126.108 Z" id="Fill-309" fill="#8B8E8D"></path>
            <path d="M21.316,11.273 C11.53,11.273 3.568,19.235 3.568,29.021 L3.568,104.77 C3.568,114.557 11.53,122.519 21.316,122.519 L97.065,122.519 C108.189,121.655 115.499,114.367 114.813,104.797 L114.812,29.021 C114.812,19.235 106.851,11.273 97.065,11.273 L21.316,11.273 Z M21.316,123.261 C11.12,123.261 2.826,114.966 2.826,104.77 L2.826,29.021 C2.826,18.825 11.12,10.531 21.316,10.531 L97.065,10.531 C107.261,10.531 115.556,18.825 115.556,29.021 L115.556,104.77 C116.271,114.747 108.68,122.361 97.094,123.261 L21.316,123.261 L21.316,123.261 Z" id="Fill-310" fill="#8B8E8D"></path>
            <path d="M7.429,96.515 C7.224,96.515 7.058,96.349 7.058,96.144 L7.058,44.901 C7.058,44.696 7.224,44.53 7.429,44.53 C7.634,44.53 7.8,44.696 7.8,44.901 L7.8,96.144 C7.8,96.349 7.634,96.515 7.429,96.515" id="Fill-311" fill="#8B8E8D"></path>
            <path d="M12.697,18.463 C12.588,18.463 12.479,18.415 12.406,18.323 C12.279,18.162 12.305,17.928 12.466,17.801 C15.016,15.774 18.083,14.703 21.338,14.703 L42.133,14.703 C42.338,14.703 42.504,14.87 42.504,15.075 C42.504,15.279 42.338,15.446 42.133,15.446 L21.338,15.446 C18.253,15.446 15.345,16.461 12.928,18.382 C12.86,18.437 12.778,18.463 12.697,18.463" id="Fill-312" fill="#8B8E8D"></path>
            <path d="M91.298,119.087 L21.338,119.087 C18.083,119.087 15.016,118.017 12.466,115.99 C12.305,115.862 12.279,115.628 12.406,115.468 C12.534,115.308 12.768,115.282 12.928,115.408 C15.345,117.33 18.253,118.345 21.338,118.345 L91.298,118.345 C91.504,118.345 91.67,118.511 91.67,118.716 C91.67,118.921 91.504,119.087 91.298,119.087" id="Fill-313" fill="#8B8E8D"></path>
            <path d="M110.996,41.436 C110.791,41.436 110.625,41.27 110.625,41.064 L110.625,28.984 C110.625,21.52 104.552,15.446 97.088,15.446 L83.224,15.446 C83.019,15.446 82.853,15.279 82.853,15.075 C82.853,14.87 83.019,14.703 83.224,14.703 L97.088,14.703 C104.962,14.703 111.368,21.109 111.368,28.984 L111.368,41.064 C111.368,41.27 111.202,41.436 110.996,41.436" id="Fill-314" fill="#8B8E8D"></path>
            <path d="M59.213,31.211 C39.536,31.211 23.528,47.219 23.528,66.896 C23.528,86.572 39.536,102.58 59.213,102.58 C78.889,102.58 94.897,86.572 94.897,66.896 C94.897,47.219 78.889,31.211 59.213,31.211 Z M59.213,104.808 C38.308,104.808 21.301,87.8 21.301,66.896 C21.301,45.991 38.308,28.983 59.213,28.983 C80.118,28.983 97.125,45.991 97.125,66.896 C97.125,87.8 80.118,104.808 59.213,104.808 L59.213,104.808 Z" id="Fill-315" fill="#8B8E8D"></path>
            <path d="M92.523,69.713 C92.519,69.713 92.515,69.713 92.511,69.713 C92.306,69.706 92.145,69.534 92.151,69.33 C92.565,56.715 85.517,44.961 74.194,39.381 C74.01,39.291 73.935,39.068 74.026,38.885 C74.116,38.701 74.342,38.626 74.522,38.715 C86.106,44.423 93.317,56.449 92.894,69.354 C92.887,69.555 92.722,69.713 92.523,69.713" id="Fill-316" fill="#8B8E8D"></path>
            <path d="M88.883,72.751 C88.865,72.751 88.847,72.75 88.829,72.747 C88.625,72.718 88.486,72.529 88.514,72.326 C89.552,65.223 88.537,61.654 84.959,54.534 C84.868,54.351 84.941,54.127 85.124,54.035 C85.306,53.942 85.532,54.016 85.622,54.201 C89.28,61.477 90.316,65.132 89.25,72.434 C89.223,72.618 89.064,72.751 88.883,72.751" id="Fill-317" fill="#8B8E8D"></path>
            <path d="M47.042,66.896 C47.042,69.506 44.925,71.623 42.314,71.623 C39.703,71.623 37.586,69.506 37.586,66.896 C37.586,64.284 39.703,62.168 42.314,62.168 C44.925,62.168 47.042,64.284 47.042,66.896" id="Fill-318" fill="#797C7A"></path>
            <path d="M80.84,66.896 C80.84,69.506 78.723,71.623 76.112,71.623 C73.5,71.623 71.383,69.506 71.383,66.896 C71.383,64.284 73.5,62.168 76.112,62.168 C78.723,62.168 80.84,64.284 80.84,66.896" id="Fill-319" fill="#797C7A"></path>
            <path d="M56.581,35.09 L61.845,35.09 L61.845,30.904 L56.581,30.904 L56.581,35.09 Z M55.838,35.833 L62.587,35.833 L62.587,30.162 L55.838,30.162 L55.838,35.833 Z" id="Fill-320" fill="#8B8E8D"></path>
            <path d="M53.346,39.865 L65.079,39.865 L65.079,35.833 L53.346,35.833 L53.346,39.865 Z M52.604,40.608 L65.822,40.608 L65.822,35.09 L52.604,35.09 L52.604,40.608 Z" id="Fill-321" fill="#8B8E8D"></path>
            <path d="M56.581,102.827 L61.845,102.827 L61.845,98.641 L56.581,98.641 L56.581,102.827 Z M55.838,103.57 L62.587,103.57 L62.587,97.898 L55.838,97.898 L55.838,103.57 Z" id="Fill-322" fill="#8B8E8D"></path>
            <path d="M53.346,97.898 L65.079,97.898 L65.079,93.866 L53.346,93.866 L53.346,97.898 Z M52.604,98.641 L65.822,98.641 L65.822,93.123 L52.604,93.123 L52.604,98.641 Z" id="Fill-323" fill="#8B8E8D"></path>
            <path d="M193.119,42.12 C192.918,42.12 192.754,41.961 192.747,41.76 L192.599,36.936 C192.626,36.675 192.565,36.478 192.43,36.324 C192.293,36.17 192.106,36.086 191.901,36.086 L187.178,36.086 C186.972,36.086 186.806,35.92 186.806,35.715 C186.806,35.509 186.972,35.343 187.178,35.343 L191.901,35.343 C192.315,35.343 192.711,35.522 192.986,35.833 C193.261,36.143 193.39,36.558 193.338,36.97 L193.49,41.737 C193.496,41.942 193.335,42.113 193.13,42.12 C193.126,42.12 193.122,42.12 193.119,42.12" id="Fill-324" fill="#8B8E8D"></path>
            <path d="M149.993,64.723 L145.27,64.723 C144.856,64.723 144.46,64.544 144.185,64.234 C143.91,63.923 143.781,63.508 143.832,63.097 L143.681,58.329 C143.676,58.124 143.836,57.953 144.041,57.946 C144.277,57.953 144.416,58.101 144.424,58.306 L144.572,63.131 C144.545,63.391 144.605,63.588 144.741,63.741 C144.877,63.895 145.065,63.98 145.27,63.98 L149.993,63.98 C150.199,63.98 150.365,64.146 150.365,64.351 C150.365,64.557 150.199,64.723 149.993,64.723" id="Fill-325" fill="#8B8E8D"></path>
            <polyline id="Fill-326" fill="#8B8E8D" points="174.389 133.148 172.161 133.148 172.161 100.269 164.815 100.269 164.815 133.148 162.588 133.148 162.588 98.042 174.389 98.042 174.389 133.148"></polyline>
            <path d="M160.739,85.437 L160.739,95.829 C160.739,97.049 161.73,98.042 162.951,98.042 L174.025,98.042 C175.245,98.042 176.238,97.049 176.238,95.829 L176.238,85.437 L160.739,85.437 Z M174.025,100.269 L162.951,100.269 C160.502,100.269 158.511,98.278 158.511,95.829 L158.511,83.209 L178.466,83.209 L178.466,95.829 C178.466,98.278 176.474,100.269 174.025,100.269 L174.025,100.269 Z" id="Fill-327" fill="#8B8E8D"></path>
            <path d="M150.912,30.059 L155.003,30.059 L155.003,2.772 C155.003,2.472 154.759,2.228 154.458,2.228 L151.457,2.228 C151.157,2.228 150.912,2.472 150.912,2.772 L150.912,30.059 Z M157.231,32.287 L148.684,32.287 L148.684,2.772 C148.684,1.243 149.928,-1.42108547e-14 151.457,-1.42108547e-14 L154.458,-1.42108547e-14 C155.987,-1.42108547e-14 157.231,1.243 157.231,2.772 L157.231,32.287 L157.231,32.287 Z" id="Fill-328" fill="#8B8E8D"></path>
            <path d="M181.976,30.059 L186.063,30.059 L186.063,2.772 C186.063,2.472 185.82,2.228 185.519,2.228 L182.521,2.228 C182.221,2.228 181.976,2.472 181.976,2.772 L181.976,30.059 Z M188.291,32.287 L179.748,32.287 L179.748,2.772 C179.748,1.243 180.992,-1.42108547e-14 182.521,-1.42108547e-14 L185.519,-1.42108547e-14 C187.048,-1.42108547e-14 188.291,1.243 188.291,2.772 L188.291,32.287 L188.291,32.287 Z" id="Fill-329" fill="#8B8E8D"></path>
            <path d="M151.928,28.943 C151.724,28.943 151.557,28.777 151.557,28.572 L151.557,3.601 C151.557,3.396 151.724,3.23 151.928,3.23 C152.134,3.23 152.3,3.396 152.3,3.601 L152.3,28.572 C152.3,28.777 152.134,28.943 151.928,28.943" id="Fill-330" fill="#8B8E8D"></path>
            <path d="M182.914,28.943 C182.708,28.943 182.542,28.777 182.542,28.572 L182.542,3.601 C182.542,3.396 182.708,3.23 182.914,3.23 C183.119,3.23 183.285,3.396 183.285,3.601 L183.285,28.572 C183.285,28.777 183.119,28.943 182.914,28.943" id="Fill-331" fill="#8B8E8D"></path>
            <path d="M140.343,78.549 C140.864,81.202 143.207,83.209 146.009,83.209 L190.902,83.209 C193.704,83.209 196.047,81.202 196.568,78.549 L140.343,78.549 Z M190.902,85.437 L146.009,85.437 C141.597,85.437 138.007,81.848 138.007,77.436 L138.007,76.321 L198.904,76.321 L198.904,77.436 C198.904,81.848 195.314,85.437 190.902,85.437 L190.902,85.437 Z" id="Fill-332" fill="#8B8E8D"></path>
            <path d="M132.017,69.187 C132.563,73.21 136.02,76.321 140.191,76.321 L196.721,76.321 C200.891,76.321 204.349,73.21 204.894,69.187 L132.017,69.187 Z M196.721,78.549 L140.191,78.549 C134.414,78.549 129.714,73.85 129.714,68.072 L129.714,66.959 L207.197,66.959 L207.197,68.072 C207.197,73.85 202.497,78.549 196.721,78.549 L196.721,78.549 Z" id="Fill-333" fill="#8B8E8D"></path>
            <path d="M136.027,66.959 L200.884,66.959 L200.884,32.287 L136.027,32.287 L136.027,66.959 Z M133.799,69.187 L203.112,69.187 L203.112,30.059 L133.799,30.059 L133.799,69.187 Z" id="Fill-334" fill="#8B8E8D"></path>
            <polygon id="Fill-335" fill="#8B8E8D" points="165.024 68.073 171.955 68.073 171.955 31.609 165.024 31.609"></polygon>
            <polygon id="Fill-336" fill="#8B8E8D" points="138.103 67.056 140.236 67.056 140.236 31.609 138.103 31.609"></polygon>
            <polygon id="Fill-337" fill="#8B8E8D" points="196.724 67.056 198.856 67.056 198.856 31.609 196.724 31.609"></polygon>
            <path d="M27.888,167.442 L26.16,167.442 C23.843,167.442 22.604,166.105 22.604,163.659 L22.604,153.024 L20.549,153.024 L20.549,151.263 L22.604,151.263 L22.604,147.12 L24.691,147.12 L24.691,151.263 L27.431,151.263 L27.431,153.024 L24.691,153.024 L24.691,163.267 C24.691,164.702 25.115,165.583 26.681,165.583 L27.888,165.583 L27.888,167.442" id="Fill-338" fill="#676867"></path>
            <path d="M35.522,170.965 C34.805,172.955 33.467,173.966 31.51,173.966 L30.434,173.966 L30.434,172.139 L31.477,172.139 C32.586,172.139 33.369,171.455 33.793,170.085 L34.674,167.377 L28.705,151.295 L30.988,151.295 L33.63,158.765 L35.653,164.735 L35.751,164.735 L37.839,158.602 L40.35,151.295 L42.502,151.295 L35.522,170.965" id="Fill-339" fill="#676867"></path>
            <path d="M50.757,165.615 C53.627,165.615 55.063,163.527 55.063,159.385 C55.063,157.689 54.932,156.645 54.411,155.243 C53.921,153.839 52.747,153.057 50.92,153.057 C49.191,153.057 47.952,153.937 47.332,155.275 C46.777,156.612 46.549,157.884 46.549,159.352 C46.549,163.527 47.952,165.615 50.757,165.615 Z M44.494,151.263 L46.549,151.263 L46.549,153.513 L46.614,153.546 C47.756,151.915 49.322,151.1 51.377,151.1 C55.258,151.1 57.216,153.839 57.216,159.287 C57.216,161.505 56.857,163.299 55.943,164.996 C55.063,166.659 53.334,167.637 50.953,167.637 C49.061,167.637 47.625,166.888 46.614,165.387 L46.549,165.387 L46.549,173.9 L44.494,173.9 L44.494,151.263 L44.494,151.263 Z" id="Fill-340" fill="#676867"></path>
            <path d="M71.244,158.211 C71.211,154.786 69.58,152.992 66.807,152.992 C64.1,152.992 62.404,154.916 62.241,158.211 L71.244,158.211 Z M73.298,159.907 L62.241,159.907 C62.142,163.332 63.839,165.811 67.231,165.811 C68.601,165.811 69.874,165.354 71.016,164.408 L72.287,165.811 C70.917,167.018 69.254,167.637 67.296,167.637 C65.47,167.637 63.97,167.213 62.501,166.072 C61.067,164.93 60.185,162.647 60.185,159.418 C60.185,156.384 61.067,154.035 62.404,152.828 C63.742,151.621 65.209,151.1 66.872,151.1 C68.798,151.1 70.363,151.752 71.537,153.089 C72.711,154.427 73.298,156.156 73.298,158.309 L73.298,159.907 L73.298,159.907 Z" id="Fill-341" fill="#676867"></path>
            <polyline id="Fill-342" fill="#676867" points="100.179 149.241 89.154 149.241 89.154 154.035 98.548 154.035 98.548 158.374 89.154 158.374 89.154 167.442 84.131 167.442 84.131 144.739 100.179 144.739 100.179 149.241"></polyline>
        </g>
    </g>
</svg>