<?xml version="1.0" encoding="UTF-8"?>
<svg width="207px" height="178px" viewBox="0 0 207 178" version="1.1" xmlns="http://www.w3.org/2000/svg" xmlns:xlink="http://www.w3.org/1999/xlink">
    <title>plug-type-G</title>
    <g id="Page-1" stroke="none" stroke-width="1" fill="none" fill-rule="evenodd">
        <g id="plug-type-G" transform="translate(0.000000, 0.000000)">
            <path d="M21.338,14.207 C10.801,14.207 2.227,22.78 2.227,33.318 L2.227,109.066 C2.227,119.604 10.801,128.177 21.338,128.177 L97.088,128.177 C107.625,128.177 116.198,119.604 116.198,109.066 L116.198,33.318 C116.198,22.78 107.625,14.207 97.088,14.207 L21.338,14.207 Z M97.088,130.405 L21.338,130.405 C9.572,130.405 0,120.833 0,109.066 L0,33.318 C0,21.551 9.572,11.979 21.338,11.979 L97.088,11.979 C108.853,11.979 118.426,21.551 118.426,33.318 L118.426,109.066 C118.426,120.833 108.853,130.405 97.088,130.405 L97.088,130.405 Z" id="Fill-79" fill="#8B8E8D"></path>
            <path d="M21.316,15.569 C11.53,15.569 3.568,23.531 3.568,33.318 L3.568,109.066 C3.568,118.853 11.53,126.816 21.316,126.816 L97.065,126.816 C108.189,125.952 115.499,118.664 114.813,109.092 L114.812,33.318 C114.812,23.531 106.851,15.569 97.065,15.569 L21.316,15.569 Z M21.316,127.557 C11.12,127.557 2.826,119.262 2.826,109.066 L2.826,33.318 C2.826,23.121 11.12,14.827 21.316,14.827 L97.065,14.827 C107.261,14.827 115.556,23.121 115.556,33.318 L115.556,109.066 C116.271,119.045 108.68,126.658 97.094,127.557 L21.316,127.557 L21.316,127.557 Z" id="Fill-80" fill="#8B8E8D"></path>
            <path d="M7.429,100.812 C7.224,100.812 7.058,100.646 7.058,100.44 L7.058,49.197 C7.058,48.992 7.224,48.827 7.429,48.827 C7.634,48.827 7.8,48.992 7.8,49.197 L7.8,100.44 C7.8,100.646 7.634,100.812 7.429,100.812" id="Fill-81" fill="#8B8E8D"></path>
            <path d="M12.697,22.759 C12.588,22.759 12.479,22.711 12.406,22.62 C12.279,22.46 12.305,22.225 12.466,22.097 C15.015,20.071 18.083,19 21.338,19 L42.133,19 C42.338,19 42.504,19.167 42.504,19.372 C42.504,19.577 42.338,19.742 42.133,19.742 L21.338,19.742 C18.252,19.742 15.345,20.758 12.928,22.679 C12.86,22.733 12.778,22.759 12.697,22.759" id="Fill-82" fill="#8B8E8D"></path>
            <path d="M91.298,123.384 L21.338,123.384 C18.083,123.384 15.016,122.313 12.466,120.287 C12.305,120.159 12.279,119.925 12.406,119.764 C12.535,119.604 12.767,119.579 12.928,119.705 C15.345,121.627 18.253,122.641 21.338,122.641 L91.298,122.641 C91.504,122.641 91.67,122.808 91.67,123.013 C91.67,123.217 91.504,123.384 91.298,123.384" id="Fill-83" fill="#8B8E8D"></path>
            <path d="M110.996,45.732 C110.791,45.732 110.625,45.566 110.625,45.361 L110.625,33.281 C110.625,25.815 104.552,19.742 97.088,19.742 L83.225,19.742 C83.02,19.742 82.854,19.577 82.854,19.372 C82.854,19.167 83.02,19 83.225,19 L97.088,19 C104.962,19 111.368,25.406 111.368,33.281 L111.368,45.361 C111.368,45.566 111.202,45.732 110.996,45.732" id="Fill-84" fill="#8B8E8D"></path>
            <path d="M26.417,31.091 C22.388,31.091 19.11,34.367 19.11,38.396 L19.11,103.988 C19.11,108.017 22.388,111.295 26.417,111.295 L92.009,111.295 C96.037,111.295 99.315,108.017 99.315,103.988 L99.315,38.396 C99.315,34.367 96.037,31.091 92.009,31.091 L26.417,31.091 Z M92.009,113.521 L26.417,113.521 C21.16,113.521 16.882,109.245 16.882,103.988 L16.882,38.396 C16.882,33.138 21.16,28.861 26.417,28.861 L92.009,28.861 C97.267,28.861 101.543,33.138 101.543,38.396 L101.543,103.988 C101.543,109.245 97.267,113.521 92.009,113.521 L92.009,113.521 Z" id="Fill-85" fill="#8B8E8D"></path>
            <polygon id="Fill-86" fill="#797C7A" points="55.462 65.349 62.964 65.349 62.964 50.312 55.462 50.312"></polygon>
            <polygon id="Fill-87" fill="#797C7A" points="34.813 92.073 49.607 92.073 49.607 86.817 34.813 86.817"></polygon>
            <polygon id="Fill-88" fill="#797C7A" points="68.819 92.073 83.612 92.073 83.612 86.817 68.819 86.817"></polygon>
            <path d="M22.278,83.125 C22.073,83.125 21.907,82.958 21.907,82.753 L21.907,53.414 C21.907,53.209 22.073,53.043 22.278,53.043 C22.483,53.043 22.649,53.209 22.649,53.414 L22.649,82.753 C22.649,82.958 22.483,83.125 22.278,83.125" id="Fill-89" fill="#8B8E8D"></path>
            <path d="M86.334,108.267 L65.539,108.267 C65.335,108.267 65.168,108.101 65.168,107.895 C65.168,107.691 65.335,107.525 65.539,107.525 L86.334,107.525 C89.419,107.525 92.328,106.509 94.744,104.589 C94.906,104.463 95.139,104.486 95.266,104.647 C95.393,104.808 95.367,105.043 95.207,105.17 C92.657,107.196 89.589,108.267 86.334,108.267" id="Fill-90" fill="#8B8E8D"></path>
            <path d="M93.412,42.834 C93.206,42.834 93.04,42.668 93.04,42.462 C93.04,38.562 89.507,38.466 89.356,38.464 C89.151,38.461 88.987,38.293 88.9899595,38.088 C88.993,37.884 89.159,37.721 89.361,37.721 C89.363,37.721 89.365,37.721 89.367,37.721 C89.411,37.722 93.783,37.84 93.783,42.462 C93.783,42.668 93.617,42.834 93.412,42.834" id="Fill-91" fill="#8B8E8D"></path>
            <path d="M29.875,108.168 C28.591,108.168 25.547,107.962 23.602,106.154 C22.477,105.108 21.907,103.699 21.907,101.963 C21.907,101.758 22.073,101.592 22.278,101.592 C22.483,101.592 22.649,101.758 22.649,101.963 C22.649,103.484 23.141,104.712 24.108,105.61 C26.336,107.682 30.379,107.412 30.42,107.41 C30.603,107.392 30.803,107.549 30.818,107.753 C30.832,107.957 30.679,108.135 30.474,108.15 C30.436,108.152 30.219,108.168 29.875,108.168" id="Fill-92" fill="#8B8E8D"></path>
            <path d="M96.148,40.692 C95.943,40.692 95.777,40.526 95.777,40.321 C95.777,38.799 95.286,37.571 94.318,36.673 C92.089,34.6 88.049,34.872 88.006,34.874 C87.815,34.888 87.623,34.734 87.609,34.53 C87.594,34.326 87.748,34.147 87.953,34.133 C88.131,34.12 92.36,33.839 94.824,36.129 C95.95,37.174 96.519,38.584 96.519,40.321 C96.519,40.526 96.353,40.692 96.148,40.692" id="Fill-93" fill="#8B8E8D"></path>
            <path d="M28.387,104.806 C28.386,104.806 28.384,104.806 28.382,104.806 C28.338,104.806 23.966,104.688 23.966,100.065 C23.966,99.86 24.132,99.693 24.337,99.693 C24.542,99.693 24.708,99.86 24.708,100.065 C24.708,103.965 28.242,104.061 28.393,104.063 C28.598,104.066 28.762,104.235 28.7590405,104.441 C28.756,104.643 28.589,104.806 28.387,104.806" id="Fill-94" fill="#8B8E8D"></path>
            <path d="M177.194,50.914 L157.412,50.914 C157.207,50.914 157.041,50.748 157.041,50.543 C157.041,50.338 157.207,50.172 157.412,50.172 L177.194,50.172 C177.399,50.172 177.565,50.338 177.565,50.543 C177.565,50.748 177.399,50.914 177.194,50.914" id="Fill-95" fill="#8B8E8D"></path>
            <path d="M177.194,55.017 L157.412,55.017 C157.207,55.017 157.041,54.852 157.041,54.648 C157.041,54.442 157.207,54.276 157.412,54.276 L177.194,54.276 C177.399,54.276 177.565,54.442 177.565,54.648 C177.565,54.852 177.399,55.017 177.194,55.017" id="Fill-96" fill="#8B8E8D"></path>
            <path d="M177.194,59.122 L157.412,59.122 C157.207,59.122 157.041,58.957 157.041,58.752 C157.041,58.546 157.207,58.38 157.412,58.38 L177.194,58.38 C177.399,58.38 177.565,58.546 177.565,58.752 C177.565,58.957 177.399,59.122 177.194,59.122" id="Fill-97" fill="#8B8E8D"></path>
            <polygon id="Fill-98" fill="#8B8E8D" points="148.568 35.624 154.887 35.624 154.887 20.594 148.568 20.594"></polygon>
            <polygon id="Fill-99" fill="#8B8E8D" points="179.63 35.624 185.949 35.624 185.949 20.594 179.63 20.594"></polygon>
            <polyline id="Fill-100" fill="#8B8E8D" points="173.202 137.643 170.975 137.643 170.975 104.766 163.629 104.766 163.629 137.643 161.401 137.643 161.401 102.538 173.202 102.538 173.202 137.643"></polyline>
            <path d="M159.552,89.933 L159.552,100.327 C159.552,101.546 160.544,102.538 161.764,102.538 L172.839,102.538 C174.059,102.538 175.051,101.546 175.051,100.327 L175.051,89.933 L159.552,89.933 Z M172.839,104.766 L161.764,104.766 C159.316,104.766 157.323,102.774 157.323,100.327 L157.323,87.706 L177.279,87.706 L177.279,100.327 C177.279,102.774 175.287,104.766 172.839,104.766 L172.839,104.766 Z" id="Fill-101" fill="#8B8E8D"></path>
            <path d="M149.682,34.509 L153.773,34.509 L153.773,6.678 L149.682,6.678 L149.682,34.509 Z M147.454,36.738 L156.001,36.738 L156.001,4.45 L147.454,4.45 L147.454,36.738 Z" id="Fill-102" fill="#8B8E8D"></path>
            <path d="M180.746,34.509 L184.833,34.509 L184.833,6.678 L180.746,6.678 L180.746,34.509 Z M178.518,36.738 L187.061,36.738 L187.061,4.45 L178.518,4.45 L178.518,36.738 Z" id="Fill-103" fill="#8B8E8D"></path>
            <path d="M163.588,34.509 L170.931,34.509 L170.931,2.226 L163.588,2.226 L163.588,34.509 Z M161.36,36.738 L173.158,36.738 L173.158,0 L161.36,0 L161.36,36.738 Z" id="Fill-104" fill="#8B8E8D"></path>
            <path d="M166.23,33.394 C166.025,33.394 165.859,33.228 165.859,33.023 L165.859,8.051 C165.859,7.846 166.025,7.68 166.23,7.68 C166.436,7.68 166.601,7.846 166.601,8.051 L166.601,33.023 C166.601,33.228 166.436,33.394 166.23,33.394" id="Fill-105" fill="#8B8E8D"></path>
            <path d="M196.422,47.083 C196.223,47.083 196.058,46.924 196.051,46.724 L195.903,41.898 C195.93,41.637 195.869,41.441 195.733,41.288 C195.597,41.134 195.41,41.049 195.204,41.049 L190.481,41.049 C190.276,41.049 190.11,40.883 190.11,40.678 C190.11,40.472 190.276,40.307 190.481,40.307 L195.204,40.307 C195.62,40.307 196.015,40.485 196.289,40.796 C196.564,41.106 196.693,41.52 196.642,41.933 L196.794,46.7 C196.8,46.906 196.639,47.078 196.434,47.083 C196.43,47.083 196.426,47.083 196.422,47.083" id="Fill-106" fill="#8B8E8D"></path>
            <path d="M139.191,83.046 C139.711,85.698 142.054,87.706 144.856,87.706 L189.75,87.706 C192.553,87.706 194.895,85.698 195.416,83.046 L139.191,83.046 Z M189.75,89.933 L144.856,89.933 C140.445,89.933 136.855,86.343 136.855,81.932 L136.855,80.817 L197.751,80.817 L197.751,81.932 C197.751,86.343 194.163,89.933 189.75,89.933 L189.75,89.933 Z" id="Fill-107" fill="#8B8E8D"></path>
            <path d="M130.865,73.683 C131.411,77.707 134.868,80.817 139.039,80.817 L195.567,80.817 C199.738,80.817 203.195,77.707 203.742,73.683 L130.865,73.683 Z M195.567,83.046 L139.039,83.046 C133.262,83.046 128.562,78.346 128.562,72.569 L128.562,71.455 L206.044,71.455 L206.044,72.569 C206.044,78.346 201.345,83.046 195.567,83.046 L195.567,83.046 Z" id="Fill-108" fill="#8B8E8D"></path>
            <path d="M134.874,71.455 L199.732,71.455 L199.732,36.785 L134.874,36.785 L134.874,71.455 Z M132.647,73.683 L201.96,73.683 L201.96,34.555 L132.647,34.555 L132.647,73.683 Z" id="Fill-109" fill="#8B8E8D"></path>
            <path d="M26.28,171.345 L24.551,171.345 C22.235,171.345 20.996,170.008 20.996,167.562 L20.996,156.926 L18.941,156.926 L18.941,155.167 L20.996,155.167 L20.996,151.023 L23.084,151.023 L23.084,155.167 L25.824,155.167 L25.824,156.926 L23.084,156.926 L23.084,167.171 C23.084,168.605 23.508,169.486 25.073,169.486 L26.28,169.486 L26.28,171.345" id="Fill-110" fill="#676867"></path>
            <path d="M33.914,174.868 C33.197,176.857 31.859,177.87 29.902,177.87 L28.826,177.87 L28.826,176.043 L29.87,176.043 C30.979,176.043 31.761,175.357 32.185,173.988 L33.066,171.281 L27.097,155.199 L29.38,155.199 L32.022,162.669 L34.045,168.638 L34.142,168.638 L36.23,162.506 L38.742,155.199 L40.894,155.199 L33.914,174.868" id="Fill-111" fill="#676867"></path>
            <path d="M49.149,169.519 C52.019,169.519 53.455,167.431 53.455,163.289 C53.455,161.592 53.324,160.549 52.802,159.146 C52.313,157.743 51.14,156.961 49.312,156.961 C47.584,156.961 46.344,157.841 45.724,159.178 C45.169,160.515 44.941,161.788 44.941,163.256 C44.941,167.431 46.344,169.519 49.149,169.519 Z M42.886,155.167 L44.941,155.167 L44.941,157.417 L45.006,157.45 C46.148,155.819 47.713,155.004 49.769,155.004 C53.651,155.004 55.607,157.743 55.607,163.19 C55.607,165.409 55.249,167.203 54.336,168.899 C53.455,170.563 51.726,171.541 49.345,171.541 C47.454,171.541 46.017,170.792 45.006,169.291 L44.941,169.291 L44.941,177.803 L42.886,177.803 L42.886,155.167 L42.886,155.167 Z" id="Fill-112" fill="#676867"></path>
            <path d="M69.636,162.114 C69.603,158.689 67.972,156.895 65.2,156.895 C62.492,156.895 60.796,158.819 60.632,162.114 L69.636,162.114 Z M71.691,163.81 L60.632,163.81 C60.535,167.236 62.231,169.715 65.624,169.715 C66.994,169.715 68.266,169.258 69.408,168.312 L70.68,169.715 C69.309,170.921 67.646,171.541 65.689,171.541 C63.862,171.541 62.362,171.118 60.893,169.975 C59.459,168.834 58.578,166.55 58.578,163.321 C58.578,160.288 59.459,157.939 60.796,156.731 C62.133,155.525 63.601,155.004 65.265,155.004 C67.189,155.004 68.755,155.656 69.929,156.993 C71.103,158.33 71.691,160.059 71.691,162.213 L71.691,163.81 L71.691,163.81 Z" id="Fill-113" fill="#676867"></path>
            <path d="M99.061,154.253 L94.299,155.949 C93.906,154.286 92.569,153.177 90.58,153.177 C88.231,153.177 86.894,154.808 86.894,156.863 L86.894,163.027 C86.894,165.147 88.231,166.878 90.613,166.878 C91.689,166.878 92.602,166.485 93.352,165.735 C94.135,164.985 94.527,164.072 94.527,163.06 L94.527,162.898 L89.895,162.898 L89.895,158.721 L99.484,158.721 L99.484,163.256 C99.484,165.604 98.637,167.562 96.908,169.161 C95.179,170.758 93.091,171.541 90.613,171.541 C84.871,171.541 81.837,168.05 81.837,162.669 L81.837,157.32 C81.837,154.808 82.588,152.72 84.121,151.023 C85.654,149.327 87.807,148.479 90.613,148.479 C94.82,148.479 97.919,150.73 99.061,154.253" id="Fill-114" fill="#676867"></path>
        </g>
    </g>
</svg>