<?xml version="1.0" encoding="UTF-8"?>
<svg width="202px" height="174px" viewBox="0 0 202 174" version="1.1" xmlns="http://www.w3.org/2000/svg" xmlns:xlink="http://www.w3.org/1999/xlink">
    <title>plug-type-H</title>
    <g id="Page-1" stroke="none" stroke-width="1" fill="none" fill-rule="evenodd">
        <g id="plug-type-H" transform="translate(0.000000, 0.000000)">
            <polygon id="Fill-215" fill="#797C7A" points="56.585 91.225 61.841 91.225 61.841 76.431 56.585 76.431"></polygon>
            <polyline id="Fill-216" fill="#797C7A" points="71.06 63.263 67.682 59.237 79.015 49.728 82.393 53.753 71.06 63.263"></polyline>
            <polyline id="Fill-217" fill="#797C7A" points="39.923 49.728 36.545 53.753 47.877 63.263 51.255 59.237 39.923 49.728"></polyline>
            <path d="M21.338,9.991 C10.8,9.991 2.227,18.565 2.227,29.102 L2.227,104.851 C2.227,115.389 10.8,123.962 21.338,123.962 L97.087,123.962 C107.625,123.962 116.198,115.389 116.198,104.851 L116.198,29.102 C116.198,18.565 107.625,9.991 97.087,9.991 L21.338,9.991 Z M97.087,126.191 L21.338,126.191 C9.572,126.191 0,116.617 0,104.851 L0,29.102 C0,17.336 9.572,7.764 21.338,7.764 L97.087,7.764 C108.853,7.764 118.426,17.336 118.426,29.102 L118.426,104.851 C118.426,116.617 108.853,126.191 97.087,126.191 L97.087,126.191 Z" id="Fill-218" fill="#8B8E8D"></path>
            <path d="M21.316,11.355 C11.53,11.355 3.568,19.317 3.568,29.102 L3.568,104.851 C3.568,114.638 11.53,122.601 21.316,122.601 L97.065,122.601 C108.189,121.736 115.499,114.447 114.813,104.877 L114.812,29.102 C114.812,19.317 106.851,11.355 97.065,11.355 L21.316,11.355 Z M21.316,123.343 C11.119,123.343 2.825,115.048 2.825,104.851 L2.825,29.102 C2.825,18.906 11.119,10.611 21.316,10.611 L97.065,10.611 C107.261,10.611 115.555,18.906 115.555,29.102 L115.555,104.851 C116.271,114.828 108.68,122.444 97.094,123.341 L21.316,123.343 L21.316,123.343 Z" id="Fill-219" fill="#8B8E8D"></path>
            <path d="M7.429,96.633 C7.224,96.633 7.058,96.468 7.058,96.262 L7.058,45.019 C7.058,44.815 7.224,44.649 7.429,44.649 C7.634,44.649 7.8,44.815 7.8,45.019 L7.8,96.262 C7.8,96.468 7.634,96.633 7.429,96.633" id="Fill-220" fill="#8B8E8D"></path>
            <path d="M12.697,18.581 C12.588,18.581 12.479,18.533 12.406,18.442 C12.279,18.28 12.305,18.047 12.466,17.919 C15.016,15.893 18.083,14.821 21.338,14.821 L42.133,14.821 C42.338,14.821 42.504,14.987 42.504,15.193 C42.504,15.398 42.338,15.565 42.133,15.565 L21.338,15.565 C18.253,15.565 15.345,16.579 12.928,18.501 C12.859,18.555 12.778,18.581 12.697,18.581" id="Fill-221" fill="#8B8E8D"></path>
            <path d="M91.298,119.205 L21.338,119.205 C18.083,119.205 15.016,118.135 12.466,116.108 C12.305,115.981 12.279,115.747 12.406,115.586 C12.535,115.426 12.767,115.401 12.928,115.527 C15.345,117.447 18.253,118.464 21.338,118.464 L91.298,118.464 C91.504,118.464 91.67,118.629 91.67,118.834 C91.67,119.039 91.504,119.205 91.298,119.205" id="Fill-222" fill="#8B8E8D"></path>
            <path d="M110.996,41.554 C110.791,41.554 110.625,41.388 110.625,41.183 L110.625,29.102 C110.625,21.638 104.552,15.565 97.087,15.565 L83.225,15.565 C83.02,15.565 82.854,15.398 82.854,15.193 C82.854,14.987 83.02,14.821 83.225,14.821 L97.087,14.821 C104.962,14.821 111.368,21.228 111.368,29.102 L111.368,41.183 C111.368,41.388 111.202,41.554 110.996,41.554" id="Fill-223" fill="#8B8E8D"></path>
            <path d="M59.213,31.292 C39.536,31.292 23.529,47.301 23.529,66.977 C23.529,86.653 39.536,102.661 59.213,102.661 C78.889,102.661 94.897,86.653 94.897,66.977 C94.897,47.301 78.889,31.292 59.213,31.292 Z M59.213,104.889 C38.308,104.889 21.301,87.882 21.301,66.977 C21.301,46.072 38.308,29.065 59.213,29.065 C80.118,29.065 97.125,46.072 97.125,66.977 C97.125,87.882 80.118,104.889 59.213,104.889 L59.213,104.889 Z" id="Fill-224" fill="#8B8E8D"></path>
            <path d="M91.103,60.629 C90.932,60.629 90.778,60.509 90.741,60.333 C88.142,47.984 78.499,38.242 66.174,35.518 C65.974,35.473 65.848,35.276 65.892,35.074 C65.936,34.874 66.128,34.748 66.335,34.792 C78.943,37.58 88.808,47.547 91.468,60.181 C91.51,60.381 91.381,60.578 91.18,60.621 C91.155,60.626 91.129,60.629 91.103,60.629" id="Fill-225" fill="#8B8E8D"></path>
            <path d="M74.841,93.413 C74.704,93.413 74.571,93.337 74.507,93.203 C74.418,93.02 74.495,92.797 74.68,92.708 C81.142,89.582 83.527,86.74 87.415,79.785 C87.516,79.606 87.742,79.542 87.921,79.642 C88.1,79.741 88.164,79.969 88.064,80.147 C84.09,87.257 81.646,90.164 75.003,93.376 C74.951,93.403 74.896,93.413 74.841,93.413" id="Fill-226" fill="#8B8E8D"></path>
            <path d="M177.179,49.206 L157.398,49.206 C157.192,49.206 157.026,49.039 157.026,48.834 C157.026,48.629 157.192,48.463 157.398,48.463 L177.179,48.463 C177.384,48.463 177.55,48.629 177.55,48.834 C177.55,49.039 177.384,49.206 177.179,49.206" id="Fill-227" fill="#8B8E8D"></path>
            <path d="M177.179,53.31 L157.398,53.31 C157.192,53.31 157.026,53.144 157.026,52.939 C157.026,52.734 157.192,52.567 157.398,52.567 L177.179,52.567 C177.384,52.567 177.55,52.734 177.55,52.939 C177.55,53.144 177.384,53.31 177.179,53.31" id="Fill-228" fill="#8B8E8D"></path>
            <path d="M177.179,57.413 L157.398,57.413 C157.192,57.413 157.026,57.246 157.026,57.041 C157.026,56.836 157.192,56.67 157.398,56.67 L177.179,56.67 C177.384,56.67 177.55,56.836 177.55,57.041 C177.55,57.246 177.384,57.413 177.179,57.413" id="Fill-229" fill="#8B8E8D"></path>
            <polygon id="Fill-230" fill="#8B8E8D" points="148.553 31.172 154.872 31.172 154.872 24.63 148.553 24.63"></polygon>
            <polygon id="Fill-231" fill="#8B8E8D" points="179.615 31.172 185.934 31.172 185.934 24.63 179.615 24.63"></polygon>
            <polygon id="Fill-232" fill="#8B8E8D" points="164.084 31.172 170.403 31.172 170.403 24.63 164.084 24.63"></polygon>
            <polyline id="Fill-233" fill="#8B8E8D" points="173.187 133.194 170.959 133.194 170.959 100.315 163.614 100.315 163.614 133.194 161.386 133.194 161.386 98.086 173.187 98.086 173.187 133.194"></polyline>
            <path d="M159.537,85.482 L159.537,95.873 C159.537,97.094 160.529,98.086 161.749,98.086 L172.824,98.086 C174.044,98.086 175.036,97.094 175.036,95.873 L175.036,85.482 L159.537,85.482 Z M172.824,100.315 L161.749,100.315 C159.301,100.315 157.308,98.322 157.308,95.873 L157.308,83.253 L177.264,83.253 L177.264,95.873 C177.264,98.322 175.272,100.315 172.824,100.315 L172.824,100.315 Z" id="Fill-234" fill="#8B8E8D"></path>
            <path d="M149.667,30.059 L153.758,30.059 L153.758,2.227 L149.667,2.227 L149.667,30.059 Z M147.439,32.287 L155.986,32.287 L155.986,0 L147.439,0 L147.439,32.287 Z" id="Fill-235" fill="#8B8E8D"></path>
            <path d="M165.198,30.059 L169.288,30.059 L169.288,2.227 L165.198,2.227 L165.198,30.059 Z M162.971,32.287 L171.517,32.287 L171.517,0 L162.971,0 L162.971,32.287 Z" id="Fill-236" fill="#8B8E8D"></path>
            <path d="M180.731,30.059 L184.818,30.059 L184.818,2.227 L180.731,2.227 L180.731,30.059 Z M178.502,32.287 L187.046,32.287 L187.046,0 L178.502,0 L178.502,32.287 Z" id="Fill-237" fill="#8B8E8D"></path>
            <path d="M196.407,42.633 C196.207,42.633 196.043,42.473 196.036,42.272 L195.888,37.447 C195.914,37.187 195.853,36.989 195.718,36.836 C195.582,36.683 195.395,36.598 195.19,36.598 L190.466,36.598 C190.261,36.598 190.095,36.432 190.095,36.227 C190.095,36.022 190.261,35.855 190.466,35.855 L195.19,35.855 C195.605,35.855 196,36.034 196.275,36.345 C196.549,36.654 196.678,37.069 196.627,37.482 L196.779,42.249 C196.785,42.454 196.623,42.625 196.419,42.633 C196.414,42.633 196.411,42.633 196.407,42.633" id="Fill-238" fill="#8B8E8D"></path>
            <path d="M144.638,73.102 L139.914,73.102 C139.5,73.102 139.104,72.923 138.83,72.613 C138.555,72.302 138.427,71.887 138.477,71.476 L138.325,66.708 C138.32,66.503 138.481,66.331 138.685,66.324 C138.69,66.324 138.693,66.324 138.697,66.324 C138.897,66.324 139.062,66.483 139.068,66.684 L139.217,71.51 C139.189,71.77 139.25,71.967 139.386,72.121 C139.522,72.274 139.709,72.359 139.914,72.359 L144.638,72.359 C144.844,72.359 145.01,72.526 145.01,72.731 C145.01,72.936 144.844,73.102 144.638,73.102" id="Fill-239" fill="#8B8E8D"></path>
            <path d="M139.176,78.595 C139.696,81.246 142.039,83.253 144.841,83.253 L189.735,83.253 C192.537,83.253 194.88,81.246 195.401,78.595 L139.176,78.595 Z M189.735,85.482 L144.841,85.482 C140.43,85.482 136.84,81.893 136.84,77.48 L136.84,76.366 L197.737,76.366 L197.737,77.48 C197.737,81.893 194.147,85.482 189.735,85.482 L189.735,85.482 Z" id="Fill-240" fill="#8B8E8D"></path>
            <path d="M134.86,32.332 L134.86,72.41 C134.86,74.591 136.635,76.366 138.816,76.366 L195.761,76.366 C197.942,76.366 199.717,74.591 199.717,72.41 L199.717,32.332 L134.86,32.332 Z M195.761,78.595 L138.816,78.595 C135.406,78.595 132.632,75.82 132.632,72.41 L132.632,30.104 L201.945,30.104 L201.945,72.41 C201.945,75.82 199.17,78.595 195.761,78.595 L195.761,78.595 Z" id="Fill-241" fill="#8B8E8D"></path>
            <path d="M25.401,167.038 L23.672,167.038 C21.356,167.038 20.118,165.699 20.118,163.254 L20.118,152.619 L18.062,152.619 L18.062,150.859 L20.118,150.859 L20.118,146.715 L22.205,146.715 L22.205,150.859 L24.945,150.859 L24.945,152.619 L22.205,152.619 L22.205,162.862 C22.205,164.298 22.629,165.177 24.194,165.177 L25.401,165.177 L25.401,167.038" id="Fill-242" fill="#676867"></path>
            <path d="M33.036,170.56 C32.318,172.549 30.98,173.561 29.023,173.561 L27.947,173.561 L27.947,171.735 L28.991,171.735 C30.1,171.735 30.882,171.049 31.307,169.681 L32.187,166.972 L26.218,150.891 L28.502,150.891 L31.143,158.361 L33.166,164.329 L33.264,164.329 L35.351,158.196 L37.863,150.891 L40.016,150.891 L33.036,170.56" id="Fill-243" fill="#676867"></path>
            <path d="M48.27,165.211 C51.141,165.211 52.577,163.122 52.577,158.982 C52.577,157.283 52.445,156.24 51.923,154.838 C51.434,153.435 50.261,152.652 48.434,152.652 C46.705,152.652 45.465,153.533 44.845,154.87 C44.29,156.207 44.062,157.479 44.062,158.947 C44.062,163.122 45.465,165.211 48.27,165.211 Z M42.007,150.859 L44.062,150.859 L44.062,153.109 L44.127,153.142 C45.269,151.51 46.834,150.695 48.891,150.695 C52.772,150.695 54.728,153.435 54.728,158.882 C54.728,161.1 54.371,162.894 53.457,164.592 C52.577,166.254 50.847,167.233 48.466,167.233 C46.575,167.233 45.139,166.484 44.127,164.982 L44.062,164.982 L44.062,173.496 L42.007,173.496 L42.007,150.859 L42.007,150.859 Z" id="Fill-244" fill="#676867"></path>
            <path d="M68.758,157.805 C68.725,154.381 67.093,152.588 64.321,152.588 C61.613,152.588 59.917,154.51 59.753,157.805 L68.758,157.805 Z M70.812,159.503 L59.753,159.503 C59.656,162.928 61.353,165.406 64.745,165.406 C66.115,165.406 67.388,164.949 68.529,164.004 L69.801,165.406 C68.431,166.612 66.767,167.233 64.81,167.233 C62.983,167.233 61.483,166.809 60.015,165.667 C58.58,164.525 57.699,162.242 57.699,159.013 C57.699,155.979 58.58,153.63 59.917,152.423 C61.254,151.217 62.723,150.695 64.386,150.695 C66.31,150.695 67.876,151.347 69.05,152.684 C70.225,154.022 70.812,155.75 70.812,157.904 L70.812,159.503 L70.812,159.503 Z" id="Fill-245" fill="#676867"></path>
            <polyline id="Fill-246" fill="#676867" points="99.062 167.038 94.104 167.038 94.104 157.774 86.667 157.774 86.667 167.038 81.643 167.038 81.643 144.335 86.667 144.335 86.667 153.435 94.104 153.435 94.104 144.335 99.062 144.335 99.062 167.038"></polyline>
        </g>
    </g>
</svg>