<?xml version="1.0" encoding="UTF-8"?>
<svg width="212px" height="175px" viewBox="0 0 212 175" version="1.1" xmlns="http://www.w3.org/2000/svg" xmlns:xlink="http://www.w3.org/1999/xlink">
    <title>plug-type-I</title>
    <g id="Page-1" stroke="none" stroke-width="1" fill="none" fill-rule="evenodd">
        <g id="plug-type-I" transform="translate(0.000000, 0.512000)">
            <path d="M21.341,9.956 C10.802,9.956 2.229,18.528 2.229,29.066 L2.229,104.816 C2.229,115.353 10.802,123.926 21.341,123.926 L97.089,123.926 C107.626,123.926 116.199,115.353 116.199,104.816 L116.199,29.066 C116.199,18.528 107.626,9.956 97.089,9.956 L21.341,9.956 Z M97.089,126.155 L21.341,126.155 C9.573,126.155 -1.13686838e-13,116.582 -1.13686838e-13,104.816 L-1.13686838e-13,29.066 C-1.13686838e-13,17.3 9.573,7.728 21.341,7.728 L97.089,7.728 C108.855,7.728 118.427,17.3 118.427,29.066 L118.427,104.816 C118.427,116.582 108.855,126.155 97.089,126.155 L97.089,126.155 Z" id="Fill-343" fill="#8B8E8D"></path>
            <path d="M21.317,11.319 C11.531,11.319 3.569,19.281 3.569,29.066 L3.569,104.816 C3.569,114.602 11.531,122.564 21.317,122.564 L97.067,122.564 C108.19,121.7 115.5,114.413 114.815,104.842 L114.815,29.066 C114.815,19.281 106.853,11.319 97.067,11.319 L21.317,11.319 Z M21.317,123.307 C11.121,123.307 2.826,115.011 2.826,104.816 L2.826,29.066 C2.826,18.871 11.121,10.576 21.317,10.576 L97.067,10.576 C107.263,10.576 115.558,18.871 115.558,29.066 L115.558,104.816 C116.272,114.793 108.68,122.408 97.095,123.307 L21.317,123.307 L21.317,123.307 Z" id="Fill-344" fill="#8B8E8D"></path>
            <path d="M7.43,96.598 C7.224,96.598 7.06,96.432 7.06,96.227 L7.06,44.985 C7.06,44.78 7.224,44.613 7.43,44.613 C7.635,44.613 7.801,44.78 7.801,44.985 L7.801,96.227 C7.801,96.432 7.635,96.598 7.43,96.598" id="Fill-345" fill="#8B8E8D"></path>
            <path d="M12.698,18.546 C12.59,18.546 12.481,18.498 12.408,18.406 C12.279,18.244 12.308,18.011 12.468,17.884 C15.016,15.857 18.085,14.786 21.341,14.786 L42.133,14.786 C42.338,14.786 42.505,14.952 42.505,15.157 C42.505,15.363 42.338,15.528 42.133,15.528 L21.341,15.528 C18.253,15.528 15.345,16.544 12.93,18.465 C12.861,18.519 12.779,18.546 12.698,18.546" id="Fill-346" fill="#8B8E8D"></path>
            <path d="M91.3,119.17 L21.341,119.17 C18.085,119.17 15.016,118.099 12.468,116.072 C12.308,115.945 12.279,115.712 12.408,115.551 C12.536,115.39 12.769,115.364 12.93,115.491 C15.345,117.412 18.253,118.427 21.341,118.427 L91.3,118.427 C91.505,118.427 91.672,118.594 91.672,118.799 C91.672,119.004 91.505,119.17 91.3,119.17" id="Fill-347" fill="#8B8E8D"></path>
            <path d="M110.998,41.518 C110.793,41.518 110.627,41.352 110.627,41.147 L110.627,29.066 C110.627,21.601 104.553,15.528 97.089,15.528 L83.226,15.528 C83.021,15.528 82.854,15.363 82.854,15.157 C82.854,14.952 83.021,14.786 83.226,14.786 L97.089,14.786 C104.963,14.786 111.369,21.192 111.369,29.066 L111.369,41.147 C111.369,41.352 111.203,41.518 110.998,41.518" id="Fill-348" fill="#8B8E8D"></path>
            <path d="M30.131,29.266 C26.103,29.266 22.825,32.544 22.825,36.573 L22.816,36.711 C20.364,56.409 20.364,76.386 22.816,96.086 L22.825,96.223 C22.825,100.252 26.103,103.53 30.131,103.53 L87.183,103.53 C91.319,103.53 95.1,100.19 95.611,96.086 C98.065,76.386 98.065,56.409 95.611,36.711 C95.1,32.606 91.319,29.266 87.183,29.266 L30.131,29.266 Z M87.183,105.758 L30.131,105.758 C24.898,105.758 20.636,101.519 20.597,96.294 C18.132,76.456 18.132,56.34 20.597,36.502 C20.636,31.277 24.898,27.038 30.131,27.038 L87.183,27.038 C92.404,27.038 97.177,31.254 97.821,36.435 C100.299,56.318 100.299,76.479 97.821,96.361 C97.177,101.542 92.404,105.758 87.183,105.758 L87.183,105.758 Z" id="Fill-349" fill="#8B8E8D"></path>
            <path d="M88.871,42.486 C88.666,42.486 88.5,42.32 88.5,42.115 C88.5,38.231 84.966,38.118 84.814,38.116 C84.61,38.112 84.446,37.944 84.45,37.738 C84.452,37.534 84.639,37.366 84.825,37.374 C84.87,37.374 89.242,37.491 89.242,42.115 C89.242,42.32 89.075,42.486 88.871,42.486" id="Fill-350" fill="#8B8E8D"></path>
            <path d="M34.418,99.752 C33.134,99.752 30.088,99.547 28.144,97.738 C27.019,96.693 26.449,95.282 26.449,93.547 C26.449,93.342 26.615,93.176 26.819,93.176 C27.026,93.176 27.192,93.342 27.192,93.547 C27.192,95.068 27.682,96.295 28.65,97.194 C30.879,99.267 34.92,98.996 34.963,98.994 C35.155,98.983 35.345,99.132 35.36,99.338 C35.374,99.542 35.221,99.719 35.016,99.735 C34.978,99.737 34.761,99.752 34.418,99.752" id="Fill-351" fill="#8B8E8D"></path>
            <path d="M91.607,40.344 C91.402,40.344 91.235,40.178 91.235,39.973 C91.235,38.453 90.745,37.226 89.779,36.327 C87.555,34.257 83.506,34.522 83.465,34.526 C83.267,34.545 83.083,34.386 83.068,34.182 C83.054,33.978 83.207,33.8 83.411,33.785 C83.59,33.775 87.818,33.49 90.283,35.782 C91.407,36.827 91.979,38.237 91.979,39.973 C91.979,40.178 91.812,40.344 91.607,40.344" id="Fill-352" fill="#8B8E8D"></path>
            <path d="M32.931,96.391 C32.929,96.391 32.927,96.391 32.926,96.391 C32.881,96.39 28.508,96.273 28.508,91.649 C28.508,91.444 28.674,91.278 28.88,91.278 C29.085,91.278 29.251,91.444 29.251,91.649 C29.251,95.533 32.786,95.645 32.937,95.648 C33.141,95.652 33.305,95.821 33.3,96.026 C33.298,96.228 33.133,96.391 32.931,96.391" id="Fill-353" fill="#8B8E8D"></path>
            <polygon id="Fill-354" fill="#797C7A" points="56.586 90.697 61.842 90.697 61.842 75.903 56.586 75.903"></polygon>
            <polyline id="Fill-355" fill="#797C7A" points="83.293 56.393 78.836 59.178 70.997 46.632 75.453 43.847 83.293 56.393"></polyline>
            <polyline id="Fill-356" fill="#797C7A" points="47.431 46.632 42.975 43.847 35.135 56.393 39.592 59.178 47.431 46.632"></polyline>
            <path d="M177.373,41.239 L157.593,41.239 C157.388,41.239 157.221,41.073 157.221,40.867 C157.221,40.662 157.388,40.496 157.593,40.496 L177.373,40.496 C177.578,40.496 177.745,40.662 177.745,40.867 C177.745,41.073 177.578,41.239 177.373,41.239" id="Fill-357" fill="#8B8E8D"></path>
            <path d="M177.373,45.343 L157.593,45.343 C157.388,45.343 157.221,45.177 157.221,44.972 C157.221,44.766 157.388,44.6 157.593,44.6 L177.373,44.6 C177.578,44.6 177.745,44.766 177.745,44.972 C177.745,45.177 177.578,45.343 177.373,45.343" id="Fill-358" fill="#8B8E8D"></path>
            <path d="M177.373,49.447 L157.593,49.447 C157.388,49.447 157.221,49.28 157.221,49.075 C157.221,48.87 157.388,48.703 157.593,48.703 L177.373,48.703 C177.578,48.703 177.745,48.87 177.745,49.075 C177.745,49.28 177.578,49.447 177.373,49.447" id="Fill-359" fill="#8B8E8D"></path>
            <path d="M201.027,42.613 C200.825,42.613 200.661,42.454 200.654,42.253 L200.505,37.428 C200.533,37.167 200.472,36.97 200.337,36.816 C200.2,36.663 200.014,36.578 199.809,36.578 L195.084,36.578 C194.879,36.578 194.714,36.412 194.714,36.207 C194.714,36.002 194.879,35.836 195.084,35.836 L199.809,35.836 C200.223,35.836 200.618,36.014 200.894,36.325 C201.167,36.635 201.296,37.049 201.245,37.462 L201.398,42.229 C201.402,42.435 201.241,42.606 201.037,42.613 C201.033,42.613 201.03,42.613 201.027,42.613" id="Fill-360" fill="#8B8E8D"></path>
            <polygon id="Fill-361" fill="#8B8E8D" points="146.521 31.173 152.839 31.173 152.839 24.631 146.521 24.631"></polygon>
            <polygon id="Fill-362" fill="#8B8E8D" points="182.038 31.173 188.358 31.173 188.358 24.631 182.038 24.631"></polygon>
            <polyline id="Fill-363" fill="#8B8E8D" points="173.382 133.193 171.153 133.193 171.153 100.315 163.81 100.315 163.81 133.193 161.581 133.193 161.581 98.087 173.382 98.087 173.382 133.193"></polyline>
            <path d="M159.732,85.483 L159.732,95.875 C159.732,97.095 160.724,98.087 161.944,98.087 L173.02,98.087 C174.239,98.087 175.232,97.095 175.232,95.875 L175.232,85.483 L159.732,85.483 Z M173.02,100.315 L161.944,100.315 C159.496,100.315 157.503,98.324 157.503,95.875 L157.503,83.255 L177.459,83.255 L177.459,95.875 C177.459,98.324 175.468,100.315 173.02,100.315 L173.02,100.315 Z" id="Fill-364" fill="#8B8E8D"></path>
            <path d="M147.634,30.059 L151.726,30.059 L151.726,2.227 L147.634,2.227 L147.634,30.059 Z M145.406,32.288 L153.953,32.288 L153.953,0 L145.406,0 L145.406,32.288 Z" id="Fill-365" fill="#8B8E8D"></path>
            <path d="M166.951,30.059 L167.925,30.059 L167.925,2.227 L166.951,2.227 L166.951,30.059 Z M164.725,32.288 L170.154,32.288 L170.154,0 L164.725,0 L164.725,32.288 Z" id="Fill-366" fill="#8B8E8D"></path>
            <path d="M183.154,30.059 L187.241,30.059 L187.241,2.227 L183.154,2.227 L183.154,30.059 Z M180.926,32.288 L189.47,32.288 L189.47,0 L180.926,0 L180.926,32.288 Z" id="Fill-367" fill="#8B8E8D"></path>
            <path d="M133.36,78.595 C133.88,81.247 136.224,83.255 139.026,83.255 L195.943,83.255 C198.745,83.255 201.087,81.247 201.608,78.595 L133.36,78.595 Z M195.943,85.483 L139.026,85.483 C134.612,85.483 131.024,81.893 131.024,77.481 L131.024,76.367 L203.944,76.367 L203.944,77.481 C203.944,81.893 200.355,85.483 195.943,85.483 L195.943,85.483 Z" id="Fill-368" fill="#8B8E8D"></path>
            <path d="M130.28,58.317 L204.687,58.317 L204.687,32.333 L130.28,32.333 L130.28,58.317 Z M128.053,60.546 L206.914,60.546 L206.914,30.105 L128.053,30.105 L128.053,60.546 Z" id="Fill-369" fill="#8B8E8D"></path>
            <path d="M125.577,76.073 L209.389,76.073 L209.389,65.365 C209.389,62.708 207.227,60.546 204.57,60.546 L130.398,60.546 C127.739,60.546 125.577,62.708 125.577,65.365 L125.577,76.073 Z M211.617,78.301 L123.35,78.301 L123.35,65.365 C123.35,61.479 126.511,58.317 130.398,58.317 L204.57,58.317 C208.455,58.317 211.617,61.479 211.617,65.365 L211.617,78.301 L211.617,78.301 Z" id="Fill-370" fill="#8B8E8D"></path>
            <path d="M31.745,167.488 L30.016,167.488 C27.7,167.488 26.462,166.15 26.462,163.704 L26.462,153.07 L24.406,153.07 L24.406,151.308 L26.462,151.308 L26.462,147.166 L28.549,147.166 L28.549,151.308 L31.289,151.308 L31.289,153.07 L28.549,153.07 L28.549,163.312 C28.549,164.747 28.973,165.628 30.538,165.628 L31.745,165.628 L31.745,167.488" id="Fill-371" fill="#676867"></path>
            <path d="M39.379,171.01 C38.662,173 37.324,174.011 35.367,174.011 L34.29,174.011 L34.29,172.185 L35.335,172.185 C36.444,172.185 37.226,171.5 37.652,170.13 L38.531,167.423 L32.562,151.341 L34.846,151.341 L37.487,158.811 L39.51,164.78 L39.608,164.78 L41.695,158.647 L44.206,151.341 L46.36,151.341 L39.379,171.01" id="Fill-372" fill="#676867"></path>
            <path d="M54.614,165.661 C57.485,165.661 58.921,163.573 58.921,159.431 C58.921,157.734 58.789,156.691 58.268,155.288 C57.779,153.885 56.605,153.102 54.778,153.102 C53.049,153.102 51.809,153.983 51.19,155.321 C50.634,156.658 50.406,157.929 50.406,159.398 C50.406,163.573 51.809,165.661 54.614,165.661 Z M48.352,151.308 L50.406,151.308 L50.406,153.559 L50.471,153.592 C51.612,151.961 53.179,151.146 55.235,151.146 C59.116,151.146 61.072,153.885 61.072,159.332 C61.072,161.551 60.715,163.345 59.801,165.042 C58.921,166.705 57.191,167.683 54.81,167.683 C52.918,167.683 51.484,166.934 50.471,165.433 L50.406,165.433 L50.406,173.946 L48.352,173.946 L48.352,151.308 L48.352,151.308 Z" id="Fill-373" fill="#676867"></path>
            <path d="M75.102,158.256 C75.069,154.832 73.438,153.038 70.665,153.038 C67.957,153.038 66.261,154.961 66.097,158.256 L75.102,158.256 Z M77.155,159.953 L66.097,159.953 C66,163.378 67.696,165.857 71.089,165.857 C72.459,165.857 73.732,165.4 74.873,164.454 L76.145,165.857 C74.775,167.063 73.111,167.683 71.154,167.683 C69.327,167.683 67.827,167.259 66.359,166.117 C64.924,164.976 64.043,162.693 64.043,159.464 C64.043,156.43 64.924,154.081 66.261,152.874 C67.598,151.667 69.067,151.146 70.73,151.146 C72.654,151.146 74.22,151.798 75.395,153.135 C76.569,154.472 77.155,156.201 77.155,158.355 L77.155,159.953 L77.155,159.953 Z" id="Fill-374" fill="#676867"></path>
            <polygon id="Fill-375" fill="#676867" points="88.086 167.488 93.109 167.488 93.109 144.784 88.086 144.784"></polygon>
        </g>
    </g>
</svg>