<?xml version="1.0" encoding="UTF-8"?>
<svg width="208px" height="182px" viewBox="0 0 208 182" version="1.1" xmlns="http://www.w3.org/2000/svg" xmlns:xlink="http://www.w3.org/1999/xlink">
    <title>plug-type-J</title>
    <g id="Page-1" stroke="none" stroke-width="1" fill="none" fill-rule="evenodd">
        <g id="plug-type-J">
            <g id="Group-2" transform="translate(0.000000, 0.000000)">
                <path d="M21.339,17.35 C10.802,17.35 2.229,25.922 2.229,36.46 L2.229,112.209 C2.229,122.747 10.802,131.32 21.339,131.32 L97.089,131.32 C107.626,131.32 116.199,122.747 116.199,112.209 L116.199,36.46 C116.199,25.922 107.626,17.35 97.089,17.35 L21.339,17.35 Z M97.089,133.547 L21.339,133.547 C9.573,133.547 0,123.975 0,112.209 L0,36.46 C0,24.694 9.573,15.121 21.339,15.121 L97.089,15.121 C108.855,15.121 118.427,24.694 118.427,36.46 L118.427,112.209 C118.427,123.975 108.855,133.547 97.089,133.547 L97.089,133.547 Z" id="Fill-115" fill="#8B8E8D"></path>
                <path d="M21.339,18.711 C11.553,18.711 3.592,26.673 3.592,36.46 L3.592,112.209 C3.592,121.995 11.553,129.958 21.339,129.958 L97.089,129.958 C108.212,129.094 115.523,121.806 114.837,112.235 L114.836,36.46 C114.836,26.673 106.874,18.711 97.089,18.711 L21.339,18.711 Z M21.339,130.7 C11.143,130.7 2.849,122.405 2.849,112.209 L2.849,36.46 C2.849,26.264 11.143,17.969 21.339,17.969 L97.089,17.969 C107.285,17.969 115.579,26.264 115.579,36.46 L115.579,112.209 C116.295,122.187 108.703,129.801 97.118,130.7 L21.339,130.7 L21.339,130.7 Z" id="Fill-116" fill="#8B8E8D"></path>
                <path d="M7.43,103.991 C7.224,103.991 7.06,103.825 7.06,103.62 L7.06,52.378 C7.06,52.172 7.224,52.006 7.43,52.006 C7.635,52.006 7.801,52.172 7.801,52.378 L7.801,103.62 C7.801,103.825 7.635,103.991 7.43,103.991" id="Fill-117" fill="#8B8E8D"></path>
                <path d="M12.698,25.939 C12.59,25.939 12.481,25.891 12.407,25.798 C12.279,25.638 12.308,25.405 12.468,25.276 C15.017,23.25 18.085,22.179 21.339,22.179 L42.134,22.179 C42.339,22.179 42.505,22.345 42.505,22.55 C42.505,22.756 42.339,22.922 42.134,22.922 L21.339,22.922 C18.254,22.922 15.346,23.937 12.93,25.858 C12.861,25.913 12.779,25.939 12.698,25.939" id="Fill-118" fill="#8B8E8D"></path>
                <path d="M91.3,126.564 L21.339,126.564 C18.085,126.564 15.017,125.493 12.468,123.466 C12.308,123.339 12.279,123.105 12.407,122.945 C12.536,122.783 12.769,122.759 12.93,122.885 C15.346,124.806 18.254,125.821 21.339,125.821 L91.3,125.821 C91.505,125.821 91.672,125.988 91.672,126.193 C91.672,126.398 91.505,126.564 91.3,126.564" id="Fill-119" fill="#8B8E8D"></path>
                <path d="M110.998,48.911 C110.793,48.911 110.627,48.745 110.627,48.539 L110.627,36.46 C110.627,28.995 104.553,22.922 97.089,22.922 L83.226,22.922 C83.021,22.922 82.854,22.756 82.854,22.55 C82.854,22.345 83.021,22.179 83.226,22.179 L97.089,22.179 C104.963,22.179 111.369,28.585 111.369,36.46 L111.369,48.539 C111.369,48.745 111.203,48.911 110.998,48.911" id="Fill-120" fill="#8B8E8D"></path>
                <path d="M32.542,56.709 C32.155,56.709 31.796,56.9 31.581,57.221 L20.479,73.7 C20.215,74.089 20.213,74.595 20.471,74.987 L31.589,91.834 C31.804,92.161 32.165,92.356 32.557,92.356 L85.902,92.356 C86.293,92.356 86.653,92.161 86.87,91.835 L97.987,74.987 C98.244,74.595 98.242,74.089 97.98,73.7 L86.878,57.221 C86.662,56.9 86.303,56.709 85.915,56.709 L32.542,56.709 Z M85.902,94.584 L32.557,94.584 C31.414,94.584 30.358,94.015 29.729,93.062 L18.612,76.214 C17.856,75.069 17.863,73.594 18.63,72.456 L29.732,55.977 C30.363,55.04 31.414,54.481 32.542,54.481 L85.915,54.481 C87.044,54.481 88.095,55.04 88.726,55.976 L99.827,72.456 C100.594,73.594 100.602,75.069 99.846,76.214 L88.729,93.062 C88.101,94.015 87.044,94.584 85.902,94.584 L85.902,94.584 Z" id="Fill-121" fill="#8B8E8D"></path>
                <path d="M44.829,70.88 C44.829,73.491 42.713,75.608 40.102,75.608 C37.491,75.608 35.374,73.491 35.374,70.88 C35.374,68.269 37.491,66.152 40.102,66.152 C42.713,66.152 44.829,68.269 44.829,70.88" id="Fill-122" fill="#797C7A"></path>
                <path d="M83.826,70.88 C83.826,73.491 81.711,75.608 79.099,75.608 C76.487,75.608 74.371,73.491 74.371,70.88 C74.371,68.269 76.487,66.152 79.099,66.152 C81.711,66.152 83.826,68.269 83.826,70.88" id="Fill-123" fill="#797C7A"></path>
                <path d="M63.957,82.018 C63.957,84.628 61.84,86.745 59.23,86.745 C56.617,86.745 54.5,84.628 54.5,82.018 C54.5,79.406 56.617,77.29 59.23,77.29 C61.84,77.29 63.957,79.406 63.957,82.018" id="Fill-124" fill="#797C7A"></path>
                <path d="M91.3,68.913 C91.185,68.913 91.071,68.859 90.998,68.758 L84.992,60.37 C84.744,60.022 84.341,59.816 83.913,59.816 L80.517,59.816 C80.312,59.816 80.145,59.649 80.145,59.444 C80.145,59.239 80.312,59.073 80.517,59.073 L83.913,59.073 C84.58,59.073 85.208,59.396 85.595,59.937 L91.601,68.325 C91.722,68.492 91.683,68.724 91.516,68.844 C91.45,68.89 91.375,68.913 91.3,68.913" id="Fill-125" fill="#8B8E8D"></path>
                <path d="M35.211,89.882 C35.091,89.882 34.972,89.823 34.902,89.715 L29.222,81.102 C29.11,80.931 29.155,80.7 29.326,80.587 C29.498,80.475 29.729,80.521 29.842,80.693 L35.521,89.306 C35.634,89.478 35.586,89.708 35.415,89.821 C35.353,89.862 35.281,89.882 35.211,89.882" id="Fill-126" fill="#8B8E8D"></path>
                <polyline id="Fill-127" fill="#8B8E8D" points="178.965 140.895 176.737 140.895 176.737 108.017 169.393 108.017 169.393 140.895 167.164 140.895 167.164 105.789 178.965 105.789 178.965 140.895"></polyline>
                <path d="M165.316,93.185 L165.316,103.576 C165.316,104.796 166.308,105.789 167.527,105.789 L178.603,105.789 C179.822,105.789 180.816,104.796 180.816,103.576 L180.816,93.185 L165.316,93.185 Z M178.603,108.017 L167.527,108.017 C165.078,108.017 163.086,106.024 163.086,103.576 L163.086,90.956 L183.043,90.956 L183.043,103.576 C183.043,106.024 181.051,108.017 178.603,108.017 L178.603,108.017 Z" id="Fill-128" fill="#8B8E8D"></path>
                <path d="M183.661,64.901 L162.226,64.901 C162.021,64.901 161.856,64.735 161.856,64.529 C161.856,64.324 162.021,64.159 162.226,64.159 L183.661,64.159 C183.867,64.159 184.033,64.324 184.033,64.529 C184.033,64.735 183.867,64.901 183.661,64.901" id="Fill-129" fill="#8B8E8D"></path>
                <path d="M182.835,69.004 L163.054,69.004 C162.848,69.004 162.683,68.839 162.683,68.633 C162.683,68.429 162.848,68.262 163.054,68.262 L182.835,68.262 C183.04,68.262 183.206,68.429 183.206,68.633 C183.206,68.839 183.04,69.004 182.835,69.004" id="Fill-130" fill="#8B8E8D"></path>
                <path d="M182.835,73.109 L163.054,73.109 C162.848,73.109 162.683,72.942 162.683,72.737 C162.683,72.532 162.848,72.366 163.054,72.366 L182.835,72.366 C183.04,72.366 183.206,72.532 183.206,72.737 C183.206,72.942 183.04,73.109 182.835,73.109" id="Fill-131" fill="#8B8E8D"></path>
                <path d="M155.366,30.06 L159.456,30.06 L159.456,4.272 C159.456,3.145 158.541,2.228 157.414,2.228 C156.284,2.228 155.366,3.145 155.366,4.272 L155.366,30.06 Z M161.686,32.288 L153.139,32.288 L153.139,4.272 C153.139,1.916 155.055,-1.42108547e-14 157.41,-1.42108547e-14 C159.77,-1.42108547e-14 161.686,1.916 161.686,4.272 L161.686,32.288 L161.686,32.288 Z" id="Fill-132" fill="#8B8E8D"></path>
                <path d="M186.431,30.06 L190.518,30.06 L190.518,4.272 C190.518,3.145 189.602,2.228 188.475,2.228 C187.347,2.228 186.431,3.145 186.431,4.272 L186.431,30.06 Z M192.745,32.288 L184.202,32.288 L184.202,4.272 C184.202,1.916 186.118,-1.42108547e-14 188.475,-1.42108547e-14 C190.829,-1.42108547e-14 192.745,1.916 192.745,4.272 L192.745,32.288 L192.745,32.288 Z" id="Fill-133" fill="#8B8E8D"></path>
                <path d="M156.384,28.944 C156.178,28.944 156.012,28.778 156.012,28.573 L156.012,3.602 C156.012,3.396 156.178,3.23 156.384,3.23 C156.589,3.23 156.754,3.396 156.754,3.602 L156.754,28.573 C156.754,28.778 156.589,28.944 156.384,28.944" id="Fill-134" fill="#8B8E8D"></path>
                <path d="M171.019,30.06 L175.11,30.06 L175.11,4.272 C175.11,3.145 174.194,2.228 173.067,2.228 C171.937,2.228 171.019,3.145 171.019,4.272 L171.019,30.06 Z M177.338,32.288 L168.791,32.288 L168.791,4.272 C168.791,1.916 170.707,-1.42108547e-14 173.063,-1.42108547e-14 C175.422,-1.42108547e-14 177.338,1.916 177.338,4.272 L177.338,32.288 L177.338,32.288 Z" id="Fill-135" fill="#8B8E8D"></path>
                <path d="M172.035,28.944 C171.829,28.944 171.663,28.778 171.663,28.573 L171.663,3.602 C171.663,3.396 171.829,3.23 172.035,3.23 C172.24,3.23 172.406,3.396 172.406,3.602 L172.406,28.573 C172.406,28.778 172.24,28.944 172.035,28.944" id="Fill-136" fill="#8B8E8D"></path>
                <path d="M187.368,28.944 C187.163,28.944 186.997,28.778 186.997,28.573 L186.997,3.602 C186.997,3.396 187.163,3.23 187.368,3.23 C187.574,3.23 187.739,3.396 187.739,3.602 L187.739,28.573 C187.739,28.778 187.574,28.944 187.368,28.944" id="Fill-137" fill="#8B8E8D"></path>
                <path d="M140.982,47.102 L204.902,47.102 L204.902,38.63 C204.902,35.133 202.059,32.288 198.561,32.288 L147.324,32.288 C143.827,32.288 140.982,35.133 140.982,38.63 L140.982,47.102 Z M206.018,49.33 L139.867,49.33 C139.252,49.33 138.753,48.831 138.753,48.215 L138.753,38.63 C138.753,33.905 142.599,30.06 147.324,30.06 L198.561,30.06 C203.286,30.06 207.132,33.905 207.132,38.63 L207.132,48.215 C207.132,48.831 206.633,49.33 206.018,49.33 L206.018,49.33 Z" id="Fill-138" fill="#8B8E8D"></path>
                <path d="M141.425,49.33 L154.325,87.078 C155.118,89.397 157.446,90.956 160.117,90.956 L185.767,90.956 C188.439,90.956 190.767,89.397 191.559,87.078 L204.459,49.33 L141.425,49.33 Z M185.767,93.185 L160.117,93.185 C156.493,93.185 153.319,91.02 152.217,87.798 L138.814,48.576 C138.697,48.235 138.752,47.86 138.962,47.567 C139.171,47.275 139.508,47.102 139.867,47.102 L206.018,47.102 C206.377,47.102 206.715,47.275 206.924,47.567 C207.134,47.86 207.188,48.235 207.071,48.576 L193.667,87.798 C192.567,91.02 189.392,93.185 185.767,93.185 L185.767,93.185 Z" id="Fill-139" fill="#8B8E8D"></path>
                <path d="M155.596,75.494 C155.431,75.494 155.281,75.385 155.237,75.22 L152.552,65.259 C152.499,65.061 152.615,64.857 152.814,64.804 C153.01,64.75 153.215,64.868 153.269,65.065 L155.954,75.026 C156.007,75.224 155.89,75.428 155.693,75.481 C155.66,75.491 155.628,75.494 155.596,75.494" id="Fill-140" fill="#8B8E8D"></path>
                <path d="M191.588,75.494 C191.556,75.494 191.523,75.491 191.491,75.481 C191.293,75.428 191.176,75.224 191.23,75.026 L193.915,65.065 C193.968,64.868 194.176,64.75 194.37,64.804 C194.569,64.857 194.686,65.061 194.632,65.259 L191.945,75.22 C191.902,75.385 191.752,75.494 191.588,75.494" id="Fill-141" fill="#8B8E8D"></path>
                <path d="M200.954,44.603 C200.749,44.603 200.582,44.436 200.582,44.231 L200.582,40.704 C200.582,38.669 198.927,37.015 196.892,37.015 L192.846,37.015 C192.641,37.015 192.474,36.848 192.474,36.643 C192.474,36.437 192.641,36.272 192.846,36.272 L196.892,36.272 C199.336,36.272 201.324,38.26 201.324,40.704 L201.324,44.231 C201.324,44.436 201.158,44.603 200.954,44.603" id="Fill-142" fill="#8B8E8D"></path>
                <path d="M28.597,174.596 L26.868,174.596 C24.553,174.596 23.313,173.259 23.313,170.812 L23.313,160.178 L21.258,160.178 L21.258,158.417 L23.313,158.417 L23.313,154.274 L25.401,154.274 L25.401,158.417 L28.14,158.417 L28.14,160.178 L25.401,160.178 L25.401,170.421 C25.401,171.856 25.824,172.737 27.391,172.737 L28.597,172.737 L28.597,174.596" id="Fill-143" fill="#676867"></path>
                <path d="M36.232,178.119 C35.514,180.108 34.176,181.12 32.219,181.12 L31.144,181.12 L31.144,179.294 L32.187,179.294 C33.295,179.294 34.078,178.608 34.502,177.238 L35.382,174.531 L29.413,158.449 L31.697,158.449 L34.339,165.919 L36.361,171.889 L36.46,171.889 L38.548,165.756 L41.059,158.449 L43.211,158.449 L36.232,178.119" id="Fill-144" fill="#676867"></path>
                <path d="M51.466,172.77 C54.336,172.77 55.772,170.682 55.772,166.539 C55.772,164.843 55.642,163.799 55.119,162.396 C54.63,160.994 53.455,160.211 51.629,160.211 C49.9,160.211 48.661,161.091 48.041,162.429 C47.486,163.767 47.258,165.038 47.258,166.507 C47.258,170.682 48.661,172.77 51.466,172.77 Z M45.203,158.417 L47.258,158.417 L47.258,160.667 L47.324,160.7 C48.466,159.069 50.03,158.254 52.086,158.254 C55.967,158.254 57.925,160.994 57.925,166.441 C57.925,168.659 57.566,170.454 56.652,172.15 C55.772,173.813 54.044,174.792 51.661,174.792 C49.77,174.792 48.334,174.042 47.324,172.541 L47.258,172.541 L47.258,181.055 L45.203,181.055 L45.203,158.417 L45.203,158.417 Z" id="Fill-145" fill="#676867"></path>
                <path d="M71.952,165.365 C71.919,161.94 70.288,160.146 67.516,160.146 C64.809,160.146 63.112,162.07 62.95,165.365 L71.952,165.365 Z M74.008,167.061 L62.95,167.061 C62.852,170.486 64.548,172.965 67.94,172.965 C69.311,172.965 70.582,172.508 71.724,171.562 L72.997,172.965 C71.626,174.172 69.963,174.792 68.005,174.792 C66.179,174.792 64.679,174.368 63.21,173.227 C61.776,172.084 60.895,169.801 60.895,166.572 C60.895,163.538 61.776,161.189 63.112,159.983 C64.45,158.775 65.918,158.254 67.582,158.254 C69.507,158.254 71.072,158.906 72.246,160.244 C73.42,161.581 74.008,163.31 74.008,165.462 L74.008,167.061 L74.008,167.061 Z" id="Fill-146" fill="#676867"></path>
            </g>
            <path d="M97.17,167.256 C97.17,169.932 96.452,171.856 95.05,173.03 C93.647,174.172 91.787,174.759 89.537,174.759 C86.405,174.759 84.121,173.748 82.653,171.726 L86.014,168.431 C87.09,169.605 88.167,170.192 89.243,170.192 C90.809,170.192 92.211,169.41 92.211,167.028 L92.211,151.893 L97.17,151.893 L97.17,167.256" id="Fill-147" fill="#676867"></path>
        </g>
    </g>
</svg>