<?xml version="1.0" encoding="UTF-8"?>
<svg width="218px" height="174px" viewBox="0 0 218 174" version="1.1" xmlns="http://www.w3.org/2000/svg" xmlns:xlink="http://www.w3.org/1999/xlink">
    <title>plug-type-K</title>
    <g id="Page-1" stroke="none" stroke-width="1" fill="none" fill-rule="evenodd">
        <g id="plug-type-K" transform="translate(0.000000, 0.000000)">
            <g id="Group-2" transform="translate(0.000000, 0.000000)">
                <path d="M21.339,7.009 C10.802,7.009 2.229,15.582 2.229,26.119 L2.229,101.868 C2.229,112.406 10.802,120.98 21.339,120.98 L97.089,120.98 C107.626,120.98 116.199,112.406 116.199,101.868 L116.199,26.119 C116.199,15.582 107.626,7.009 97.089,7.009 L21.339,7.009 Z M97.089,123.208 L21.339,123.208 C9.573,123.208 0,113.636 0,101.868 L0,26.119 C0,14.354 9.573,4.781 21.339,4.781 L97.089,4.781 C108.855,4.781 118.427,14.354 118.427,26.119 L118.427,101.868 C118.427,113.636 108.855,123.208 97.089,123.208 L97.089,123.208 Z" id="Fill-247" fill="#8B8E8D"></path>
                <path d="M21.317,8.371 C11.531,8.371 3.569,16.334 3.569,26.119 L3.569,101.868 C3.569,111.655 11.531,119.617 21.317,119.617 L97.067,119.617 C108.191,118.754 115.501,111.465 114.815,101.896 L114.815,26.119 C114.815,16.334 106.853,8.371 97.067,8.371 L21.317,8.371 Z M21.317,120.359 C11.121,120.359 2.826,112.064 2.826,101.868 L2.826,26.119 C2.826,15.924 11.121,7.629 21.317,7.629 L97.067,7.629 C107.263,7.629 115.558,15.924 115.558,26.119 L115.558,101.868 C116.273,111.847 108.681,119.46 97.095,120.357 L21.317,120.359 L21.317,120.359 Z" id="Fill-248" fill="#8B8E8D"></path>
                <path d="M7.43,93.65 C7.224,93.65 7.06,93.484 7.06,93.279 L7.06,42.037 C7.06,41.832 7.224,41.666 7.43,41.666 C7.635,41.666 7.801,41.832 7.801,42.037 L7.801,93.279 C7.801,93.484 7.635,93.65 7.43,93.65" id="Fill-249" fill="#8B8E8D"></path>
                <path d="M12.698,15.599 C12.59,15.599 12.481,15.551 12.407,15.459 C12.279,15.298 12.308,15.064 12.468,14.937 C15.016,12.91 18.085,11.839 21.339,11.839 L42.134,11.839 C42.339,11.839 42.505,12.005 42.505,12.21 C42.505,12.415 42.339,12.582 42.134,12.582 L21.339,12.582 C18.253,12.582 15.345,13.597 12.93,15.519 C12.861,15.571 12.779,15.599 12.698,15.599" id="Fill-250" fill="#8B8E8D"></path>
                <path d="M91.3,116.223 L21.339,116.223 C18.085,116.223 15.017,115.152 12.468,113.126 C12.308,112.998 12.279,112.764 12.407,112.604 C12.536,112.442 12.769,112.418 12.93,112.544 C15.346,114.466 18.254,115.48 21.339,115.48 L91.3,115.48 C91.505,115.48 91.672,115.647 91.672,115.852 C91.672,116.057 91.505,116.223 91.3,116.223" id="Fill-251" fill="#8B8E8D"></path>
                <path d="M110.998,38.57 C110.793,38.57 110.627,38.404 110.627,38.199 L110.627,26.119 C110.627,18.655 104.553,12.582 97.089,12.582 L83.226,12.582 C83.021,12.582 82.854,12.415 82.854,12.21 C82.854,12.005 83.021,11.839 83.226,11.839 L97.089,11.839 C104.963,11.839 111.369,18.245 111.369,26.119 L111.369,38.199 C111.369,38.404 111.203,38.57 110.998,38.57" id="Fill-252" fill="#8B8E8D"></path>
                <path d="M59.214,28.31 C39.537,28.31 23.529,44.318 23.529,63.994 C23.529,83.671 39.537,99.678 59.214,99.678 C78.891,99.678 94.898,83.671 94.898,63.994 C94.898,44.318 78.891,28.31 59.214,28.31 Z M59.214,101.905 C38.309,101.905 21.302,84.899 21.302,63.994 C21.302,43.09 38.309,26.082 59.214,26.082 C80.119,26.082 97.127,43.09 97.127,63.994 C97.127,84.899 80.119,101.905 59.214,101.905 L59.214,101.905 Z" id="Fill-253" fill="#8B8E8D"></path>
                <path d="M91.106,57.646 C90.933,57.646 90.779,57.526 90.742,57.35 C88.143,45 78.499,35.26 66.174,32.535 C65.974,32.491 65.849,32.292 65.893,32.092 C65.937,31.893 66.129,31.766 66.335,31.81 C78.944,34.598 88.81,44.563 91.469,57.197 C91.511,57.397 91.382,57.595 91.182,57.637 C91.156,57.643 91.13,57.646 91.106,57.646" id="Fill-254" fill="#8B8E8D"></path>
                <path d="M88.292,61.461 C88.103,61.461 87.941,61.318 87.923,61.127 C87.241,53.981 85.405,50.757 80.237,44.69 C80.104,44.534 80.123,44.3 80.278,44.167 C80.434,44.034 80.668,44.052 80.803,44.21 C86.085,50.408 87.961,53.712 88.662,61.054 C88.682,61.259 88.531,61.44 88.328,61.459 C88.316,61.46 88.304,61.461 88.292,61.461" id="Fill-255" fill="#8B8E8D"></path>
                <path d="M64.585,82.808 C64.585,79.84 62.181,77.435 59.214,77.435 C56.247,77.435 53.842,79.84 53.842,82.808 C53.842,85.774 56.247,88.18 59.214,88.18 C62.181,88.18 64.585,85.774 64.585,82.808" id="Fill-256" fill="#797C7A"></path>
                <path d="M47.043,63.758 C47.043,61.146 44.927,59.029 42.315,59.029 C39.704,59.029 37.587,61.146 37.587,63.758 C37.587,66.369 39.704,68.486 42.315,68.486 C44.927,68.486 47.043,66.369 47.043,63.758" id="Fill-257" fill="#797C7A"></path>
                <path d="M80.841,63.758 C80.841,61.146 78.725,59.029 76.112,59.029 C73.502,59.029 71.385,61.146 71.385,63.758 C71.385,66.369 73.502,68.486 76.112,68.486 C78.725,68.486 80.841,66.369 80.841,63.758" id="Fill-258" fill="#797C7A"></path>
                <path d="M154.372,29.663 C154.167,29.663 154.002,29.496 154.002,29.291 L154.002,4.319 C154.002,4.114 154.167,3.948 154.372,3.948 C154.578,3.948 154.744,4.114 154.744,4.319 L154.744,29.291 C154.744,29.496 154.578,29.663 154.372,29.663" id="Fill-259" fill="#8B8E8D"></path>
                <path d="M170.397,29.663 C170.192,29.663 170.026,29.496 170.026,29.291 L170.026,4.319 C170.026,4.114 170.192,3.948 170.397,3.948 C170.602,3.948 170.768,4.114 170.768,4.319 L170.768,29.291 C170.768,29.496 170.602,29.663 170.397,29.663" id="Fill-260" fill="#8B8E8D"></path>
                <path d="M189.89,29.663 C189.685,29.663 189.521,29.496 189.521,29.291 L189.521,4.319 C189.521,4.114 189.685,3.948 189.89,3.948 C190.096,3.948 190.262,4.114 190.262,4.319 L190.262,29.291 C190.262,29.496 190.096,29.663 189.89,29.663" id="Fill-261" fill="#8B8E8D"></path>
                <path d="M169.249,29.976 L176.591,29.976 L176.591,5.898 C176.591,3.875 174.944,2.229 172.921,2.229 C170.896,2.229 169.249,3.875 169.249,5.898 L169.249,29.976 Z M178.819,32.205 L167.022,32.205 L167.022,5.898 C167.022,2.646 169.667,5.68434189e-14 172.921,5.68434189e-14 C176.174,5.68434189e-14 178.819,2.646 178.819,5.898 L178.819,32.205 L178.819,32.205 Z" id="Fill-262" fill="#8B8E8D"></path>
                <path d="M182.81,65.271 L163.028,65.271 C162.823,65.271 162.657,65.105 162.657,64.898 C162.657,64.694 162.823,64.528 163.028,64.528 L182.81,64.528 C183.014,64.528 183.18,64.694 183.18,64.898 C183.18,65.105 183.014,65.271 182.81,65.271" id="Fill-263" fill="#8B8E8D"></path>
                <path d="M182.81,69.374 L163.028,69.374 C162.823,69.374 162.657,69.208 162.657,69.003 C162.657,68.797 162.823,68.632 163.028,68.632 L182.81,68.632 C183.014,68.632 183.18,68.797 183.18,69.003 C183.18,69.208 183.014,69.374 182.81,69.374" id="Fill-264" fill="#8B8E8D"></path>
                <path d="M182.81,73.478 L163.028,73.478 C162.823,73.478 162.657,73.313 162.657,73.106 C162.657,72.901 162.823,72.735 163.028,72.735 L182.81,72.735 C183.014,72.735 183.18,72.901 183.18,73.106 C183.18,73.313 183.014,73.478 182.81,73.478" id="Fill-265" fill="#8B8E8D"></path>
                <path d="M206.462,42.613 C206.263,42.613 206.098,42.454 206.091,42.254 L205.943,37.428 C205.969,37.169 205.909,36.971 205.773,36.816 C205.637,36.664 205.45,36.579 205.244,36.579 L200.522,36.579 C200.317,36.579 200.15,36.412 200.15,36.208 C200.15,36.002 200.317,35.836 200.522,35.836 L205.244,35.836 C205.66,35.836 206.055,36.016 206.329,36.324 C206.606,36.636 206.733,37.05 206.683,37.462 L206.834,42.23 C206.84,42.436 206.679,42.606 206.475,42.613 C206.47,42.613 206.466,42.613 206.462,42.613" id="Fill-266" fill="#8B8E8D"></path>
                <polyline id="Fill-267" fill="#8B8E8D" points="178.819 133.194 176.591 133.194 176.591 100.315 169.246 100.315 169.246 133.194 167.018 133.194 167.018 98.087 178.819 98.087 178.819 133.194"></polyline>
                <path d="M165.169,85.482 L165.169,95.874 C165.169,97.095 166.161,98.087 167.381,98.087 L178.456,98.087 C179.677,98.087 180.668,97.095 180.668,95.874 L180.668,85.482 L165.169,85.482 Z M178.456,100.315 L167.381,100.315 C164.933,100.315 162.941,98.323 162.941,95.874 L162.941,83.255 L182.896,83.255 L182.896,95.874 C182.896,98.323 180.904,100.315 178.456,100.315 L178.456,100.315 Z" id="Fill-268" fill="#8B8E8D"></path>
                <path d="M153.071,30.06 L157.161,30.06 L157.161,4.271 C157.161,3.145 156.245,2.229 155.118,2.229 C153.987,2.229 153.071,3.145 153.071,4.271 L153.071,30.06 Z M159.39,32.288 L150.843,32.288 L150.843,4.271 C150.843,1.916 152.759,0 155.114,0 C157.474,0 159.39,1.916 159.39,4.271 L159.39,32.288 L159.39,32.288 Z" id="Fill-269" fill="#8B8E8D"></path>
                <path d="M188.591,30.06 L192.679,30.06 L192.679,4.271 C192.679,3.145 191.762,2.229 190.635,2.229 C189.508,2.229 188.591,3.145 188.591,4.271 L188.591,30.06 Z M194.906,32.288 L186.362,32.288 L186.362,4.271 C186.362,1.916 188.279,0 190.635,0 C192.99,0 194.906,1.916 194.906,4.271 L194.906,32.288 L194.906,32.288 Z" id="Fill-270" fill="#8B8E8D"></path>
                <path d="M139.528,56.492 C141.111,59.268 144.065,64.912 144.891,69.684 L144.931,69.917 C146.229,77.644 152.81,83.255 160.579,83.255 L185.262,83.255 C193.029,83.255 199.61,77.645 200.91,69.913 L200.947,69.693 C201.651,65.631 203.881,61.638 205.508,58.723 C205.915,57.992 206.38,57.158 206.712,56.492 L139.528,56.492 Z M185.262,85.482 L160.579,85.482 C151.717,85.482 144.211,79.09 142.734,70.282 L142.696,70.065 C141.649,64.016 136.68,56.05 136.63,55.97 L135.56,54.264 L209.38,54.264 L209.38,55.377 C209.38,56.313 208.755,57.477 207.452,59.809 C205.903,62.584 203.781,66.386 203.144,70.07 L203.109,70.283 C201.627,79.09 194.121,85.482 185.262,85.482 L185.262,85.482 Z" id="Fill-271" fill="#8B8E8D"></path>
                <path d="M135.718,46.46 L210.123,46.46 L210.123,32.333 L135.718,32.333 L135.718,46.46 Z M133.489,48.688 L212.35,48.688 L212.35,30.105 L133.489,30.105 L133.489,48.688 Z" id="Fill-272" fill="#8B8E8D"></path>
                <path d="M131.015,54.264 L214.825,54.264 L214.825,53.509 C214.825,50.85 212.664,48.688 210.007,48.688 L135.833,48.688 C133.177,48.688 131.015,50.85 131.015,53.509 L131.015,54.264 Z M217.054,56.492 L128.786,56.492 L128.786,53.509 C128.786,49.621 131.948,46.46 135.833,46.46 L210.007,46.46 C213.893,46.46 217.054,49.621 217.054,53.509 L217.054,56.492 L217.054,56.492 Z" id="Fill-273" fill="#8B8E8D"></path>
                <path d="M24.863,167.038 L23.134,167.038 C20.819,167.038 19.579,165.701 19.579,163.255 L19.579,152.62 L17.524,152.62 L17.524,150.859 L19.579,150.859 L19.579,146.717 L21.667,146.717 L21.667,150.859 L24.406,150.859 L24.406,152.62 L21.667,152.62 L21.667,162.863 C21.667,164.299 22.09,165.179 23.657,165.179 L24.863,165.179 L24.863,167.038" id="Fill-274" fill="#676867"></path>
                <path d="M32.497,170.562 C31.78,172.551 30.443,173.563 28.485,173.563 L27.409,173.563 L27.409,171.736 L28.453,171.736 C29.561,171.736 30.345,171.051 30.769,169.681 L31.649,166.974 L25.68,150.892 L27.963,150.892 L30.606,158.362 L32.628,164.331 L32.727,164.331 L34.814,158.198 L37.325,150.892 L39.478,150.892 L32.497,170.562" id="Fill-275" fill="#676867"></path>
                <path d="M47.733,165.211 C50.603,165.211 52.038,163.124 52.038,158.981 C52.038,157.285 51.907,156.242 51.386,154.839 C50.897,153.437 49.722,152.653 47.896,152.653 C46.166,152.653 44.928,153.533 44.308,154.871 C43.753,156.208 43.525,157.48 43.525,158.948 C43.525,163.124 44.928,165.211 47.733,165.211 Z M41.47,150.859 L43.525,150.859 L43.525,153.11 L43.59,153.143 C44.732,151.512 46.297,150.696 48.353,150.696 C52.234,150.696 54.192,153.437 54.192,158.884 C54.192,161.102 53.832,162.896 52.918,164.592 C52.038,166.257 50.309,167.233 47.928,167.233 C46.036,167.233 44.601,166.484 43.59,164.983 L43.525,164.983 L43.525,173.497 L41.47,173.497 L41.47,150.859 L41.47,150.859 Z" id="Fill-276" fill="#676867"></path>
                <path d="M68.219,157.807 C68.186,154.382 66.555,152.588 63.782,152.588 C61.075,152.588 59.378,154.512 59.216,157.807 L68.219,157.807 Z M70.274,159.503 L59.216,159.503 C59.118,162.928 60.814,165.407 64.206,165.407 C65.577,165.407 66.849,164.951 67.99,164.005 L69.263,165.407 C67.893,166.614 66.23,167.233 64.272,167.233 C62.445,167.233 60.945,166.81 59.477,165.668 C58.041,164.526 57.161,162.243 57.161,159.015 C57.161,155.98 58.041,153.632 59.378,152.425 C60.717,151.218 62.185,150.696 63.849,150.696 C65.773,150.696 67.338,151.349 68.513,152.686 C69.687,154.022 70.274,155.753 70.274,157.905 L70.274,159.503 L70.274,159.503 Z" id="Fill-277" fill="#676867"></path>
            </g>
            <polyline id="Fill-278" fill="#676867" points="100.906 167.038 94.969 167.038 89.097 157.384 86.129 160.711 86.129 167.038 81.106 167.038 81.106 144.335 86.129 144.335 86.129 154.056 86.194 154.121 89.652 149.913 94.382 144.335 100.449 144.335 92.49 153.533 100.906 167.038"></polyline>
        </g>
    </g>
</svg>