<?xml version="1.0" encoding="UTF-8"?>
<svg width="206px" height="182px" viewBox="0 0 206 182" version="1.1" xmlns="http://www.w3.org/2000/svg" xmlns:xlink="http://www.w3.org/1999/xlink">
    <title>plug-type-L</title>
    <g id="Page-1" stroke="none" stroke-width="1" fill="none" fill-rule="evenodd">
        <g id="plug-type-L" transform="translate(-0.000000, -0.000000)">
            <path d="M21.339,17.114 C10.802,17.114 2.229,25.687 2.229,36.224 L2.229,111.974 C2.229,122.512 10.802,131.085 21.339,131.085 L97.089,131.085 C107.626,131.085 116.199,122.512 116.199,111.974 L116.199,36.224 C116.199,25.687 107.626,17.114 97.089,17.114 L21.339,17.114 Z M97.089,133.312 L21.339,133.312 C9.573,133.312 -1.13686838e-13,123.74 -1.13686838e-13,111.974 L-1.13686838e-13,36.224 C-1.13686838e-13,24.459 9.573,14.885 21.339,14.885 L97.089,14.885 C108.855,14.885 118.427,24.459 118.427,36.224 L118.427,111.974 C118.427,123.74 108.855,133.312 97.089,133.312 L97.089,133.312 Z" id="Fill-404" fill="#8B8E8D"></path>
            <path d="M21.317,18.476 C11.531,18.476 3.568,26.438 3.568,36.224 L3.568,111.974 C3.568,121.759 11.531,129.722 21.317,129.722 L97.067,129.722 C108.191,128.859 115.501,121.571 114.815,112.001 L114.815,36.224 C114.815,26.438 106.853,18.476 97.067,18.476 L21.317,18.476 Z M21.317,130.465 C11.121,130.465 2.826,122.171 2.826,111.974 L2.826,36.224 C2.826,26.028 11.121,17.733 21.317,17.733 L97.067,17.733 C107.263,17.733 115.558,26.028 115.558,36.224 L115.558,111.974 C116.273,121.953 108.681,129.565 97.095,130.463 L21.317,130.465 L21.317,130.465 Z" id="Fill-405" fill="#8B8E8D"></path>
            <path d="M7.43,103.756 C7.224,103.756 7.06,103.59 7.06,103.384 L7.06,52.142 C7.06,51.937 7.224,51.771 7.43,51.771 C7.635,51.771 7.801,51.937 7.801,52.142 L7.801,103.384 C7.801,103.59 7.635,103.756 7.43,103.756" id="Fill-406" fill="#8B8E8D"></path>
            <path d="M12.698,25.704 C12.59,25.704 12.481,25.656 12.407,25.564 C12.279,25.403 12.308,25.169 12.468,25.043 C15.016,23.014 18.085,21.945 21.339,21.945 L42.133,21.945 C42.338,21.945 42.505,22.11 42.505,22.315 C42.505,22.521 42.338,22.687 42.133,22.687 L21.339,22.687 C18.253,22.687 15.345,23.703 12.93,25.623 C12.861,25.677 12.779,25.704 12.698,25.704" id="Fill-407" fill="#8B8E8D"></path>
            <path d="M91.3,126.328 L21.339,126.328 C18.085,126.328 15.016,125.257 12.468,123.23 C12.308,123.103 12.279,122.87 12.407,122.709 C12.536,122.548 12.769,122.523 12.93,122.649 C15.345,124.57 18.253,125.586 21.339,125.586 L91.3,125.586 C91.505,125.586 91.672,125.752 91.672,125.958 C91.672,126.163 91.505,126.328 91.3,126.328" id="Fill-408" fill="#8B8E8D"></path>
            <path d="M110.998,48.675 C110.793,48.675 110.627,48.509 110.627,48.304 L110.627,36.224 C110.627,28.759 104.553,22.687 97.089,22.687 L83.226,22.687 C83.021,22.687 82.854,22.521 82.854,22.315 C82.854,22.11 83.021,21.945 83.226,21.945 L97.089,21.945 C104.963,21.945 111.369,28.349 111.369,36.224 L111.369,48.304 C111.369,48.509 111.203,48.675 110.998,48.675" id="Fill-409" fill="#8B8E8D"></path>
            <path d="M26.418,56.474 C22.389,56.474 19.111,59.751 19.111,63.779 L19.111,84.813 C19.111,88.841 22.389,92.121 26.418,92.121 L92.009,92.121 C96.038,92.121 99.318,88.841 99.318,84.813 L99.318,63.779 C99.318,59.751 96.038,56.474 92.009,56.474 L26.418,56.474 Z M92.009,94.348 L26.418,94.348 C21.16,94.348 16.883,90.071 16.883,84.813 L16.883,63.779 C16.883,58.523 21.16,54.246 26.418,54.246 L92.009,54.246 C97.267,54.246 101.544,58.523 101.544,63.779 L101.544,84.813 C101.544,90.071 97.267,94.348 92.009,94.348 L92.009,94.348 Z" id="Fill-410" fill="#8B8E8D"></path>
            <path d="M93.412,68.252 C93.207,68.252 93.041,68.087 93.041,67.881 C93.041,63.998 89.506,63.886 89.356,63.883 C89.152,63.879 88.987,63.711 88.991,63.506 C88.995,63.302 89.159,63.139 89.362,63.139 C89.363,63.139 89.365,63.139 89.366,63.139 C89.411,63.14 93.784,63.257 93.784,67.881 C93.784,68.087 93.617,68.252 93.412,68.252" id="Fill-411" fill="#8B8E8D"></path>
            <path d="M29.877,89.37 C28.591,89.37 25.548,89.164 23.603,87.356 C22.478,86.312 21.907,84.9 21.907,83.166 C21.907,82.96 22.073,82.794 22.278,82.794 C22.484,82.794 22.65,82.96 22.65,83.166 C22.65,84.685 23.14,85.912 24.107,86.811 C26.33,88.881 30.378,88.616 30.42,88.612 C30.624,88.585 30.802,88.753 30.819,88.956 C30.833,89.16 30.679,89.338 30.475,89.353 C30.437,89.356 30.219,89.37 29.877,89.37" id="Fill-412" fill="#8B8E8D"></path>
            <path d="M96.15,66.111 C95.944,66.111 95.778,65.944 95.778,65.739 C95.778,64.219 95.288,62.992 94.319,62.092 C92.089,60.019 88.048,60.288 88.007,60.293 C87.827,60.314 87.624,60.154 87.61,59.95 C87.596,59.745 87.749,59.567 87.953,59.551 C88.134,59.542 92.362,59.258 94.825,61.548 C95.95,62.593 96.521,64.004 96.521,65.739 C96.521,65.944 96.356,66.111 96.15,66.111" id="Fill-413" fill="#8B8E8D"></path>
            <path d="M28.388,86.008 C28.386,86.008 28.384,86.008 28.382,86.008 C28.339,86.007 23.967,85.891 23.967,81.267 C23.967,81.063 24.132,80.896 24.337,80.896 C24.543,80.896 24.709,81.063 24.709,81.267 C24.709,85.151 28.244,85.262 28.395,85.266 C28.6,85.269 28.762,85.438 28.759041,85.644 C28.756,85.845 28.59,86.008 28.388,86.008" id="Fill-414" fill="#8B8E8D"></path>
            <path d="M42.413,74.642 C42.413,77.254 40.297,79.37 37.685,79.37 C35.074,79.37 32.957,77.254 32.957,74.642 C32.957,72.032 35.074,69.915 37.685,69.915 C40.297,69.915 42.413,72.032 42.413,74.642" id="Fill-415" fill="#797C7A"></path>
            <path d="M63.942,74.642 C63.942,77.254 61.824,79.37 59.214,79.37 C56.603,79.37 54.486,77.254 54.486,74.642 C54.486,72.032 56.603,69.915 59.214,69.915 C61.824,69.915 63.942,72.032 63.942,74.642" id="Fill-416" fill="#797C7A"></path>
            <path d="M85.471,74.642 C85.471,77.254 83.354,79.37 80.742,79.37 C78.132,79.37 76.015,77.254 76.015,74.642 C76.015,72.032 78.132,69.915 80.742,69.915 C83.354,69.915 85.471,72.032 85.471,74.642" id="Fill-417" fill="#797C7A"></path>
            <polygon id="Fill-418" fill="#8B8E8D" points="154.522 31.173 160.841 31.173 160.841 16.144 154.522 16.144"></polygon>
            <polygon id="Fill-419" fill="#8B8E8D" points="185.583 31.173 191.902 31.173 191.902 16.144 185.583 16.144"></polygon>
            <polyline id="Fill-420" fill="#8B8E8D" points="179.233 140.895 177.005 140.895 177.005 108.016 169.661 108.016 169.661 140.895 167.432 140.895 167.432 105.789 179.233 105.789 179.233 140.895"></polyline>
            <path d="M165.583,93.184 L165.583,103.576 C165.583,104.797 166.575,105.789 167.796,105.789 L178.87,105.789 C180.09,105.789 181.083,104.797 181.083,103.576 L181.083,93.184 L165.583,93.184 Z M178.87,108.016 L167.796,108.016 C165.348,108.016 163.355,106.025 163.355,103.576 L163.355,90.955 L183.312,90.955 L183.312,103.576 C183.312,106.025 181.319,108.016 178.87,108.016 L178.87,108.016 Z" id="Fill-421" fill="#8B8E8D"></path>
            <path d="M183.93,55.577 L162.494,55.577 C162.29,55.577 162.123,55.411 162.123,55.205 C162.123,55 162.29,54.835 162.494,54.835 L183.93,54.835 C184.136,54.835 184.302,55 184.302,55.205 C184.302,55.411 184.136,55.577 183.93,55.577" id="Fill-422" fill="#8B8E8D"></path>
            <path d="M183.103,59.68 L163.323,59.68 C163.117,59.68 162.951,59.515 162.951,59.309 C162.951,59.104 163.117,58.937 163.323,58.937 L183.103,58.937 C183.308,58.937 183.474,59.104 183.474,59.309 C183.474,59.515 183.308,59.68 183.103,59.68" id="Fill-423" fill="#8B8E8D"></path>
            <path d="M183.103,63.784 L163.323,63.784 C163.117,63.784 162.951,63.618 162.951,63.413 C162.951,63.208 163.117,63.043 163.323,63.043 L183.103,63.043 C183.308,63.043 183.474,63.208 183.474,63.413 C183.474,63.618 183.308,63.784 183.103,63.784" id="Fill-424" fill="#8B8E8D"></path>
            <path d="M155.634,30.059 L159.726,30.059 L159.726,4.271 C159.726,3.145 158.809,2.227 157.682,2.227 C156.552,2.227 155.634,3.145 155.634,4.271 L155.634,30.059 Z M161.953,32.287 L153.406,32.287 L153.406,4.271 C153.406,1.916 155.323,0 157.678,0 C160.037,0 161.953,1.916 161.953,4.271 L161.953,32.287 L161.953,32.287 Z" id="Fill-425" fill="#8B8E8D"></path>
            <path d="M186.698,30.059 L190.785,30.059 L190.785,4.271 C190.785,3.145 189.869,2.227 188.743,2.227 C187.614,2.227 186.698,3.145 186.698,4.271 L186.698,30.059 Z M193.015,32.287 L184.471,32.287 L184.471,4.271 C184.471,1.916 186.387,0 188.743,0 C191.098,0 193.015,1.916 193.015,4.271 L193.015,32.287 L193.015,32.287 Z" id="Fill-426" fill="#8B8E8D"></path>
            <path d="M171.288,30.059 L175.379,30.059 L175.379,4.271 C175.379,3.145 174.462,2.227 173.335,2.227 C172.204,2.227 171.288,3.145 171.288,4.271 L171.288,30.059 Z M177.606,32.287 L169.06,32.287 L169.06,4.271 C169.06,1.916 170.976,0 173.331,0 C175.691,0 177.606,1.916 177.606,4.271 L177.606,32.287 L177.606,32.287 Z" id="Fill-427" fill="#8B8E8D"></path>
            <path d="M161.772,90.955 L184.65,90.955 L194.779,78.814 C197.089,76.044 198.554,72.689 199.015,69.112 L202.944,38.562 C202.91,35.095 200.302,32.287 197.103,32.287 L149.319,32.287 C146.118,32.287 143.511,35.095 143.478,38.562 L147.407,69.112 C147.867,72.689 149.332,76.044 151.643,78.814 L161.772,90.955 Z M185.171,93.184 L161.249,93.184 C160.92,93.184 160.607,93.037 160.395,92.784 L149.932,80.241 C147.349,77.145 145.712,73.395 145.197,69.396 L141.26,38.773 C141.252,38.726 141.249,38.679 141.249,38.631 C141.249,33.905 144.869,30.059 149.319,30.059 L197.103,30.059 C201.552,30.059 205.172,33.905 205.172,38.631 C205.172,38.679 205.169,38.726 205.162,38.773 L201.224,69.396 C200.71,73.395 199.073,77.145 196.49,80.241 L186.027,92.784 C185.816,93.037 185.501,93.184 185.171,93.184 L185.171,93.184 Z" id="Fill-428" fill="#8B8E8D"></path>
            <path d="M199.194,44.054 C198.989,44.054 198.823,43.888 198.823,43.683 L198.823,40.157 C198.823,38.122 197.169,36.467 195.134,36.467 L191.086,36.467 C190.881,36.467 190.715,36.3 190.715,36.096 C190.715,35.89 190.881,35.724 191.086,35.724 L195.134,35.724 C197.578,35.724 199.567,37.713 199.567,40.157 L199.567,43.683 C199.567,43.888 199.4,44.054 199.194,44.054" id="Fill-429" fill="#8B8E8D"></path>
            <path d="M164.469,86.586 C164.362,86.586 164.257,86.54 164.184,86.452 L153.15,73.2 C153.018,73.042 153.039,72.806 153.196,72.676 C153.355,72.546 153.589,72.565 153.72,72.723 L164.753,85.977 C164.886,86.134 164.864,86.369 164.706,86.5 C164.637,86.556 164.553,86.586 164.469,86.586" id="Fill-430" fill="#8B8E8D"></path>
            <path d="M27.03,175.189 L25.302,175.189 C22.986,175.189 21.746,173.851 21.746,171.405 L21.746,160.771 L19.692,160.771 L19.692,159.01 L21.746,159.01 L21.746,154.866 L23.833,154.866 L23.833,159.01 L26.574,159.01 L26.574,160.771 L23.833,160.771 L23.833,171.013 C23.833,172.449 24.258,173.33 25.824,173.33 L27.03,173.33 L27.03,175.189" id="Fill-431" fill="#676867"></path>
            <path d="M34.665,178.711 C33.947,180.701 32.609,181.713 30.652,181.713 L29.576,181.713 L29.576,179.886 L30.619,179.886 C31.729,179.886 32.512,179.202 32.936,177.832 L33.817,175.125 L27.848,159.043 L30.13,159.043 L32.773,166.513 L34.795,172.481 L34.893,172.481 L36.981,166.348 L39.492,159.043 L41.645,159.043 L34.665,178.711" id="Fill-432" fill="#676867"></path>
            <path d="M49.9,173.363 C52.77,173.363 54.205,171.274 54.205,167.132 C54.205,165.435 54.075,164.392 53.554,162.989 C53.064,161.587 51.89,160.802 50.064,160.802 C48.333,160.802 47.094,161.684 46.476,163.023 C45.92,164.359 45.692,165.631 45.692,167.099 C45.692,171.274 47.094,173.363 49.9,173.363 Z M43.637,159.01 L45.692,159.01 L45.692,161.259 L45.757,161.293 C46.899,159.662 48.465,158.847 50.519,158.847 C54.401,158.847 56.359,161.587 56.359,167.033 C56.359,169.253 55.999,171.046 55.086,172.743 C54.205,174.407 52.477,175.383 50.096,175.383 C48.203,175.383 46.768,174.634 45.757,173.133 L45.692,173.133 L45.692,181.648 L43.637,181.648 L43.637,159.01 L43.637,159.01 Z" id="Fill-433" fill="#676867"></path>
            <path d="M70.386,165.959 C70.354,162.533 68.723,160.739 65.949,160.739 C63.243,160.739 61.546,162.664 61.383,165.959 L70.386,165.959 Z M72.441,167.654 L61.383,167.654 C61.285,171.08 62.982,173.557 66.374,173.557 C67.744,173.557 69.017,173.1 70.158,172.156 L71.43,173.557 C70.061,174.764 68.397,175.383 66.44,175.383 C64.612,175.383 63.112,174.961 61.645,173.82 C60.209,172.678 59.328,170.395 59.328,167.164 C59.328,164.131 60.209,161.781 61.546,160.575 C62.884,159.368 64.352,158.847 66.015,158.847 C67.94,158.847 69.506,159.499 70.68,160.838 C71.855,162.173 72.441,163.902 72.441,166.056 L72.441,167.654 L72.441,167.654 Z" id="Fill-434" fill="#676867"></path>
            <polyline id="Fill-435" fill="#676867" points="99.322 175.189 83.273 175.189 83.273 152.486 88.297 152.486 88.297 170.689 99.322 170.689 99.322 175.189"></polyline>
        </g>
    </g>
</svg>