<?xml version="1.0" encoding="UTF-8"?>
<svg width="208px" height="178px" viewBox="0 0 208 178" version="1.1" xmlns="http://www.w3.org/2000/svg" xmlns:xlink="http://www.w3.org/1999/xlink">
    <title>plug-type-M</title>
    <g id="Page-1" stroke="none" stroke-width="1" fill="none" fill-rule="evenodd">
        <g id="plug-type-M" transform="translate(0.614000, -0.000000)">
            <path d="M21.339,13.315 C10.802,13.315 2.229,21.888 2.229,32.426 L2.229,108.175 C2.229,118.713 10.802,127.286 21.339,127.286 L97.089,127.286 C107.626,127.286 116.2,118.713 116.2,108.175 L116.2,32.426 C116.2,21.888 107.626,13.315 97.089,13.315 L21.339,13.315 Z M97.089,129.514 L21.339,129.514 C9.574,129.514 0,119.941 0,108.175 L0,32.426 C0,20.66 9.574,11.088 21.339,11.088 L97.089,11.088 C108.854,11.088 118.427,20.66 118.427,32.426 L118.427,108.175 C118.427,119.941 108.854,129.514 97.089,129.514 L97.089,129.514 Z" id="Fill-67" fill="#8B8E8D"></path>
            <path d="M21.317,14.678 C11.53,14.678 3.569,22.64 3.569,32.426 L3.569,108.175 C3.569,117.961 11.53,125.923 21.317,125.923 L97.066,125.923 C108.191,125.06 115.5,117.772 114.815,108.202 L114.814,32.426 C114.814,22.64 106.853,14.678 97.066,14.678 L21.317,14.678 Z M21.317,126.666 C11.121,126.666 2.827,118.372 2.827,108.175 L2.827,32.426 C2.827,22.23 11.121,13.935 21.317,13.935 L97.066,13.935 C107.262,13.935 115.557,22.23 115.557,32.426 L115.557,108.175 C116.272,118.153 108.681,125.767 97.095,126.666 L21.317,126.666 L21.317,126.666 Z" id="Fill-68" fill="#8B8E8D"></path>
            <path d="M7.43,99.957 C7.225,99.957 7.059,99.791 7.059,99.586 L7.059,48.344 C7.059,48.139 7.225,47.973 7.43,47.973 C7.635,47.973 7.801,48.139 7.801,48.344 L7.801,99.586 C7.801,99.791 7.635,99.957 7.43,99.957" id="Fill-69" fill="#8B8E8D"></path>
            <path d="M12.699,21.905 C12.589,21.905 12.48,21.857 12.407,21.765 C12.279,21.605 12.306,21.371 12.466,21.243 C15.017,19.216 18.084,18.145 21.339,18.145 L42.135,18.145 C42.34,18.145 42.504,18.311 42.504,18.517 C42.504,18.723 42.34,18.888 42.135,18.888 L21.339,18.888 C18.254,18.888 15.346,19.903 12.929,21.825 C12.86,21.878 12.78,21.905 12.699,21.905" id="Fill-70" fill="#8B8E8D"></path>
            <path d="M91.3,122.53 L21.339,122.53 C18.084,122.53 15.017,121.459 12.466,119.433 C12.306,119.305 12.279,119.071 12.407,118.911 C12.535,118.75 12.769,118.725 12.929,118.851 C15.346,120.772 18.254,121.788 21.339,121.788 L91.3,121.788 C91.505,121.788 91.67,121.954 91.67,122.159 C91.67,122.364 91.505,122.53 91.3,122.53" id="Fill-71" fill="#8B8E8D"></path>
            <path d="M110.997,44.877 C110.792,44.877 110.626,44.711 110.626,44.506 L110.626,32.426 C110.626,24.961 104.553,18.888 97.089,18.888 L83.225,18.888 C83.02,18.888 82.855,18.723 82.855,18.517 C82.855,18.311 83.02,18.145 83.225,18.145 L97.089,18.145 C104.963,18.145 111.37,24.552 111.37,32.426 L111.37,44.506 C111.37,44.711 111.204,44.877 110.997,44.877" id="Fill-72" fill="#8B8E8D"></path>
            <path d="M59.214,34.616 C39.538,34.616 23.53,50.624 23.53,70.301 C23.53,89.977 39.538,105.985 59.214,105.985 C78.89,105.985 94.899,89.977 94.899,70.301 C94.899,50.624 78.89,34.616 59.214,34.616 Z M59.214,108.213 C38.31,108.213 21.302,91.206 21.302,70.301 C21.302,49.396 38.31,32.389 59.214,32.389 C80.12,32.389 97.126,49.396 97.126,70.301 C97.126,91.206 80.12,108.213 59.214,108.213 L59.214,108.213 Z" id="Fill-73" fill="#8B8E8D"></path>
            <path d="M91.105,63.953 C90.933,63.953 90.779,63.832 90.743,63.658 C88.143,51.308 78.5,41.567 66.175,38.842 C65.975,38.798 65.848,38.599 65.893,38.399 C65.936,38.199 66.129,38.073 66.336,38.116 C78.944,40.904 88.809,50.87 91.469,63.505 C91.51,63.705 91.382,63.903 91.181,63.944 C91.155,63.95 91.13,63.953 91.105,63.953" id="Fill-74" fill="#8B8E8D"></path>
            <path d="M88.291,67.769 C88.103,67.769 87.942,67.626 87.922,67.433 C87.241,60.288 85.405,57.063 80.236,50.998 C80.103,50.842 80.123,50.607 80.279,50.475 C80.433,50.34 80.667,50.359 80.802,50.516 C86.084,56.715 87.96,60.018 88.662,67.362 C88.681,67.566 88.532,67.748 88.328,67.768 C88.316,67.768 88.304,67.769 88.291,67.769" id="Fill-75" fill="#8B8E8D"></path>
            <path d="M64.983,55.224 C64.983,58.41 62.4,60.993 59.214,60.993 C56.029,60.993 53.446,58.41 53.446,55.224 C53.446,52.038 56.029,49.455 59.214,49.455 C62.4,49.455 64.983,52.038 64.983,55.224" id="Fill-76" fill="#797C7A"></path>
            <path d="M47.043,79.472 C47.043,82.083 44.926,84.2 42.315,84.2 C39.704,84.2 37.587,82.083 37.587,79.472 C37.587,76.861 39.704,74.744 42.315,74.744 C44.926,74.744 47.043,76.861 47.043,79.472" id="Fill-77" fill="#797C7A"></path>
            <path d="M80.84,79.472 C80.84,82.083 78.724,84.2 76.113,84.2 C73.5,84.2 71.385,82.083 71.385,79.472 C71.385,76.861 73.5,74.744 76.113,74.744 C78.724,74.744 80.84,76.861 80.84,79.472" id="Fill-78" fill="#797C7A"></path>
            <path d="M24.487,171.223 L22.757,171.223 C20.439,171.223 19.198,169.884 19.198,167.436 L19.198,156.793 L17.142,156.793 L17.142,155.03 L19.198,155.03 L19.198,150.883 L21.288,150.883 L21.288,155.03 L24.031,155.03 L24.031,156.793 L21.288,156.793 L21.288,167.044 C21.288,168.48 21.711,169.362 23.279,169.362 L24.487,169.362 L24.487,171.223" id="Fill-436" fill="#676867"></path>
            <path d="M32.127,174.749 C31.408,176.74 30.071,177.752 28.111,177.752 L27.035,177.752 L27.035,175.924 L28.079,175.924 C29.189,175.924 29.971,175.238 30.397,173.868 L31.279,171.158 L25.304,155.063 L27.589,155.063 L30.233,162.539 L32.256,168.513 L32.356,168.513 L34.445,162.375 L36.959,155.063 L39.114,155.063 L32.127,174.749" id="Fill-437" fill="#676867"></path>
            <path d="M47.375,169.395 C50.246,169.395 51.683,167.305 51.683,163.159 C51.683,161.461 51.553,160.417 51.031,159.013 C50.54,157.609 49.366,156.825 47.538,156.825 C45.807,156.825 44.567,157.707 43.946,159.045 C43.391,160.384 43.163,161.657 43.163,163.126 C43.163,167.305 44.567,169.395 47.375,169.395 Z M41.106,155.03 L43.163,155.03 L43.163,157.282 L43.228,157.315 C44.371,155.683 45.938,154.867 47.995,154.867 C51.879,154.867 53.838,157.609 53.838,163.062 C53.838,165.281 53.479,167.077 52.564,168.774 C51.683,170.439 49.953,171.419 47.57,171.419 C45.676,171.419 44.241,170.668 43.228,169.167 L43.163,169.167 L43.163,177.688 L41.106,177.688 L41.106,155.03 L41.106,155.03 Z" id="Fill-438" fill="#676867"></path>
            <path d="M67.876,161.984 C67.844,158.556 66.212,156.76 63.437,156.76 C60.727,156.76 59.029,158.687 58.867,161.984 L67.876,161.984 Z M69.933,163.682 L58.867,163.682 C58.769,167.11 60.466,169.591 63.861,169.591 C65.233,169.591 66.505,169.133 67.648,168.187 L68.921,169.591 C67.55,170.798 65.885,171.419 63.927,171.419 C62.099,171.419 60.597,170.995 59.127,169.852 C57.69,168.709 56.809,166.423 56.809,163.191 C56.809,160.156 57.69,157.805 59.029,156.597 C60.367,155.389 61.837,154.867 63.501,154.867 C65.429,154.867 66.995,155.519 68.17,156.858 C69.346,158.197 69.933,159.927 69.933,162.082 L69.933,163.682 L69.933,163.682 Z" id="Fill-439" fill="#676867"></path>
            <polyline id="Fill-440" fill="#676867" points="102.027 171.223 97.032 171.223 97.032 160.417 96.934 160.384 94.876 164.987 93.342 168.187 89.491 168.187 87.891 164.824 85.899 160.384 85.801 160.482 85.801 171.223 80.774 171.223 80.774 148.5 85.312 148.5 88.381 155.095 91.319 161.918 91.449 161.918 94.289 155.095 97.293 148.5 102.027 148.5 102.027 171.223"></polyline>
            <path d="M156.892,83.218 C156.882,83.218 156.882,83.218 156.882,83.218 C156.842,83.217 152.465,83.101 152.465,78.477 C152.465,78.272 152.632,78.106 152.837,78.106 C153.042,78.106 153.209,78.272 153.209,78.477 C153.209,82.377 156.742,82.474 156.892,82.475 C157.102,82.478 157.262,82.647 157.262,82.852 C157.252,83.055 157.092,83.218 156.892,83.218" id="Fill-451" fill="#8B8E8D"></path>
            <polyline id="Fill-452" fill="#8B8E8D" points="174.272 136.861 172.042 136.861 172.042 103.982 164.692 103.982 164.692 136.861 162.472 136.861 162.472 101.755 174.272 101.755 174.272 136.861"></polyline>
            <path d="M160.622,89.15 L160.622,99.543 C160.622,100.762 161.612,101.755 162.832,101.755 L173.902,101.755 C175.122,101.755 176.122,100.762 176.122,99.543 L176.122,89.15 L160.622,89.15 Z M173.902,103.982 L162.832,103.982 C160.382,103.982 158.392,101.991 158.392,99.543 L158.392,86.922 L178.342,86.922 L178.342,99.543 C178.342,101.991 176.352,103.982 173.902,103.982 L173.902,103.982 Z" id="Fill-453" fill="#8B8E8D"></path>
            <path d="M178.262,64.242 L158.472,64.242 C158.272,64.242 158.102,64.076 158.102,63.871 C158.102,63.665 158.272,63.5 158.472,63.5 L178.262,63.5 C178.462,63.5 178.632,63.665 178.632,63.871 C178.632,64.076 178.462,64.242 178.262,64.242" id="Fill-454" fill="#8B8E8D"></path>
            <path d="M178.262,68.346 L158.472,68.346 C158.272,68.346 158.102,68.18 158.102,67.975 C158.102,67.769 158.272,67.604 158.472,67.604 L178.262,67.604 C178.462,67.604 178.632,67.769 178.632,67.975 C178.632,68.18 178.462,68.346 178.262,68.346" id="Fill-455" fill="#8B8E8D"></path>
            <path d="M178.262,72.45 L158.472,72.45 C158.272,72.45 158.102,72.284 158.102,72.079 C158.102,71.873 158.272,71.707 158.472,71.707 L178.262,71.707 C178.462,71.707 178.632,71.873 178.632,72.079 C178.632,72.284 178.462,72.45 178.262,72.45" id="Fill-456" fill="#8B8E8D"></path>
            <path d="M196.702,45.352 C196.502,45.352 196.342,45.192 196.332,44.991 L196.182,40.166 C196.212,39.906 196.152,39.709 196.012,39.555 C195.882,39.401 195.692,39.317 195.482,39.317 L190.762,39.317 C190.562,39.317 190.392,39.151 190.392,38.946 C190.392,38.741 190.562,38.575 190.762,38.575 L195.482,38.575 C195.902,38.575 196.302,38.753 196.572,39.063 C196.852,39.374 196.972,39.789 196.922,40.2 L197.072,44.968 C197.082,45.173 196.922,45.345 196.712,45.352 C196.712,45.352 196.712,45.352 196.702,45.352" id="Fill-457" fill="#8B8E8D"></path>
            <path d="M150.791,33.773 L154.882,33.773 L154.882,11.016 C154.882,10.716 154.638,10.472 154.338,10.472 L151.336,10.472 C151.037,10.472 150.791,10.716 150.791,11.016 L150.791,33.773 Z M157.112,36.001 L148.564,36.001 L148.564,11.016 C148.564,9.488 149.808,8.244 151.336,8.244 L154.338,8.244 C155.862,8.244 157.112,9.488 157.112,11.016 L157.112,36.001 L157.112,36.001 Z" id="Fill-458" fill="#8B8E8D"></path>
            <path d="M181.852,33.773 L185.942,33.773 L185.942,11.016 C185.942,10.716 185.702,10.472 185.402,10.472 L182.402,10.472 C182.102,10.472 181.852,10.716 181.852,11.016 L181.852,33.773 Z M188.172,36.001 L179.632,36.001 L179.632,11.016 C179.632,9.488 180.872,8.244 182.402,8.244 L185.402,8.244 C186.922,8.244 188.172,9.488 188.172,11.016 L188.172,36.001 L188.172,36.001 Z" id="Fill-459" fill="#8B8E8D"></path>
            <path d="M163.872,33.773 L172.862,33.773 L172.862,4.075 C172.862,3.057 172.032,2.228 171.012,2.228 L165.722,2.228 C164.702,2.228 163.872,3.057 163.872,4.075 L163.872,33.773 Z M175.092,36.001 L161.652,36.001 L161.652,4.075 C161.652,1.828 163.472,0 165.722,0 L171.012,0 C173.262,0 175.092,1.828 175.092,4.075 L175.092,36.001 L175.092,36.001 Z" id="Fill-460" fill="#8B8E8D"></path>
            <path d="M137.661,49.915 L199.072,49.915 L199.072,36.813 C199.072,36.438 198.772,36.132 198.392,36.132 L138.342,36.132 C137.965,36.132 137.661,36.438 137.661,36.813 L137.661,49.915 Z M201.302,52.143 L135.432,52.143 L135.432,36.813 C135.432,35.209 136.737,33.904 138.342,33.904 L198.392,33.904 C199.992,33.904 201.302,35.209 201.302,36.813 L201.302,52.143 L201.302,52.143 Z" id="Fill-461" fill="#8B8E8D"></path>
            <path d="M133.734,52.143 C133.123,52.143 132.605,52.472 132.343,53.022 C132.082,53.573 132.156,54.184 132.542,54.656 L140.933,64.91 C143.171,67.645 144.523,70.952 144.843,74.472 C145.489,81.57 151.35,86.922 158.472,86.922 L178.262,86.922 C185.382,86.922 191.242,81.57 191.892,74.472 C192.212,70.952 193.562,67.645 195.802,64.91 L204.192,54.656 C204.582,54.184 204.652,53.573 204.392,53.022 C204.132,52.472 203.612,52.143 203.002,52.143 L133.734,52.143 Z M178.262,89.15 L158.472,89.15 C150.19,89.15 143.374,82.927 142.623,74.674 C142.345,71.599 141.163,68.71 139.207,66.321 L130.818,56.067 C129.887,54.929 129.7,53.397 130.33,52.068 C130.959,50.74 132.263,49.915 133.734,49.915 L203.002,49.915 C204.472,49.915 205.772,50.74 206.402,52.068 C207.032,53.397 206.852,54.929 205.912,56.067 L197.522,66.321 C195.572,68.71 194.392,71.599 194.112,74.674 C193.362,82.927 186.542,89.15 178.262,89.15 L178.262,89.15 Z" id="Fill-462" fill="#8B8E8D"></path>
            <polygon id="Fill-463" fill="#8B8E8D" points="149.737 35.069 156.052 35.069 156.052 28.527 149.737 28.527"></polygon>
            <polygon id="Fill-464" fill="#8B8E8D" points="180.742 35.069 187.062 35.069 187.062 28.527 180.742 28.527"></polygon>
            <polygon id="Fill-465" fill="#8B8E8D" points="163.872 35.069 172.862 35.069 172.862 28.527 163.872 28.527"></polygon>
        </g>
    </g>
</svg>