<?xml version="1.0" encoding="UTF-8"?>
<svg width="208px" height="182px" viewBox="0 0 208 182" version="1.1" xmlns="http://www.w3.org/2000/svg" xmlns:xlink="http://www.w3.org/1999/xlink">
    <title>plug-type-N</title>
    <g id="Page-1" stroke="none" stroke-width="1" fill="none" fill-rule="evenodd">
        <g id="plug-type-N" transform="translate(0.540000, 0.605000)">
            <g id="Group-4" transform="translate(0.000000, -0.000000)">
                <path d="M21.338,17.35 C10.801,17.35 2.228,25.922 2.228,36.46 L2.228,112.209 C2.228,122.747 10.801,131.32 21.338,131.32 L97.088,131.32 C107.625,131.32 116.198,122.747 116.198,112.209 L116.198,36.46 C116.198,25.922 107.625,17.35 97.088,17.35 L21.338,17.35 Z M97.088,133.547 L21.338,133.547 C9.572,133.547 0,123.975 0,112.209 L0,36.46 C0,24.694 9.572,15.121 21.338,15.121 L97.088,15.121 C108.854,15.121 118.426,24.694 118.426,36.46 L118.426,112.209 C118.426,123.975 108.854,133.547 97.088,133.547 L97.088,133.547 Z" id="Fill-376" fill="#8B8E8D"></path>
                <path d="M21.338,18.711 C11.552,18.711 3.591,26.673 3.591,36.46 L3.591,112.209 C3.591,121.995 11.552,129.958 21.338,129.958 L97.088,129.958 C108.212,129.094 115.522,121.806 114.836,112.235 L114.835,36.46 C114.835,26.673 106.874,18.711 97.088,18.711 L21.338,18.711 Z M21.338,130.7 C11.142,130.7 2.848,122.405 2.848,112.209 L2.848,36.46 C2.848,26.264 11.142,17.969 21.338,17.969 L97.088,17.969 C107.284,17.969 115.578,26.264 115.578,36.46 L115.578,112.209 C116.293,122.187 108.702,129.801 97.116,130.7 L21.338,130.7 L21.338,130.7 Z" id="Fill-377" fill="#8B8E8D"></path>
                <path d="M32.54,56.709 C32.155,56.709 31.795,56.9 31.58,57.221 L20.477,73.7 C20.214,74.089 20.212,74.595 20.471,74.987 L31.588,91.834 C31.802,92.161 32.164,92.356 32.556,92.356 L85.901,92.356 C86.291,92.356 86.654,92.161 86.868,91.835 L97.985,74.987 C98.244,74.595 98.241,74.089 97.98,73.7 L86.877,57.221 C86.66,56.9 86.302,56.709 85.914,56.709 L32.54,56.709 Z M85.901,94.584 L32.556,94.584 C31.413,94.584 30.356,94.015 29.728,93.062 L18.612,76.214 C17.856,75.069 17.862,73.594 18.629,72.456 L29.732,55.977 C30.363,55.04 31.412,54.481 32.54,54.481 L85.914,54.481 C87.043,54.481 88.094,55.04 88.724,55.976 L99.827,72.456 C100.593,73.594 100.601,75.069 99.845,76.214 L88.728,93.062 C88.1,94.015 87.043,94.584 85.901,94.584 L85.901,94.584 Z" id="Fill-382" fill="#8B8E8D"></path>
                <path d="M165.316,93.185 L165.316,103.576 C165.316,104.796 166.306,105.789 167.526,105.789 L178.606,105.789 C179.826,105.789 180.816,104.796 180.816,103.576 L180.816,93.185 L165.316,93.185 Z M178.606,108.017 L167.526,108.017 C165.076,108.017 163.086,106.024 163.086,103.576 L163.086,90.956 L183.046,90.956 L183.046,103.576 C183.046,106.024 181.046,108.017 178.606,108.017 L178.606,108.017 Z" id="Fill-389" fill="#8B8E8D"></path>
                <path d="M155.366,30.06 L159.456,30.06 L159.456,4.272 C159.456,3.145 158.536,2.228 157.416,2.228 C156.286,2.228 155.366,3.145 155.366,4.272 L155.366,30.06 Z M161.686,32.288 L153.138,32.288 L153.138,4.272 C153.138,1.916 155.053,1.42108547e-14 157.406,1.42108547e-14 C159.766,1.42108547e-14 161.686,1.916 161.686,4.272 L161.686,32.288 L161.686,32.288 Z" id="Fill-393" fill="#8B8E8D"></path>
                <path d="M186.426,30.06 L190.516,30.06 L190.516,4.272 C190.516,3.145 189.596,2.228 188.476,2.228 C187.346,2.228 186.426,3.145 186.426,4.272 L186.426,30.06 Z M192.746,32.288 L184.206,32.288 L184.206,4.272 C184.206,1.916 186.116,1.42108547e-14 188.476,1.42108547e-14 C190.826,1.42108547e-14 192.746,1.916 192.746,4.272 L192.746,32.288 L192.746,32.288 Z" id="Fill-394" fill="#8B8E8D"></path>
                <path d="M171.016,30.06 L175.106,30.06 L175.106,4.272 C175.106,3.145 174.196,2.228 173.066,2.228 C171.936,2.228 171.016,3.145 171.016,4.272 L171.016,30.06 Z M177.336,32.288 L168.786,32.288 L168.786,4.272 C168.786,1.916 170.706,1.42108547e-14 173.066,1.42108547e-14 C175.426,1.42108547e-14 177.336,1.916 177.336,4.272 L177.336,32.288 L177.336,32.288 Z" id="Fill-395" fill="#8B8E8D"></path>
                <g id="Group-400" transform="translate(138.752000, 30.060000)" fill="#8B8E8D">
                    <path d="M2.229,26.104 L66.154,26.104 L66.154,8.57 C66.154,5.073 63.304,2.228 59.804,2.228 L8.572,2.228 C5.073,2.228 2.229,5.073 2.229,8.57 L2.229,26.104 Z M67.264,28.332 L1.114,28.332 C0.499,28.332 0,27.834 0,27.218 L0,8.57 C0,3.845 3.846,0 8.572,0 L59.804,0 C64.534,0 68.384,3.845 68.384,8.57 L68.384,27.218 C68.384,27.834 67.884,28.332 67.264,28.332 L67.264,28.332 Z" id="Fill-397"></path>
                    <path d="M2.673,28.332 L15.572,57.018 C16.365,59.337 18.694,60.896 21.364,60.896 L47.014,60.896 C49.684,60.896 52.014,59.337 52.804,57.018 L65.704,28.332 L2.673,28.332 Z M47.014,63.125 L21.364,63.125 C17.744,63.125 14.567,60.96 13.465,57.738 L0.061,27.578 C-0.056,27.238 -0.002,26.862 0.208,26.57 C0.417,26.277 0.755,26.104 1.114,26.104 L67.264,26.104 C67.624,26.104 67.964,26.277 68.174,26.57 C68.384,26.862 68.434,27.238 68.314,27.578 L54.914,57.738 C53.814,60.96 50.634,63.125 47.014,63.125 L47.014,63.125 Z" id="Fill-399"></path>
                </g>
                <path d="M47.449,172.963 C50.32,172.963 51.757,170.874 51.757,166.728 C51.757,165.03 51.627,163.985 51.105,162.582 C50.614,161.178 49.44,160.394 47.612,160.394 C45.881,160.394 44.641,161.276 44.02,162.614 C43.465,163.953 43.237,165.226 43.237,166.695 C43.237,170.874 44.641,172.963 47.449,172.963 Z M41.18,158.599 L43.237,158.599 L43.237,160.851 L43.302,160.884 C44.445,159.251 46.012,158.436 48.069,158.436 C51.953,158.436 53.912,161.178 53.912,166.63 C53.912,168.85 53.553,170.646 52.638,172.343 C51.757,174.008 50.027,174.988 47.644,174.988 C45.75,174.988 44.315,174.237 43.302,172.735 L43.237,172.735 L43.237,181.256 L41.18,181.256 L41.18,158.599 L41.18,158.599 Z" id="Fill-443" fill="#676867"></path>
                <path d="M67.95,165.553 C67.918,162.125 66.286,160.329 63.511,160.329 C60.801,160.329 59.103,162.255 58.941,165.553 L67.95,165.553 Z M70.007,167.25 L58.941,167.25 C58.843,170.678 60.54,173.16 63.935,173.16 C65.307,173.16 66.579,172.702 67.722,171.755 L68.995,173.16 C67.624,174.368 65.959,174.988 64.001,174.988 C62.173,174.988 60.671,174.563 59.201,173.42 C57.764,172.278 56.883,169.993 56.883,166.761 C56.883,163.724 57.764,161.374 59.103,160.166 C60.441,158.958 61.911,158.436 63.575,158.436 C65.503,158.436 67.069,159.088 68.244,160.427 C69.42,161.765 70.007,163.496 70.007,165.65 L70.007,167.25 L70.007,167.25 Z" id="Fill-444" fill="#676867"></path>
            </g>
            <path d="M7.428,103.991 C7.224,103.991 7.059,103.825 7.059,103.62 L7.059,52.378 C7.059,52.172 7.224,52.006 7.428,52.006 C7.634,52.006 7.8,52.172 7.8,52.378 L7.8,103.62 C7.8,103.825 7.634,103.991 7.428,103.991" id="Fill-378" fill="#8B8E8D"></path>
            <path d="M12.697,25.939 C12.588,25.939 12.48,25.891 12.406,25.798 C12.279,25.638 12.306,25.405 12.466,25.276 C15.016,23.25 18.084,22.179 21.338,22.179 L42.133,22.179 C42.338,22.179 42.504,22.345 42.504,22.55 C42.504,22.756 42.338,22.922 42.133,22.922 L21.338,22.922 C18.253,22.922 15.345,23.937 12.929,25.858 C12.86,25.913 12.779,25.939 12.697,25.939" id="Fill-379" fill="#8B8E8D"></path>
            <path d="M91.299,126.564 L21.338,126.564 C18.084,126.564 15.016,125.493 12.466,123.466 C12.306,123.339 12.279,123.105 12.406,122.945 C12.535,122.783 12.768,122.759 12.929,122.885 C15.345,124.806 18.253,125.821 21.338,125.821 L91.299,125.821 C91.504,125.821 91.67,125.988 91.67,126.193 C91.67,126.398 91.504,126.564 91.299,126.564" id="Fill-380" fill="#8B8E8D"></path>
            <path d="M110.997,48.911 C110.792,48.911 110.626,48.745 110.626,48.539 L110.626,36.46 C110.626,28.995 104.553,22.922 97.088,22.922 L83.225,22.922 C83.02,22.922 82.854,22.756 82.854,22.55 C82.854,22.345 83.02,22.179 83.225,22.179 L97.088,22.179 C104.962,22.179 111.367,28.585 111.367,36.46 L111.367,48.539 C111.367,48.745 111.203,48.911 110.997,48.911" id="Fill-381" fill="#8B8E8D"></path>
            <path d="M44.829,70.88 C44.829,73.491 42.712,75.608 40.101,75.608 C37.49,75.608 35.373,73.491 35.373,70.88 C35.373,68.269 37.49,66.152 40.101,66.152 C42.712,66.152 44.829,68.269 44.829,70.88" id="Fill-383" fill="#797C7A"></path>
            <path d="M83.826,70.88 C83.826,73.491 81.709,75.608 79.098,75.608 C76.487,75.608 74.37,73.491 74.37,70.88 C74.37,68.269 76.487,66.152 79.098,66.152 C81.709,66.152 83.826,68.269 83.826,70.88" id="Fill-384" fill="#797C7A"></path>
            <path d="M63.955,82.018 C63.955,84.628 61.84,86.745 59.228,86.745 C56.616,86.745 54.5,84.628 54.5,82.018 C54.5,79.406 56.616,77.29 59.228,77.29 C61.84,77.29 63.955,79.406 63.955,82.018" id="Fill-385" fill="#797C7A"></path>
            <path d="M91.299,68.913 C91.184,68.913 91.069,68.859 90.996,68.758 L84.99,60.37 C84.742,60.022 84.339,59.816 83.913,59.816 L80.516,59.816 C80.31,59.816 80.144,59.649 80.144,59.444 C80.144,59.239 80.31,59.073 80.516,59.073 L83.913,59.073 C84.579,59.073 85.208,59.396 85.594,59.937 L91.6,68.325 C91.719,68.492 91.682,68.724 91.514,68.844 C91.45,68.89 91.374,68.913 91.299,68.913" id="Fill-386" fill="#8B8E8D"></path>
            <path d="M35.21,89.882 C35.09,89.882 34.971,89.823 34.9,89.715 L29.222,81.102 C29.109,80.931 29.154,80.7 29.326,80.587 C29.496,80.475 29.728,80.521 29.841,80.693 L35.52,89.306 C35.633,89.478 35.586,89.708 35.414,89.821 C35.352,89.862 35.28,89.882 35.21,89.882" id="Fill-387" fill="#8B8E8D"></path>
            <polyline id="Fill-388" fill="#8B8E8D" points="178.966 140.895 176.736 140.895 176.736 108.017 169.386 108.017 169.386 140.895 167.166 140.895 167.166 105.789 178.966 105.789 178.966 140.895"></polyline>
            <path d="M183.656,70.339 L162.226,70.339 C162.016,70.339 161.856,70.173 161.856,69.967 C161.856,69.762 162.016,69.596 162.226,69.596 L183.656,69.596 C183.866,69.596 184.036,69.762 184.036,69.967 C184.036,70.173 183.866,70.339 183.656,70.339" id="Fill-390" fill="#8B8E8D"></path>
            <path d="M182.836,74.442 L163.056,74.442 C162.846,74.442 162.686,74.276 162.686,74.071 C162.686,73.865 162.846,73.7 163.056,73.7 L182.836,73.7 C183.036,73.7 183.206,73.865 183.206,74.071 C183.206,74.276 183.036,74.442 182.836,74.442" id="Fill-391" fill="#8B8E8D"></path>
            <path d="M182.836,78.546 L163.056,78.546 C162.846,78.546 162.686,78.38 162.686,78.175 C162.686,77.969 162.846,77.803 163.056,77.803 L182.836,77.803 C183.036,77.803 183.206,77.969 183.206,78.175 C183.206,78.38 183.036,78.546 182.836,78.546" id="Fill-392" fill="#8B8E8D"></path>
            <path d="M172.036,28.944 C171.826,28.944 171.666,28.778 171.666,28.573 L171.666,3.602 C171.666,3.396 171.826,3.23 172.036,3.23 C172.236,3.23 172.406,3.396 172.406,3.602 L172.406,28.573 C172.406,28.778 172.236,28.944 172.036,28.944" id="Fill-396" fill="#8B8E8D"></path>
            <path d="M200.956,44.603 C200.746,44.603 200.586,44.436 200.586,44.231 L200.586,40.704 C200.586,38.669 198.926,37.015 196.886,37.015 L192.846,37.015 C192.636,37.015 192.476,36.848 192.476,36.643 C192.476,36.437 192.636,36.272 192.846,36.272 L196.886,36.272 C199.336,36.272 201.326,38.26 201.326,40.704 L201.326,44.231 C201.326,44.436 201.156,44.603 200.956,44.603" id="Fill-401" fill="#8B8E8D"></path>
            <polygon id="Fill-402" fill="#8B8E8D" points="154.2 30.773 160.166 30.773 160.166 13.97 154.2 13.97"></polygon>
            <polygon id="Fill-403" fill="#8B8E8D" points="185.086 30.773 191.056 30.773 191.056 13.97 185.086 13.97"></polygon>
            <path d="M24.561,174.792 L22.831,174.792 C20.513,174.792 19.272,173.453 19.272,171.004 L19.272,160.362 L17.216,160.362 L17.216,158.599 L19.272,158.599 L19.272,154.453 L21.362,154.453 L21.362,158.599 L24.105,158.599 L24.105,160.362 L21.362,160.362 L21.362,170.613 C21.362,172.049 21.785,172.931 23.353,172.931 L24.561,172.931 L24.561,174.792" id="Fill-441" fill="#676867"></path>
            <path d="M32.201,178.317 C31.482,180.31 30.145,181.321 28.185,181.321 L27.109,181.321 L27.109,179.493 L28.153,179.493 C29.263,179.493 30.045,178.807 30.471,177.436 L31.353,174.726 L25.378,158.631 L27.663,158.631 L30.307,166.107 L32.33,172.082 L32.43,172.082 L34.519,165.944 L37.033,158.631 L39.188,158.631 L32.201,178.317" id="Fill-442" fill="#676867"></path>
            <polyline id="Fill-445" fill="#676867" points="99.555 174.792 95.082 174.792 89.303 166.434 85.941 161.015 85.875 161.047 85.875 174.792 80.848 174.792 80.848 152.069 85.32 152.069 90.087 159.023 94.461 165.847 94.528 165.813 94.528 152.069 99.555 152.069 99.555 174.792"></polyline>
        </g>
    </g>
</svg>