<?xml version="1.0" encoding="UTF-8"?>
<svg width="204px" height="180px" viewBox="0 0 204 180" version="1.1" xmlns="http://www.w3.org/2000/svg" xmlns:xlink="http://www.w3.org/1999/xlink">
    <title>plug-type-O</title>
    <g id="Page-1" stroke="none" stroke-width="1" fill="none" fill-rule="evenodd">
        <g id="plug-type-O" transform="translate(0.614000, 0.249000)">
            <path d="M25.393,173.101 L23.663,173.101 C21.346,173.101 20.105,171.762 20.105,169.313 L20.105,158.67 L18.048,158.67 L18.048,156.908 L20.105,156.908 L20.105,152.761 L22.195,152.761 L22.195,156.908 L24.936,156.908 L24.936,158.67 L22.195,158.67 L22.195,168.922 C22.195,170.359 22.618,171.24 24.185,171.24 L25.393,171.24 L25.393,173.101" id="Fill-446" fill="#676867"></path>
            <path d="M33.033,176.627 C32.315,178.619 30.977,179.63 29.017,179.63 L27.94,179.63 L27.94,177.802 L28.985,177.802 C30.095,177.802 30.878,177.117 31.303,175.746 L32.185,173.036 L26.21,156.941 L28.496,156.941 L31.139,164.418 L33.163,170.391 L33.262,170.391 L35.351,164.253 L37.865,156.941 L40.02,156.941 L33.033,176.627" id="Fill-447" fill="#676867"></path>
            <path d="M48.281,171.273 C51.153,171.273 52.589,169.184 52.589,165.037 C52.589,163.338 52.459,162.294 51.938,160.891 C51.447,159.487 50.272,158.704 48.443,158.704 C46.713,158.704 45.473,159.585 44.852,160.924 C44.297,162.262 44.069,163.535 44.069,165.004 C44.069,169.184 45.473,171.273 48.281,171.273 Z M42.012,156.908 L44.069,156.908 L44.069,159.161 L44.134,159.193 C45.277,157.561 46.844,156.745 48.901,156.745 C52.786,156.745 54.745,159.487 54.745,164.939 C54.745,167.16 54.384,168.955 53.471,170.652 C52.589,172.318 50.859,173.296 48.476,173.296 C46.582,173.296 45.147,172.546 44.134,171.044 L44.069,171.044 L44.069,179.565 L42.012,179.565 L42.012,156.908 L42.012,156.908 Z" id="Fill-448" fill="#676867"></path>
            <path d="M68.782,163.862 C68.749,160.434 67.118,158.638 64.343,158.638 C61.632,158.638 59.936,160.564 59.773,163.862 L68.782,163.862 Z M70.839,165.56 L59.773,165.56 C59.674,168.988 61.372,171.468 64.767,171.468 C66.139,171.468 67.412,171.012 68.554,170.065 L69.828,171.468 C68.455,172.676 66.79,173.296 64.833,173.296 C63.006,173.296 61.502,172.873 60.035,171.73 C58.597,170.587 57.715,168.302 57.715,165.071 C57.715,162.034 58.597,159.683 59.936,158.475 C61.274,157.267 62.744,156.745 64.409,156.745 C66.335,156.745 67.901,157.397 69.077,158.736 C70.251,160.074 70.839,161.805 70.839,163.959 L70.839,165.56 L70.839,165.56 Z" id="Fill-449" fill="#676867"></path>
            <path d="M85.793,164.776 C85.793,166.899 87.099,168.596 89.483,168.596 C91.832,168.596 93.302,166.996 93.302,164.776 L93.302,158.606 C93.302,156.516 91.832,154.917 89.483,154.917 C87.131,154.917 85.793,156.548 85.793,158.606 L85.793,164.776 Z M95.979,152.697 C97.612,154.362 98.428,156.483 98.428,159.063 L98.428,164.418 C98.428,167.126 97.612,169.282 95.979,170.881 C94.379,172.48 92.224,173.296 89.515,173.296 C86.707,173.296 84.553,172.448 83.019,170.751 C81.484,169.052 80.734,166.93 80.734,164.418 L80.734,159.063 C80.734,156.548 81.484,154.459 83.019,152.761 C84.553,151.064 86.707,150.215 89.515,150.215 C92.224,150.215 94.379,151.032 95.979,152.697 L95.979,152.697 Z" id="Fill-450" fill="#676867"></path>
            <path d="M21.339,13.317 C10.802,13.317 2.229,21.889 2.229,32.426 L2.229,108.175 C2.229,118.713 10.802,127.286 21.339,127.286 L97.089,127.286 C107.626,127.286 116.2,118.713 116.2,108.175 L116.2,32.426 C116.2,21.889 107.626,13.317 97.089,13.317 L21.339,13.317 Z M97.089,129.515 L21.339,129.515 C9.574,129.515 0,119.943 0,108.175 L0,32.426 C0,20.661 9.574,11.088 21.339,11.088 L97.089,11.088 C108.854,11.088 118.427,20.661 118.427,32.426 L118.427,108.175 C118.427,119.943 108.854,129.515 97.089,129.515 L97.089,129.515 Z" id="Fill-466" fill="#8B8E8D"></path>
            <path d="M21.317,14.678 C11.53,14.678 3.569,22.641 3.569,32.426 L3.569,108.175 C3.569,117.962 11.53,125.924 21.317,125.924 L97.066,125.924 C108.191,125.06 115.5,117.772 114.815,108.203 L114.814,32.426 C114.814,22.641 106.853,14.678 97.066,14.678 L21.317,14.678 Z M21.317,126.667 C11.121,126.667 2.827,118.373 2.827,108.175 L2.827,32.426 C2.827,22.231 11.121,13.936 21.317,13.936 L97.066,13.936 C107.262,13.936 115.557,22.231 115.557,32.426 L115.557,108.175 C116.272,118.153 108.681,125.768 97.095,126.667 L21.317,126.667 L21.317,126.667 Z" id="Fill-467" fill="#8B8E8D"></path>
            <path d="M7.43,99.958 C7.225,99.958 7.059,99.792 7.059,99.586 L7.059,48.344 C7.059,48.139 7.225,47.973 7.43,47.973 C7.635,47.973 7.801,48.139 7.801,48.344 L7.801,99.586 C7.801,99.792 7.635,99.958 7.43,99.958" id="Fill-468" fill="#8B8E8D"></path>
            <path d="M12.699,21.906 C12.589,21.906 12.48,21.858 12.407,21.765 C12.279,21.605 12.306,21.372 12.466,21.244 C15.017,19.217 18.084,18.145 21.339,18.145 L42.135,18.145 C42.34,18.145 42.504,18.312 42.504,18.517 C42.504,18.723 42.34,18.889 42.135,18.889 L21.339,18.889 C18.254,18.889 15.346,19.904 12.929,21.826 C12.86,21.879 12.78,21.906 12.699,21.906" id="Fill-469" fill="#8B8E8D"></path>
            <path d="M91.3,122.531 L21.339,122.531 C18.084,122.531 15.017,121.459 12.466,119.433 C12.306,119.306 12.279,119.072 12.407,118.912 C12.535,118.751 12.769,118.726 12.929,118.851 C15.346,120.773 18.254,121.789 21.339,121.789 L91.3,121.789 C91.505,121.789 91.67,121.955 91.67,122.159 C91.67,122.365 91.505,122.531 91.3,122.531" id="Fill-470" fill="#8B8E8D"></path>
            <path d="M110.997,44.878 C110.792,44.878 110.626,44.711 110.626,44.506 L110.626,32.426 C110.626,24.962 104.553,18.889 97.089,18.889 L83.225,18.889 C83.02,18.889 82.855,18.723 82.855,18.517 C82.855,18.312 83.02,18.145 83.225,18.145 L97.089,18.145 C104.963,18.145 111.37,24.553 111.37,32.426 L111.37,44.506 C111.37,44.711 111.204,44.878 110.997,44.878" id="Fill-471" fill="#8B8E8D"></path>
            <path d="M59.214,34.617 C39.538,34.617 23.53,50.626 23.53,70.3 C23.53,89.978 39.538,105.986 59.214,105.986 C78.89,105.986 94.899,89.978 94.899,70.3 C94.899,50.626 78.89,34.617 59.214,34.617 Z M59.214,108.213 C38.31,108.213 21.302,91.207 21.302,70.3 C21.302,49.397 38.31,32.389 59.214,32.389 C80.12,32.389 97.126,49.397 97.126,70.3 C97.126,91.207 80.12,108.213 59.214,108.213 L59.214,108.213 Z" id="Fill-472" fill="#8B8E8D"></path>
            <path d="M91.105,63.953 C90.933,63.953 90.779,63.834 90.743,63.658 C88.143,51.308 78.5,41.567 66.175,38.842 C65.975,38.798 65.848,38.6 65.893,38.399 C65.936,38.2 66.129,38.074 66.336,38.117 C78.944,40.906 88.809,50.871 91.469,63.504 C91.51,63.706 91.382,63.903 91.181,63.945 C91.155,63.95 91.13,63.953 91.105,63.953" id="Fill-473" fill="#8B8E8D"></path>
            <path d="M88.291,67.769 C88.103,67.769 87.942,67.626 87.922,67.434 C87.241,60.289 85.405,57.064 80.236,50.998 C80.103,50.841 80.123,50.607 80.279,50.474 C80.433,50.341 80.667,50.359 80.802,50.517 C86.084,56.714 87.96,60.019 88.662,67.362 C88.681,67.567 88.532,67.749 88.328,67.767 C88.316,67.768 88.304,67.769 88.291,67.769" id="Fill-474" fill="#8B8E8D"></path>
            <path d="M47.043,78.566 C47.043,81.177 44.926,83.294 42.316,83.294 C39.704,83.294 37.587,81.177 37.587,78.566 C37.587,75.955 39.704,73.837 42.316,73.837 C44.926,73.837 47.043,75.955 47.043,78.566" id="Fill-475" fill="#797C7A"></path>
            <path d="M80.841,78.566 C80.841,81.177 78.724,83.294 76.113,83.294 C73.502,83.294 71.385,81.177 71.385,78.566 C71.385,75.955 73.502,73.837 76.113,73.837 C78.724,73.837 80.841,75.955 80.841,78.566" id="Fill-476" fill="#797C7A"></path>
            <path d="M63.942,59.835 C63.942,62.447 61.825,64.563 59.214,64.563 C56.603,64.563 54.487,62.447 54.487,59.835 C54.487,57.225 56.603,55.108 59.214,55.108 C61.825,55.108 63.942,57.225 63.942,59.835" id="Fill-477" fill="#797C7A"></path>
            <path d="M156.892,83.219 C156.882,83.219 156.882,83.219 156.882,83.219 C156.842,83.218 152.465,83.101 152.465,78.478 C152.465,78.272 152.632,78.106 152.837,78.106 C153.042,78.106 153.209,78.272 153.209,78.478 C153.209,82.376 156.742,82.474 156.892,82.475 C157.102,82.479 157.262,82.647 157.262,82.853 C157.252,83.056 157.092,83.219 156.892,83.219" id="Fill-478" fill="#8B8E8D"></path>
            <polyline id="Fill-479" fill="#8B8E8D" points="174.272 136.862 172.042 136.862 172.042 103.983 164.692 103.983 164.692 136.862 162.472 136.862 162.472 101.755 174.272 101.755 174.272 136.862"></polyline>
            <path d="M160.622,89.151 L160.622,99.543 C160.622,100.762 161.612,101.755 162.832,101.755 L173.902,101.755 C175.122,101.755 176.122,100.762 176.122,99.543 L176.122,89.151 L160.622,89.151 Z M173.902,103.983 L162.832,103.983 C160.382,103.983 158.392,101.992 158.392,99.543 L158.392,86.923 L178.342,86.923 L178.342,99.543 C178.342,101.992 176.352,103.983 173.902,103.983 L173.902,103.983 Z" id="Fill-480" fill="#8B8E8D"></path>
            <path d="M178.262,64.243 L158.472,64.243 C158.272,64.243 158.102,64.077 158.102,63.872 C158.102,63.666 158.272,63.501 158.472,63.501 L178.262,63.501 C178.462,63.501 178.632,63.666 178.632,63.872 C178.632,64.077 178.462,64.243 178.262,64.243" id="Fill-481" fill="#8B8E8D"></path>
            <path d="M178.262,68.346 L158.472,68.346 C158.272,68.346 158.102,68.18 158.102,67.975 C158.102,67.769 158.272,67.604 158.472,67.604 L178.262,67.604 C178.462,67.604 178.632,67.769 178.632,67.975 C178.632,68.18 178.462,68.346 178.262,68.346" id="Fill-482" fill="#8B8E8D"></path>
            <path d="M178.262,72.45 L158.472,72.45 C158.272,72.45 158.102,72.285 158.102,72.079 C158.102,71.875 158.272,71.709 158.472,71.709 L178.262,71.709 C178.462,71.709 178.632,71.875 178.632,72.079 C178.632,72.285 178.462,72.45 178.262,72.45" id="Fill-483" fill="#8B8E8D"></path>
            <path d="M196.702,45.351 C196.502,45.351 196.342,45.193 196.332,44.992 L196.182,40.168 C196.212,39.906 196.152,39.709 196.012,39.556 C195.882,39.403 195.692,39.318 195.482,39.318 L190.762,39.318 C190.562,39.318 190.392,39.152 190.392,38.946 C190.392,38.741 190.562,38.576 190.762,38.576 L195.482,38.576 C195.902,38.576 196.302,38.753 196.572,39.064 C196.852,39.375 196.972,39.79 196.922,40.201 L197.072,44.969 C197.082,45.174 196.922,45.346 196.712,45.351 C196.712,45.351 196.712,45.351 196.702,45.351" id="Fill-484" fill="#8B8E8D"></path>
            <path d="M137.661,49.916 L199.072,49.916 L199.072,36.813 C199.072,36.439 198.772,36.132 198.392,36.132 L138.342,36.132 C137.965,36.132 137.661,36.439 137.661,36.813 L137.661,49.916 Z M201.302,52.142 L135.432,52.142 L135.432,36.813 C135.432,35.21 136.737,33.906 138.342,33.906 L198.392,33.906 C199.992,33.906 201.302,35.21 201.302,36.813 L201.302,52.142 L201.302,52.142 Z" id="Fill-485" fill="#8B8E8D"></path>
            <path d="M137.359,52.142 C136.748,52.142 136.23,52.471 135.968,53.023 C135.707,53.574 135.781,54.184 136.167,54.658 L144.558,64.911 C146.796,67.645 148.149,70.952 148.469,74.473 C149.114,81.571 154.975,86.923 162.102,86.923 L174.632,86.923 C181.762,86.923 187.622,81.571 188.262,74.473 C188.592,70.952 189.942,67.645 192.172,64.911 L200.562,54.658 C200.952,54.184 201.022,53.574 200.762,53.023 C200.502,52.471 199.982,52.142 199.372,52.142 L137.359,52.142 Z M174.632,89.151 L162.102,89.151 C153.814,89.151 146.999,82.928 146.248,74.674 C145.97,71.599 144.788,68.71 142.832,66.321 L134.444,56.068 C133.512,54.929 133.325,53.398 133.955,52.068 C134.584,50.74 135.888,49.916 137.359,49.916 L199.372,49.916 C200.842,49.916 202.152,50.74 202.782,52.068 C203.412,53.398 203.222,54.929 202.292,56.068 L193.902,66.321 C191.942,68.71 190.762,71.599 190.482,74.674 C189.732,82.928 182.922,89.151 174.632,89.151 L174.632,89.151 Z" id="Fill-486" fill="#8B8E8D"></path>
            <path d="M164.772,33.773 L171.942,33.773 L171.942,4.076 C171.942,3.057 171.122,2.228 170.102,2.228 L166.622,2.228 C165.602,2.228 164.772,3.057 164.772,4.076 L164.772,33.773 Z M174.172,36.001 L162.542,36.001 L162.542,4.076 C162.542,1.829 164.372,0 166.622,0 L170.102,0 C172.352,0 174.172,1.829 174.172,4.076 L174.172,36.001 L174.172,36.001 Z" id="Fill-487" fill="#8B8E8D"></path>
            <polygon id="Fill-488" fill="#8B8E8D" points="163.862 35.07 172.852 35.07 172.852 28.527 163.862 28.527"></polygon>
            <path d="M147.857,33.773 L155.03,33.773 L155.03,4.076 C155.03,3.057 154.203,2.228 153.185,2.228 L149.703,2.228 C148.685,2.228 147.857,3.057 147.857,4.076 L147.857,33.773 Z M157.262,36.001 L145.629,36.001 L145.629,4.076 C145.629,1.829 147.456,0 149.703,0 L153.185,0 C155.432,0 157.262,1.829 157.262,4.076 L157.262,36.001 L157.262,36.001 Z" id="Fill-489" fill="#8B8E8D"></path>
            <polygon id="Fill-490" fill="#8B8E8D" points="146.951 35.07 155.932 35.07 155.932 18.001 146.951 18.001"></polygon>
            <path d="M181.692,33.773 L188.862,33.773 L188.862,4.076 C188.862,3.057 188.032,2.228 187.012,2.228 L183.532,2.228 C182.522,2.228 181.692,3.057 181.692,4.076 L181.692,33.773 Z M191.092,36.001 L179.462,36.001 L179.462,4.076 C179.462,1.829 181.292,0 183.532,0 L187.012,0 C189.262,0 191.092,1.829 191.092,4.076 L191.092,36.001 L191.092,36.001 Z" id="Fill-491" fill="#8B8E8D"></path>
            <polygon id="Fill-492" fill="#8B8E8D" points="180.782 35.07 189.772 35.07 189.772 18.001 180.782 18.001"></polygon>
        </g>
    </g>
</svg>