<?xml version="1.0" encoding="utf-8"?>
<!-- Generator: Adobe Illustrator 16.0.0, SVG Export Plug-In . SVG Version: 6.00 Build 0)  -->
<!DOCTYPE svg PUBLIC "-//W3C//DTD SVG 1.1 Tiny//EN" "http://www.w3.org/Graphics/SVG/1.1/DTD/svg11-tiny.dtd">
<svg version="1.1" baseProfile="tiny" id="Layer_1" xmlns="http://www.w3.org/2000/svg" xmlns:xlink="http://www.w3.org/1999/xlink"
	 x="0px" y="0px" width="44px" height="44px" viewBox="0 0 44 44" xml:space="preserve">
<rect fill="#13314C" width="44" height="44"/>
<path fill="#FFFFFF" d="M40.834,22.5c0,10.401-8.432,18.834-18.834,18.834c-10.4,0-18.833-8.433-18.833-18.834
	c0-9.725,7.37-17.728,16.83-18.729C20.655,3.702,21.323,3.667,22,3.667C32.402,3.667,40.834,12.099,40.834,22.5z"/>
<circle fill="#13314C" cx="12.969" cy="23.031" r="2.844"/>
<circle fill="#13314C" cx="30.969" cy="23.031" r="2.844"/>
<rect x="21" y="1" fill="#13314C" width="2" height="6"/>
<rect x="19" y="6" fill="#13314C" width="6" height="2"/>
<rect x="21" y="38" fill="#13314C" width="2" height="5"/>
<rect x="19" y="37" fill="#13314C" width="6" height="2"/>
</svg>
